<svg version="1.1" xmlns="http://www.w3.org/2000/svg" style="display: block;" viewBox="0 0 2048 2048" width="962" height="962" preserveAspectRatio="none">
<defs>
	<linearGradient id="Gradient1" gradientUnits="userSpaceOnUse" x1="1168.5" y1="802.873" x2="824.595" y2="967.298">
		<stop class="stop0" offset="0" stop-opacity="1" stop-color="rgb(47,44,164)"/>
		<stop class="stop1" offset="1" stop-opacity="1" stop-color="rgb(192,94,187)"/>
	</linearGradient>
	<linearGradient id="Gradient2" gradientUnits="userSpaceOnUse" x1="432.546" y1="461.702" x2="226.057" y2="619.26">
		<stop class="stop0" offset="0" stop-opacity="1" stop-color="rgb(75,73,200)"/>
		<stop class="stop1" offset="1" stop-opacity="1" stop-color="rgb(92,93,249)"/>
	</linearGradient>
	<linearGradient id="Gradient3" gradientUnits="userSpaceOnUse" x1="769.863" y1="130.948" x2="364.348" y2="411.022">
		<stop class="stop0" offset="0" stop-opacity="1" stop-color="rgb(48,26,113)"/>
		<stop class="stop1" offset="1" stop-opacity="1" stop-color="rgb(76,73,196)"/>
	</linearGradient>
	<linearGradient id="Gradient4" gradientUnits="userSpaceOnUse" x1="1815.14" y1="125.493" x2="1305.88" y2="677.784">
		<stop class="stop0" offset="0" stop-opacity="1" stop-color="rgb(255,160,97)"/>
		<stop class="stop1" offset="1" stop-opacity="1" stop-color="rgb(183,76,175)"/>
	</linearGradient>
	<linearGradient id="Gradient5" gradientUnits="userSpaceOnUse" x1="798.028" y1="1253.83" x2="600.701" y2="1453.08">
		<stop class="stop0" offset="0" stop-opacity="1" stop-color="rgb(63,43,153)"/>
		<stop class="stop1" offset="1" stop-opacity="1" stop-color="rgb(182,83,171)"/>
	</linearGradient>
	<linearGradient id="Gradient6" gradientUnits="userSpaceOnUse" x1="618.8" y1="1228.69" x2="902.781" y2="1136.39">
		<stop class="stop0" offset="0" stop-opacity="1" stop-color="rgb(255,139,119)"/>
		<stop class="stop1" offset="1" stop-opacity="1" stop-color="rgb(190,88,173)"/>
	</linearGradient>
	<linearGradient id="Gradient7" gradientUnits="userSpaceOnUse" x1="329.298" y1="1896.33" x2="534.328" y2="1713.17">
		<stop class="stop0" offset="0" stop-opacity="1" stop-color="rgb(255,159,108)"/>
		<stop class="stop1" offset="1" stop-opacity="1" stop-color="rgb(243,118,131)"/>
	</linearGradient>
	<linearGradient id="Gradient8" gradientUnits="userSpaceOnUse" x1="464.358" y1="1729.21" x2="696.857" y2="1508.77">
		<stop class="stop0" offset="0" stop-opacity="1" stop-color="rgb(251,125,128)"/>
		<stop class="stop1" offset="1" stop-opacity="1" stop-color="rgb(175,78,168)"/>
	</linearGradient>
	<linearGradient id="Gradient9" gradientUnits="userSpaceOnUse" x1="1444.07" y1="1166.99" x2="994" y2="1005.74">
		<stop class="stop0" offset="0" stop-opacity="1" stop-color="rgb(61,161,255)"/>
		<stop class="stop1" offset="1" stop-opacity="1" stop-color="rgb(78,193,255)"/>
	</linearGradient>
	<linearGradient id="Gradient10" gradientUnits="userSpaceOnUse" x1="1592.82" y1="1303.15" x2="1212.81" y2="1702.75">
		<stop class="stop0" offset="0" stop-opacity="1" stop-color="rgb(56,40,131)"/>
		<stop class="stop1" offset="1" stop-opacity="1" stop-color="rgb(82,75,204)"/>
	</linearGradient>
</defs>
<path transform="translate(0,0)" fill="url(#Gradient10)" d="M 929.262 1180.19 C 983.613 1076.52 1065.07 962.03 1182.69 926.015 C 1237.52 909.226 1295.66 909.851 1347.36 937.188 C 1466.27 1000.07 1463.34 1163.51 1406.07 1269 C 1400.22 1279.95 1393.67 1290.51 1386.46 1300.62 C 1521.98 1313.48 1663.55 1348.55 1756.78 1459.39 C 1905.39 1636.06 1861.63 1984.96 1583.97 1992.93 C 1574.82 1993.19 1555.46 1993.15 1546.93 1991.07 C 1539.35 1991.06 1522.69 1988.09 1515.11 1986.56 C 1469.59 1977.62 1426.17 1960.18 1387.12 1935.13 C 1325.97 1896.03 1274.97 1834.95 1246.12 1768.77 C 1241.51 1758.19 1232.7 1738.72 1230.28 1727.71 C 1225.98 1718.08 1221.46 1702.69 1218.25 1692.41 C 1211.85 1672.36 1205.81 1652.2 1200.15 1631.93 C 1192.55 1605.41 1182.99 1577.16 1173.46 1551.42 C 1127.56 1427.4 1064.24 1306.67 968.773 1213.46 C 957.471 1202.42 945.655 1189.83 932.008 1182.72 C 929.557 1181.44 930.911 1182.72 929.262 1180.19 z"/>
<path transform="translate(0,0)" fill="url(#Gradient9)" d="M 929.262 1180.19 C 983.613 1076.52 1065.07 962.03 1182.69 926.015 C 1237.52 909.226 1295.66 909.851 1347.36 937.188 C 1466.27 1000.07 1463.34 1163.51 1406.07 1269 C 1400.22 1279.95 1393.67 1290.51 1386.46 1300.62 C 1386.32 1300.61 1386.17 1300.6 1386.03 1300.59 C 1233.75 1283.43 1087.03 1239.31 944.03 1185.43 C 938.876 1183.49 934.629 1181.32 929.262 1180.19 z"/>
<path transform="translate(0,0)" fill="rgb(82,75,213)" d="M 1230.28 1727.71 C 1230.32 1725.01 1230.34 1722.3 1230.35 1719.6 L 1231.25 1718.9 L 1231.63 1719.31 L 1230.79 1720.13 L 1233.22 1721.04 L 1233.09 1720.71 C 1242.37 1727.39 1260.52 1719.89 1270.16 1723.94 C 1285.35 1730.31 1296.44 1740.76 1307.96 1751.97 C 1311.55 1755.42 1328.66 1764.87 1333.33 1767.45 C 1345.3 1788.83 1365.21 1805.89 1385.58 1818.31 C 1402.43 1828.59 1405.49 1830.65 1412.46 1848.28 C 1413.5 1850.9 1434.42 1865.19 1437.33 1869.63 C 1449.73 1882.26 1458.77 1902.17 1473.01 1912.08 C 1492.45 1925.61 1499.64 1951.09 1521.53 1960.84 C 1521.57 1960.86 1526.77 1972.93 1527.36 1973.98 C 1529.36 1978.05 1548.74 1988.32 1552.69 1990.16 C 1550.2 1990.83 1549.53 1990.85 1546.93 1991.07 C 1539.35 1991.06 1522.69 1988.09 1515.11 1986.56 C 1469.59 1977.62 1426.17 1960.18 1387.12 1935.13 C 1325.97 1896.03 1274.97 1834.95 1246.12 1768.77 C 1241.51 1758.19 1232.7 1738.72 1230.28 1727.71 z"/>
<path transform="translate(0,0)" fill="url(#Gradient8)" d="M 574.034 1024.72 C 644.701 964.416 716.166 907.93 787.838 849.26 C 786.081 860.61 798.713 882.227 805.089 891.694 C 810.076 899.1 819.815 909.092 823.306 916.882 C 830.958 933.959 834.964 951.082 845.938 967.078 C 848.608 970.969 850.548 982.939 853.106 987.72 C 861.615 1008.68 870.008 1027.2 872.385 1049.99 C 873.327 1059.02 875.735 1082.34 884.692 1086.22 C 890.283 1083.26 888.838 1077.9 893.463 1078.04 L 892.777 1079.51 C 890.145 1085.02 875.581 1106.67 871.26 1113.72 C 858.619 1134.53 846.663 1155.75 835.411 1177.34 C 789.413 1264.82 755.505 1369.23 747.375 1468.27 C 746.436 1479.71 744.616 1503.1 745.416 1514.3 C 749.187 1523.81 765.899 1546.42 772.154 1555.36 C 788.418 1578.62 806.075 1601.68 821.385 1625.66 C 825.406 1631.96 834.405 1645.53 836.523 1651.92 C 878.11 1720.35 890.696 1802.53 871.492 1880.27 C 859.113 1931.62 818.942 1979.96 773.773 2005.92 C 767.228 2009.68 752.645 2017.83 745.61 2019.9 C 682.371 2045.81 602.144 2044.53 536.48 2026.39 C 436.377 1998.75 341.895 1933.38 288.504 1843.21 C 230.213 1744.77 224.786 1628.92 244.27 1518.58 C 246.991 1503.16 252.409 1484.64 256.469 1469.24 C 263.691 1448.31 266.948 1433.69 276.254 1411.74 C 305.068 1343.77 340.858 1288.49 384.021 1229.15 C 419.567 1179.94 523.432 1059.87 574.034 1024.72 z"/>
<path transform="translate(0,0)" fill="url(#Gradient7)" d="M 256.469 1469.24 C 258.478 1468.72 258.917 1468.8 260.62 1467.64 C 262.501 1472.28 266.118 1474.97 269.842 1477.94 C 278.819 1485.64 285.197 1495.37 293.352 1504.13 C 301.162 1512.52 324.065 1518.62 330.281 1526.03 C 344.347 1543.29 359.626 1558.59 375.021 1574.64 C 386.128 1586.22 394.798 1598.92 407.013 1609.92 C 420.714 1622.26 434.594 1632.15 449.988 1642.28 C 458.665 1647.98 466.721 1656.92 475.253 1663.06 C 489.907 1672.35 502.742 1683.16 514.165 1696.26 C 516.7 1699.17 521.554 1706.18 523.796 1707.7 C 542.022 1720.13 551.786 1730.89 561.887 1750.59 C 563.34 1753.43 575.451 1760.46 577.847 1763.8 C 588.514 1776.94 597.249 1790.98 607.402 1804.64 C 613.644 1813.04 619.678 1817.61 624.471 1823.81 C 628.481 1829 636.303 1846.72 637.955 1853.7 C 641.155 1862.3 651.121 1869.46 656.897 1876.75 C 660.468 1881.26 663.474 1891.67 666.728 1895.17 C 678.245 1907.56 682.026 1920.49 689.812 1934.1 C 703.231 1957.58 714.747 1979.45 724.879 2004.42 C 727.151 2009.84 743.157 2016.42 745.61 2019.9 C 682.371 2045.81 602.144 2044.53 536.48 2026.39 C 436.377 1998.75 341.895 1933.38 288.504 1843.21 C 230.213 1744.77 224.786 1628.92 244.27 1518.58 C 246.991 1503.16 252.409 1484.64 256.469 1469.24 z"/>
<path transform="translate(0,0)" fill="url(#Gradient6)" d="M 574.034 1024.72 C 644.701 964.416 716.166 907.93 787.838 849.26 C 786.081 860.61 798.713 882.227 805.089 891.694 C 810.076 899.1 819.815 909.092 823.306 916.882 C 830.958 933.959 834.964 951.082 845.938 967.078 C 848.608 970.969 850.548 982.939 853.106 987.72 C 861.615 1008.68 870.008 1027.2 872.385 1049.99 C 873.327 1059.02 875.735 1082.34 884.692 1086.22 C 890.283 1083.26 888.838 1077.9 893.463 1078.04 L 892.777 1079.51 C 890.145 1085.02 875.581 1106.67 871.26 1113.72 C 858.619 1134.53 846.663 1155.75 835.411 1177.34 C 789.413 1264.82 755.505 1369.23 747.375 1468.27 C 746.436 1479.71 744.616 1503.1 745.416 1514.3 L 745.004 1514.9 L 744.053 1514.99 C 737.047 1507.15 724.532 1484.42 719.191 1474.47 C 655.78 1356.37 609.318 1222.93 583.403 1091.54 C 580.136 1074.98 573.659 1040.74 574.034 1024.72 z"/>
<path transform="translate(0,0)" fill="url(#Gradient5)" d="M 384.021 1229.15 C 419.567 1179.94 523.432 1059.87 574.034 1024.72 C 573.659 1040.74 580.136 1074.98 583.403 1091.54 C 609.318 1222.93 655.78 1356.37 719.191 1474.47 C 724.532 1484.42 737.047 1507.15 744.053 1514.99 L 745.004 1514.9 L 745.416 1514.3 C 749.187 1523.81 765.899 1546.42 772.154 1555.36 C 788.418 1578.62 806.075 1601.68 821.385 1625.66 C 825.406 1631.96 834.405 1645.53 836.523 1651.92 C 836.046 1658.66 843.26 1665.95 840.348 1671.08 C 837.172 1670.18 817.634 1651.58 815.136 1648.11 C 804.609 1633.48 797.227 1617.29 785.161 1603.52 C 779.306 1596.84 774.896 1595.75 768.333 1590.39 C 752.052 1570.01 742.6 1552.99 720.432 1538.55 C 710.014 1531.77 696.413 1513.9 683.69 1506.31 C 674.492 1500.82 663.391 1483.2 656.134 1475.45 C 652.517 1472.6 648.675 1469.24 644.859 1466.7 C 623.829 1452.69 608.279 1435.25 590.624 1417.95 C 581.655 1409.17 562.733 1403.31 552.373 1395.36 C 543.945 1388.9 534.884 1385.11 528.969 1375.37 C 523.848 1362.19 493.849 1350.46 488.345 1342.49 C 472.779 1319.95 454.594 1307.5 435.42 1288.76 C 420.952 1274.61 407.385 1256.01 392.504 1241.74 C 391.368 1240.65 390.94 1235.98 389.591 1233.66 C 386.343 1232.04 386.233 1232.21 384.021 1229.15 z"/>
<path transform="translate(0,0)" fill="url(#Gradient4)" d="M 1119.34 509.783 C 1130.07 495.292 1141.91 481.286 1152.81 466.786 C 1177.38 433.751 1201.33 400.264 1224.66 366.343 C 1317.51 231.295 1410.81 71.9718 1589.08 45.1792 C 1737.66 22.8486 1869.52 130.622 1885.67 277.761 C 1897.16 378.416 1878.69 483.148 1814.46 564.575 C 1707.06 704.816 1534.95 718.153 1372.84 735.581 C 1371.59 735.331 1370.53 734.877 1369.31 734.443 C 1373.84 731.219 1389.39 736.229 1394.63 730.254 C 1394.7 728.6 1390.5 714.361 1389.28 712.813 C 1383.22 711.66 1383.36 708.345 1379.97 701.75 C 1373.46 689.091 1368.46 682.746 1357.34 673.6 C 1350.08 667.622 1316.79 655.158 1312.97 650.186 C 1304.17 638.706 1292.92 635.099 1282.23 624.936 C 1275.35 618.391 1268.21 620.994 1257.78 612.652 C 1237.43 596.382 1218.03 583.167 1198.61 565.565 C 1190.48 558.202 1184.43 550.75 1177.7 544.741 C 1172.29 539.907 1150.72 533.86 1143.95 528.139 C 1135.26 520.783 1133.06 515.002 1123.11 508.695 L 1121.22 510.161 L 1119.34 509.783 z"/>
<path transform="translate(0,0)" fill="url(#Gradient3)" d="M 269.697 268.011 C 349.958 132.236 585.871 25.6127 735.672 107.727 C 773.066 128.225 800.757 161.523 811.452 202.937 C 822.86 247.788 818.865 299.79 794.45 339.751 C 769.321 380.883 737.977 402.038 696.075 422.555 C 680.79 433.147 666.175 448.831 654.153 463.113 C 531.729 608.545 506.983 817.194 555.083 995.979 C 540.492 979.795 522.229 962.423 506.615 946.936 C 478.569 919.311 450.808 891.397 423.337 863.2 C 412.524 851.97 394.506 833.991 385.162 822.36 C 291.813 723.35 216.926 605.374 214.959 465.961 C 213.918 392.129 229.23 330.173 269.697 268.011 z"/>
<path transform="translate(0,0)" fill="url(#Gradient2)" d="M 269.697 268.011 C 275.321 272.799 274.635 282.143 278.238 286.734 C 283.43 293.35 285.68 289.587 290.615 298.836 C 296.548 309.955 311.036 326.819 319.219 336.679 C 339.086 360.618 355.371 385.391 376.222 408.255 C 386.885 420.007 391.8 443.635 403.684 455.611 C 411.293 464.535 421.269 471.075 429.009 479.641 C 435.14 486.426 438.095 497.256 445.378 503.342 C 455.177 513.487 466.324 520.163 474.561 530.756 C 476.911 533.778 479.455 536.686 481.908 539.618 C 492.059 540.941 501.445 523.501 511.703 521.266 C 518.531 517.238 534.866 502.742 543.975 496.754 C 583.732 470.617 624.335 449.009 668.65 431.591 C 675.338 428.962 689.653 422.63 696.075 422.555 C 680.79 433.147 666.175 448.831 654.153 463.113 C 531.729 608.545 506.983 817.194 555.083 995.979 C 540.492 979.795 522.229 962.423 506.615 946.936 C 478.569 919.311 450.808 891.397 423.337 863.2 C 412.524 851.97 394.506 833.991 385.162 822.36 C 291.813 723.35 216.926 605.374 214.959 465.961 C 213.918 392.129 229.23 330.173 269.697 268.011 z"/>
<path transform="translate(0,0)" fill="rgb(74,185,253)" d="M 511.703 521.266 C 518.531 517.238 534.866 502.742 543.975 496.754 C 583.732 470.617 624.335 449.009 668.65 431.591 C 675.338 428.962 689.653 422.63 696.075 422.555 C 680.79 433.147 666.175 448.831 654.153 463.113 C 531.729 608.545 506.983 817.194 555.083 995.979 C 540.492 979.795 522.229 962.423 506.615 946.936 C 478.569 919.311 450.808 891.397 423.337 863.2 C 412.524 851.97 394.506 833.991 385.162 822.36 C 383.158 796.165 380.093 782.928 381.918 754.587 C 386.505 683.358 417.272 620.763 463.945 567.677 C 479.385 550.116 494.685 536.674 511.703 521.266 z"/>
<path transform="translate(0,0)" fill="rgb(153,76,197)" d="M 1119.34 509.783 L 1121.22 510.161 L 1123.11 508.695 C 1133.06 515.002 1135.26 520.783 1143.95 528.139 C 1150.72 533.86 1172.29 539.907 1177.7 544.741 C 1184.43 550.75 1190.48 558.202 1198.61 565.565 C 1218.03 583.167 1237.43 596.382 1257.78 612.652 C 1268.21 620.994 1275.35 618.391 1282.23 624.936 C 1292.92 635.099 1304.17 638.706 1312.97 650.186 C 1316.79 655.158 1350.08 667.622 1357.34 673.6 C 1368.46 682.746 1373.46 689.091 1379.97 701.75 C 1383.36 708.345 1383.22 711.66 1389.28 712.813 C 1390.5 714.361 1394.7 728.6 1394.63 730.254 C 1389.39 736.229 1373.84 731.219 1369.31 734.443 C 1370.53 734.877 1371.59 735.331 1372.84 735.581 C 1362.3 736.903 1351.77 738.344 1341.25 739.904 C 1293.86 752.233 1247.83 769.307 1203.86 790.867 C 1189.29 798.039 1174.9 807.537 1160.79 814.476 C 1141.32 827.205 1119.61 841.143 1101.23 855.23 C 1048.05 896.003 993.708 948.11 951.401 1000.32 C 938.267 1016.58 925.571 1033.19 913.324 1050.13 C 909.017 1056.12 897.599 1073.47 893.463 1078.04 C 888.838 1077.9 890.283 1083.26 884.692 1086.22 C 875.735 1082.34 873.327 1059.02 872.385 1049.99 C 870.008 1027.2 861.615 1008.68 853.106 987.72 C 850.548 982.939 848.608 970.969 845.938 967.078 C 834.964 951.082 830.958 933.959 823.306 916.882 C 819.815 909.092 810.076 899.1 805.089 891.694 C 798.713 882.227 786.081 860.61 787.838 849.26 C 799.447 840.003 813.152 828.443 823.926 818.273 C 895.348 755.47 963.06 688.57 1026.72 617.912 C 1049.49 592.617 1071.89 566.99 1093.9 541.039 C 1102.52 530.782 1110.69 519.752 1119.34 509.783 z"/>
<path transform="translate(0,0)" fill="url(#Gradient1)" d="M 823.926 818.273 C 836.249 818.157 849.193 812.59 860.975 808.374 C 900.989 794.058 937.355 788.618 979.032 781.899 C 1026.76 773.998 1074.69 767.352 1122.76 761.968 C 1135.23 771.624 1136.18 784.424 1146.01 795.814 C 1149.42 799.76 1165 805.65 1170.06 805.688 L 1170.65 806.651 C 1166.56 809.897 1162.85 810.171 1159.92 813.393 L 1160.79 814.476 C 1141.32 827.205 1119.61 841.143 1101.23 855.23 C 1048.05 896.003 993.708 948.11 951.401 1000.32 C 938.267 1016.58 925.571 1033.19 913.324 1050.13 C 909.017 1056.12 897.599 1073.47 893.463 1078.04 C 888.838 1077.9 890.283 1083.26 884.692 1086.22 C 875.735 1082.34 873.327 1059.02 872.385 1049.99 C 870.008 1027.2 861.615 1008.68 853.106 987.72 C 850.548 982.939 848.608 970.969 845.938 967.078 C 834.964 951.082 830.958 933.959 823.306 916.882 C 819.815 909.092 810.076 899.1 805.089 891.694 C 798.713 882.227 786.081 860.61 787.838 849.26 C 799.447 840.003 813.152 828.443 823.926 818.273 z"/>
<path transform="translate(0,0)" fill="rgb(61,36,136)" d="M 1122.76 761.968 C 1179.67 754.669 1237.4 750.928 1294.38 743.884 C 1308.51 742.137 1327.28 740.004 1341.25 739.904 C 1293.86 752.233 1247.83 769.307 1203.86 790.867 C 1189.29 798.039 1174.9 807.537 1160.79 814.476 L 1159.92 813.393 C 1162.85 810.171 1166.56 809.897 1170.65 806.651 L 1170.06 805.688 C 1165 805.65 1149.42 799.76 1146.01 795.814 C 1136.18 784.424 1135.23 771.624 1122.76 761.968 z"/>
</svg>