<?xml version="1.0" encoding="UTF-8" standalone="no"?>
<!-- Created with Inkscape (http://www.inkscape.org/) -->

<svg
   version="1.1"
   id="svg52"
   width="3546.9966"
   height="4096"
   viewBox="0 0 3546.9966 4096"
   xmlns="http://www.w3.org/2000/svg"
   xmlns:svg="http://www.w3.org/2000/svg">
  <defs
     id="defs56" />
  <g
     id="g58"
     transform="translate(-569.32549,-28.033902)">
    <g
       id="g220"
       transform="translate(37.237219,39.949152)">
      <path
         style="fill:#6b97c0"
         d="m 1375.0849,4082.4859 c 0,-2.6864 34.1325,-61.3815 45.0551,-77.4781 6.0662,-8.9395 21.9449,-37.1603 21.9449,-39.002 0,-0.926 -1.6875,-2.9511 -3.75,-4.5003 -2.0625,-1.5492 -8.8686,-7.1151 -15.1247,-12.3687 -14.8032,-12.4312 -21.2029,-17.6621 -42.2167,-34.5066 -19.4467,-15.5883 -75.0247,-62.0809 -101.6649,-85.0454 -20.3419,-17.5353 -23.8085,-20.1949 -27.4409,-21.0531 -2.4493,-0.5786 -2.9547,-0.1623 -5.5,4.5317 -6.6459,12.2563 -33.0114,56.3378 -42.4784,71.0214 -3.0141,4.675 -12.5841,20.875 -21.2666,36 -31.6447,55.1253 -33.5242,57.8368 -41.5975,60.0106 -11.5866,3.12 -23.0989,-2.9513 -27.513,-14.5095 -1.525,-3.993 -1.5899,-5.2861 -0.5083,-10.1191 2.822,-12.61 7.964,-22.1751 45.0931,-83.882 10.5899,-17.6 27.9578,-46.0071 38.5953,-63.127 10.6375,-17.1198 19.5959,-31.7914 19.9076,-32.6037 0.3887,-1.0128 -8.1687,-9.2852 -27.2341,-26.3266 -31.1243,-27.8202 -55.7282,-50.84 -80.4858,-75.3038 l -16.6848,-16.4868 -60.3152,59.9571 c -76.32445,75.8715 -87.50702,86.7008 -91.81514,88.9146 -2.03145,1.0439 -6.43709,1.9613 -10.5,2.1863 -9.23818,0.5117 -13.71972,-1.9126 -17.99255,-9.733 -3.94842,-7.2267 -4.20932,-17.0822 -0.63205,-23.875 2.65285,-5.0373 28.97648,-32.119 62.6246,-64.428 54.41224,-52.2467 85.50004,-82.9816 85.50004,-84.5293 0,-0.9131 -11.0638,-12.6818 -24.5863,-26.1526 -13.5224,-13.4707 -32.509,-32.8173 -42.19234,-42.9923 -9.68338,-10.175 -18.23339,-18.8816 -19.00007,-19.348 -0.93485,-0.5687 -2.60063,0.1097 -5.05765,2.0598 -2.01502,1.5992 -8.16368,6.0054 -13.66368,9.7914 -5.5,3.7861 -17.425,12.1219 -26.5,18.524 -9.075,6.402 -27.3,19.0699 -40.5,28.1507 -13.2,9.0808 -32.32677,22.3618 -42.50393,29.5134 -22.36374,15.7152 -23.46409,16.3087 -30.23452,16.3087 -7.41928,0 -13.38174,-3.1835 -17.49796,-9.3427 -7.75598,-11.6053 -6.40034,-22.7944 3.90212,-32.2072 2.38386,-2.178 13.10929,-9.9536 23.83429,-17.2793 10.725,-7.3256 22.65,-15.5701 26.5,-18.3211 3.85,-2.751 13.075,-9.0914 20.5,-14.0899 41.10662,-27.6725 64.85744,-44.9256 67.34272,-48.9191 1.05665,-1.6979 -2.74964,-6.4751 -19.80107,-24.852 -10.76251,-11.5991 -37.82084,-43.3248 -77.54165,-90.9171 -10.13329,-12.1414 -16.25912,-18.6796 -17.69247,-18.8836 -2.37779,-0.3384 -68.8077,33.1022 -111.30753,56.0318 -30.15343,16.2685 -36.30871,18.794 -45.71845,18.7582 -7.37153,-0.028 -12.86792,-2.5086 -17.46912,-7.884 -4.89053,-5.7135 -6.50162,-11.7766 -5.01392,-18.8693 1.54902,-7.385 4.76871,-11.2402 14.2709,-17.0879 7.6442,-4.7043 82.62052,-42.6565 114.43059,-57.9236 17.62121,-8.4572 21.5,-10.7142 21.5,-12.5107 0,-1.3946 -0.99198,-2.7957 -23.50772,-33.2024 -7.73809,-10.45 -21.19129,-28.8215 -29.89602,-40.8257 -8.70472,-12.0041 -16.46947,-22.0722 -17.255,-22.3737 -0.78553,-0.3013 -5.57117,1.2886 -10.63475,3.5335 -14.43421,6.3992 -44.20857,20.3649 -55.20651,25.8948 -19.20571,9.6567 -45.06854,21.1048 -53.77298,23.8023 -6.30496,1.9539 -10.13136,2.5882 -13.60158,2.2548 -7.03428,-0.6759 -13.76572,-4.2854 -16.94142,-9.0841 -2.39774,-3.6232 -2.68402,-4.9878 -2.68402,-12.7927 0,-8.1124 0.21705,-9.0469 3.03656,-13.0731 3.65597,-5.2207 9.68749,-8.4074 54.46344,-28.7758 62.82262,-28.5778 66.5066,-30.4145 66.4415,-33.1248 -0.0322,-1.3395 -4.48844,-9.1855 -9.90281,-17.4355 -23.8048,-36.272 -29.94631,-45.9044 -41.76219,-65.5 -4.1455,-6.875 -10.8065,-17.6751 -14.8022,-24 -28.97286,-45.8626 -38.96787,-64.2751 -54.28396,-100 -30.84691,-71.9509 -42.69775,-117.441 -42.68692,-163.856 0.0102,-43.572 9.17435,-80.1055 28.50688,-113.644 11.22566,-19.4745 17.50189,-27.3901 36.14833,-45.5901 14.68463,-14.333 18.52586,-17.4369 20.59598,-16.6424 0.69853,0.268 3.45655,5.5198 6.12894,11.6707 5.74646,13.2264 10.12178,19.3911 19.66723,27.7104 11.04434,9.6256 18.82394,12.8851 45.94922,19.2512 7.81675,1.8345 79.29421,16.5766 92,18.9748 3.025,0.571 23.275,4.6711 45,9.1115 21.725,4.4404 64.925,13.2034 96,19.4736 31.075,6.2701 70.45,14.335 87.50004,17.922 17.05,3.5869 61.375,12.6333 98.5,20.1031 37.125,7.4697 76.05,15.3526 86.5,17.5174 27.9268,5.7853 59.8766,12.2363 86.5,17.4652 12.925,2.5384 33.85,6.8233 46.5,9.522 43.3105,9.2393 194.5222,39.9904 260.5,52.9765 20.8382,4.1015 42.1813,8.474 99.5,20.3844 17.6,3.6571 52.925,10.898 78.5,16.0908 152.6895,31.0023 182.2929,37.0439 208.5,42.5508 15.95,3.3515 54.425,11.2273 85.5,17.5016 79.819,16.1164 130.1233,26.3316 170,34.522 18.975,3.8973 61.05,12.4299 93.5,18.9616 32.45,6.5315 75.65,15.3058 96,19.4985 20.35,4.1926 51.175,10.5025 68.5,14.022 38.9196,7.9063 76.3125,15.6661 111,23.0348 38.1851,8.1118 52.3949,8.3805 70.3345,1.3301 14.1146,-5.547 30.1829,-19.6712 36.8236,-32.3682 6.468,-12.3667 8.3518,-20.2215 8.2724,-34.4943 -0.063,-11.3573 -0.3647,-13.3684 -3.299,-22 -6.0814,-17.8894 -15.9606,-31.4258 -29.446,-40.3463 -8.35,-5.5234 -16.3083,-8.4703 -31.6733,-11.728 -78.9663,-16.7426 -145.328,-30.4072 -325.0122,-66.9237 -138.9335,-28.2348 -205.9104,-41.9409 -232,-47.4761 -14.025,-2.9756 -48.9,-9.9679 -77.5,-15.5385 -28.6,-5.5707 -59.5124,-11.6734 -68.6943,-13.5615 -17.4463,-3.5878 -146.635,-29.7315 -239.3057,-48.4279 -29.7,-5.9921 -81.9,-16.5697 -116,-23.5059 -34.1,-6.9362 -69.65,-14.1314 -79,-15.9893 -9.35,-1.8579 -31.4,-6.3551 -49,-9.9939 -33.9998,-7.0294 -98.6201,-20.1028 -235,-47.5432 -46.2,-9.2958 -95.025,-19.1865 -108.5,-21.9796 -13.475,-2.793 -45.425,-9.3064 -71,-14.474 -25.575,-5.1677 -61.80004,-12.6132 -80.50004,-16.5454 -18.7,-3.9323 -46.375,-9.5543 -61.5,-12.4932 -15.125,-2.9389 -52.25,-10.3364 -82.5,-16.4391 -30.25,-6.1026 -65.575,-13.1398 -78.5,-15.6383 -61.35276,-11.8596 -64.31794,-11.9819 -85.16659,-3.5111 -4.21662,1.7132 -8.94162,3.1102 -10.5,3.1045 -4.1721,-0.015 -18.39598,-11.3591 -26.63972,-21.2456 -13.99439,-16.7832 -25.74059,-37.2624 -31.11253,-54.244 -5.20448,-16.4522 -5.94383,-21.1772 -5.94611,-38 -0.002,-18.0232 1.04766,-24.6995 7.45193,-47.3779 14.98583,-53.0669 38.40317,-94.685 99.99355,-177.7123 24.00755,-32.3635 35.2035,-47.2933 47.801,-63.7425 6.80984,-8.892 19.40984,-25.7899 28,-37.5508 18.10038,-24.7816 52.46751,-70.8761 59.36042,-79.6165 2.60247,-3.3 10.43699,-13.425 17.41004,-22.5 18.14594,-23.6158 67.27783,-85.7069 77.15055,-97.5 4.60438,-5.5 16.08237,-19.225 25.50666,-30.5 9.42429,-11.275 22.12256,-26.35 28.21838,-33.5 10.91952,-12.8079 32.60886,-39.1268 57.27466,-69.5 15.2653,-18.7976 43.2406,-52.1891 63.9129,-76.287 28.3591,-33.0585 28.0419,-32.5659 34.5869,-53.713 16.8882,-54.5656 41.5351,-157.6112 50.7072,-212 9.6521,-57.2347 27.3943,-140.1404 37.9141,-177.1645 19.3885,-68.2372 49.4905,-127.6519 90.6055,-178.8355 23.5187,-29.2782 33.3286,-39.2508 59.9712,-60.9658 31.7676,-25.8923 80.7698,-52.34717 127.5,-68.8339 34.0187,-12.00202 51.1252,-16.75243 90.5,-25.13152 61.8153,-13.15449 107.0837,-17.95583 158,-16.75809 36.0748,0.84862 54.5118,3.42882 76.8019,10.74825 6.6011,2.16761 12.5967,3.94111 13.3234,3.94111 1.4301,0 7.0463,-8.44612 28.2601,-42.5 41.9805,-67.38992 75.8229,-117.27066 121.1063,-178.5 9.1522,-12.375 23.2568,-31.5 31.3436,-42.5 45.6137,-62.04549 78.5946,-103.57551 128.2546,-161.5 79.1134,-92.27982 110.7726,-126.49348 187.0116,-202.10139 34.34,-34.05575 47.386,-46.47506 82.9519,-78.96684 77.3653,-70.67819 159.3726,-136.14596 237.4466,-189.557384 26.4421,-18.0894 64.7572,-42.417485 78.4394,-49.8050158 l 6.6108,-3.5693702 h 669.4749 669.4749 v 2048.00005 2048 H 2839.1307 1599.1765 l -11.7958,-9.0006 c -6.4877,-4.9503 -21.9208,-16.5551 -34.2958,-25.7885 -12.375,-9.2334 -32.5232,-24.4206 -44.7738,-33.7495 -12.2506,-9.3287 -23.59,-17.7768 -25.1987,-18.7736 l -2.925,-1.8121 -3.0702,4.2383 c -1.6886,2.331 -13.0134,20.9215 -25.1663,41.3121 -12.1528,20.3907 -23.0568,38.5332 -24.231,40.317 l -2.135,3.2432 -25.25,0.01 c -22.4746,0.01 -25.25,-0.1689 -25.25,-1.5921 z"
         id="path226" />
      <path
         style="display:inline;fill:#3174b0"
         d="m 1377.4461,4080.3348 c 2.3335,-3.662 7.6674,-12.8046 24.6492,-42.25 4.5994,-7.975 11.9911,-20.111 16.426,-26.9689 4.435,-6.8578 11.9305,-19.2328 16.6568,-27.5 11.4352,-20.0023 10.081,-19.8986 27.5602,-2.1134 7.3406,7.469 13.3466,14.0882 13.3466,14.7094 0,0.6213 -2.8495,5.6843 -6.3323,11.2511 -10.9302,17.4712 -44.6677,74.5964 -44.6677,75.6326 0,0.6259 -9.1868,0.9892 -25.0142,0.9892 h -25.0142 z m -252.1794,-103.8467 c -5.7059,-2.8435 -9.8263,-8.4381 -10.847,-14.7279 -0.627,-3.8634 2.2192,-13.5922 6.6337,-22.6754 5.5846,-11.4908 48.9116,-84.3088 73.1855,-123 4.6582,-7.4251 11.3138,-18.0966 14.7901,-23.7149 9.0701,-14.6583 8.4348,-14.3165 16.7014,-8.9866 7.8535,5.0636 17.2082,14.4835 19.7934,19.9313 l 1.7658,3.7212 -4.0084,7.7745 c -5.0855,9.8635 -26.8625,46.3381 -44.3454,74.2744 -3.6141,5.775 -12.8978,21.525 -20.6306,35 -23.7288,41.3494 -25.5319,44.339 -29.1828,48.3852 -6.4799,7.1815 -14.7217,8.5699 -23.8557,4.0182 z M 920.58486,3805.6822 c -6.26085,-2.7636 -9.5,-9.2777 -9.5,-19.1052 0,-4.6806 0.6057,-7.7836 2.10465,-10.782 1.92331,-3.8475 33.04363,-35.4961 68.05479,-69.2102 6.28276,-6.0501 26.6523,-25.85 45.2656,-44 18.6133,-18.1501 34.7216,-33.149 35.7961,-33.3311 1.3886,-0.2352 4.8933,2.7014 12.1163,10.1526 5.5894,5.7661 11.4073,11.9319 12.9285,13.7021 l 2.7659,3.2183 -5.5035,6.2687 c -5.059,5.7623 -122.21522,121.7749 -136.07418,134.7459 -3.32522,3.1122 -8.05022,6.5677 -10.5,7.679 -5.12894,2.3267 -13.00606,2.6254 -17.45416,0.6619 z M 809.81332,3639.7557 c -5.64438,-1.7525 -10.23586,-5.9648 -13.27704,-12.1808 -2.27782,-4.6556 -2.62364,-6.3883 -2.12142,-10.6288 1.20039,-10.1353 4.73415,-13.7713 29.67,-30.5279 4.125,-2.772 9.525,-6.4579 12,-8.191 14.80302,-10.3658 31.63072,-21.8739 47.00031,-32.1424 5.35095,-3.575 11.95615,-8.075 14.67824,-10 2.72209,-1.9251 7.65588,-5.3176 10.96398,-7.5391 8.42844,-5.6599 15.58772,-10.9358 24.70336,-18.2046 4.31524,-3.4409 8.20515,-6.2563 8.64425,-6.2563 1.44152,0 6.4611,5.3885 15.83619,17 2.44236,3.025 6.29309,7.4481 8.55717,9.8292 l 4.1165,4.3291 -3.28515,2.773 c -1.80684,1.5252 -8.51822,6.3271 -14.91419,10.6709 -6.39597,4.3438 -14.696,10.1478 -18.44451,12.8978 -3.74851,2.75 -10.41798,7.475 -14.82103,10.5 -4.40306,3.025 -13.29971,9.1666 -19.77034,13.6479 -6.47063,4.4814 -14.46478,10.015 -17.76478,12.2969 -8.81537,6.0957 -21.71623,15.1643 -38.83922,27.3019 -21.6096,15.318 -25.11232,16.8521 -32.93232,14.4242 z m 2076.27158,-41.7812 c -48.3761,-2.3853 -106.5729,-8.7235 -147,-16.0097 -9.075,-1.6356 -17.5991,-3.2482 -18.9425,-3.5836 -2.442,-0.6097 -2.4421,-0.61 -0.2421,-1.4238 1.2102,-0.4477 8.1594,-1.7578 15.4425,-2.9113 37.1762,-5.888 80.2087,-13.7104 107.7421,-19.5856 89.8898,-19.1808 171.5447,-45.2959 254.5,-81.3952 6.05,-2.6327 15.5,-6.6867 21,-9.009 30.3144,-12.7993 84.619,-39.6923 112,-55.4654 15.299,-8.8131 48.4139,-28.4353 53.8426,-31.9044 2.8366,-1.8126 8.3074,-5.2644 12.1574,-7.6707 73.5146,-45.9483 146.8734,-102.7559 217.0263,-168.0609 26.4543,-24.6261 72.4872,-72.4137 103.4277,-107.3701 41.2242,-46.5749 83.7131,-103.2949 122.4778,-163.5 47.8426,-74.3041 88.0632,-152.2068 119.6003,-231.6524 30.8801,-77.7904 51.2969,-145.0656 65.3989,-215.4945 6.4818,-32.3723 17.0926,-99.8588 19.0801,-121.3531 0.356,-3.85 1.5043,-14.425 2.5517,-23.5 1.6884,-14.6272 3.2778,-34.9697 5.5085,-70.5 0.7189,-11.4505 1.7268,-16.2902 2.8115,-13.5 1.079,2.7756 11.4319,50.3456 14.5816,67 1.7162,9.075 3.9807,21 5.032,26.5 2.3202,12.1377 4.9211,28.308 8.9268,55.5 3.629,24.635 4.6032,32.9938 6.0601,52 0.6114,7.975 1.5537,19.9 2.0941,26.5 4.4762,54.6706 2.3835,123.9913 -5.6606,187.5 -8.5497,67.5005 -19.456,120.0926 -35.792,172.5952 -12.5259,40.2571 -26.2036,78.3569 -37.6605,104.9048 -2.8483,6.6 -6.7344,15.6 -8.6359,20 -7.8162,18.0868 -17.7665,39.23 -22.7419,48.3236 -33.2353,60.7457 -49.5135,87.9244 -69.5577,116.1359 -12.5003,17.5937 -36.0985,48.8153 -45.4397,60.1189 -3.899,4.7182 -11.5891,14.1588 -17.0891,20.9792 -38.2852,47.4764 -99.7982,108.0425 -156.5,154.0909 -11.2839,9.1638 -38.0578,29.1565 -57.5,42.9366 -30.9374,21.9275 -96.6053,61.0123 -133.2985,79.3376 -31.7253,15.8442 -71.3882,32.9598 -102.7015,44.3185 -42.4787,15.4087 -97.8671,31.9076 -135.5,40.3622 -44.569,10.0128 -77.7849,15.4845 -117.39,19.3379 -61.9772,6.0301 -112.699,7.7615 -159.61,5.4484 z M 659.58486,3438.5819 c -8.48197,-3.0004 -14.41854,-13.021 -12.95062,-21.8598 1.84771,-11.1258 3.85848,-12.5088 59.45062,-40.8918 16.775,-8.5647 38.375,-19.252 48,-23.7497 27.27623,-12.746 31.09502,-14.6298 37.37115,-18.4357 3.22914,-1.958 6.19035,-3.5601 6.58048,-3.5601 0.39013,0 2.22227,2.1374 4.07142,4.75 1.84915,2.6125 5.12809,6.775 7.28654,9.25 2.15845,2.4749 5.25499,6.8452 6.88119,9.7116 2.78331,4.9058 3.17238,5.199 6.63298,5 3.32877,-0.1916 3.70615,0.048 3.99266,2.5384 0.2266,1.9693 -0.13043,2.75 -1.25769,2.75 -2.35487,0 -62.88467,30.7608 -111.55873,56.6932 -5.225,2.7838 -13.775,7.3324 -19,10.108 -16.59316,8.8145 -26.35533,10.9309 -35.5,7.6959 z m -76.57069,-156.2471 c -3.88961,-1.9701 -6.06272,-3.8844 -7.66286,-6.75 -3.93628,-7.0494 -2.59697,-19.3259 2.72657,-24.9926 2.31531,-2.4645 26.67619,-14.2698 65.00698,-31.5024 6.325,-2.8436 14.65,-6.6664 18.5,-8.4953 3.85,-1.8287 13.28054,-6.3062 20.95676,-9.9496 7.67622,-3.6435 14.73536,-7.329 15.68699,-8.1903 0.95162,-0.8612 2.1872,-1.2834 2.74572,-0.9382 0.55853,0.3452 2.63383,3.9472 4.61179,8.0046 1.97796,4.0573 4.58684,8.4975 5.79752,9.8668 1.21067,1.3694 3.55122,4.8301 5.20122,7.6903 1.65,2.8603 4.05717,6.5124 5.34926,8.1159 l 2.34926,2.9153 -4.84926,2.0765 c -8.11669,3.4757 -25.67456,11.6486 -49.84926,23.2045 -54.59753,26.0983 -68.16409,31.6945 -76.83557,31.6945 -2.71437,0 -6.31248,-1.0164 -9.73512,-2.75 z M 2128.5849,2523.8769 c -25.8016,-1.6707 -64.9136,-6.4535 -93,-11.3723 -47.4424,-8.3085 -106.4585,-25.4567 -150.5,-43.7303 -42.8639,-17.7849 -58.2731,-25.1372 -86.1531,-41.1066 -35.8327,-20.5245 -44.5979,-26.1801 -83.4833,-53.866 -48.6902,-34.6668 -106.273,-89.8104 -146.9415,-140.717 -14.4921,-18.1405 -20.5509,-26.3025 -35.6909,-48.0808 -4.6032,-6.6215 -21.8116,-33.2598 -28.695,-44.4192 -21.0303,-34.0945 -51.1467,-100.373 -64.0692,-141 -9.7207,-30.5609 -11.2697,-35.6412 -14.5811,-47.8244 -9.7415,-35.8396 -17.3326,-79.6285 -20.8332,-120.1756 -4.9802,-57.6857 -4.1325,-105.7993 2.9794,-169.1073 10.3106,-91.7808 49.8292,-204.9368 101.9406,-291.8927 35.2458,-58.813 82.0741,-116.43 132.0273,-162.4449 36.7806,-33.8808 59.1287,-51.5641 98,-77.5445 44.4005,-29.676 54.5421,-35.6154 89.8107,-52.5973 51.0404,-24.576 88.8033,-38.5855 137.0766,-50.8533 34.8735,-8.8624 82.6923,-18.5071 104.1211,-21.0004 46.0903,-5.3627 47.5723,-5.4529 90.4916,-5.5071 42.8727,-0.054 43.0456,-0.044 95.5,5.4704 30.4768,3.2041 89.3906,14.824 122,24.0627 30.382,8.6078 73.8931,24.1164 94.5,33.6827 71.1194,33.0156 130.8554,70.1893 183.291,114.0619 49.0135,41.0095 86.827,80.8216 123.1599,129.6698 35.499,47.7271 58.8363,87.8309 85.2513,146.5 27.6099,61.323 51.1819,147.1612 59.7275,217.5 4.5449,37.4085 5.0722,47.0956 4.9805,91.5 -0.081,39.4788 -0.3369,45.9497 -2.7636,70 -2.9412,29.1497 -4.8224,41.696 -10.6883,71.2807 -10.4067,52.4873 -28.9485,113.4789 -46.2754,152.2193 -18.6469,41.6916 -44.3262,89.3257 -64.5445,119.7273 -18.9083,28.4318 -45.8945,64.1442 -65.1922,86.2727 -13.5814,15.5736 -57.8753,59.845 -69.8862,69.8506 -4.708,3.922 -12.835,10.7759 -18.06,15.2311 -14.354,12.2388 -34.9795,28.0297 -49.5,37.8973 -7.15,4.8589 -14.125,9.6183 -15.5,10.5764 -6.975,4.8602 -29.1579,18.5351 -42,25.8912 -31.0394,17.7797 -67.3206,35.2642 -98.5557,47.4953 -6.5693,2.5726 -14.6443,5.775 -17.9443,7.1168 -3.3,1.3417 -14.775,5.3915 -25.5,8.9995 -53.7586,18.0851 -115.2695,30.9756 -176.5,36.9881 -17.9519,1.7628 -78.1913,2.5286 -98,1.2459 z m 90.5,-87.251 c 101.1158,-8.3567 204.982,-42.4143 295.5,-96.894 21.9406,-13.2053 26.2826,-16.0642 46.5861,-30.6735 32.1284,-23.1176 50.2889,-38.377 78.4139,-65.887 45.1495,-44.1625 68.7759,-74.0477 107.9812,-136.5866 19.3684,-30.8956 47.2753,-89.9876 60.6857,-128.5 11.4784,-32.964 25.2703,-93.1786 30.234,-132 3.8068,-29.7729 4.74,-45.8841 4.7785,-82.5 0.051,-48.7897 -1.633,-71.4082 -8.3025,-111.5 -7.9708,-47.9136 -25.1686,-108.1064 -42.5711,-149 -16.3773,-38.4845 -40.2202,-83.5195 -59.2665,-111.9436 -28.7736,-42.9409 -51.4763,-70.6195 -87.4711,-106.643 -42.6688,-42.7027 -78.5907,-70.5568 -133.0682,-103.1818 -27.0874,-16.2219 -71.7459,-38.1964 -101.9558,-50.1679 -75.7308,-30.0107 -159.3693,-45.4492 -246.0442,-45.4162 -67.344,0.026 -131.3865,9.1626 -192.5,27.4639 -36.1379,10.8221 -55.4985,17.9984 -83.5,30.9508 -55.8776,25.8467 -106.3606,57.4045 -153,95.6428 -46.404,38.0454 -91.1889,86.0314 -126.03,135.0383 -39.627,55.7385 -72.9125,123.6294 -93.0339,189.7567 -14.3396,47.1257 -22.3555,88.9501 -27.0233,141 -2.2183,24.7351 -2.2158,75.7238 0,105 4.2593,56.1462 17.6056,119.1723 36.7399,173.4982 4.7623,13.521 12.1308,32.6273 15.0415,39.0018 1.1301,2.4749 3.6377,8.0999 5.5724,12.5 5.5307,12.578 23.8604,47.7993 31.7452,61 8.2358,13.7881 24.9551,39.6504 30.3843,47 32.4177,43.8842 59.3574,75.371 87.7077,102.5118 38.4404,36.8004 89.4043,75.1967 132.3912,99.7438 5.225,2.9836 9.9593,5.8037 10.5207,6.2667 2.1143,1.7441 42.5908,21.9745 56.4952,28.2367 44.678,20.1219 102.7778,39.1236 138.4841,45.2917 4.4,0.76 14.075,2.4839 21.5,3.8308 48.6547,8.8261 110.1513,11.5272 163,7.1596 z m -90.5,-131.0935 c -62.7092,-6.341 -95.4049,-13.694 -151,-33.9581 -68.4442,-24.9475 -135.0086,-67.2827 -187.0892,-118.9895 -54.1382,-53.7497 -91.0704,-108.5998 -122.2097,-181.5 -8.9517,-20.9571 -20.3363,-58.0054 -26.1511,-85.1024 -17.2711,-80.4837 -15.6886,-164.2053 4.6195,-244.3976 18.7782,-74.1507 51.4561,-142.0817 95.5468,-198.6229 26.2862,-33.7092 62.4229,-69.8138 96.8486,-96.7631 10.388,-8.1319 44.8516,-31.1117 57.4351,-38.2968 18.7409,-10.701 51.0848,-26.0545 69.5,-32.9916 53.6146,-20.1967 89.8955,-28.8747 150.5,-35.9978 17.3993,-2.045 77.5351,-1.7546 101,0.4878 36.1291,3.4528 74.6841,11.1343 103.5,20.6213 58.1005,19.1279 94.6535,36.5019 142.0332,67.5097 27.7791,18.18 49.4904,36.1053 77.5685,64.0425 24.3511,24.2288 42.9579,46.4161 64.5983,77.0288 35.8251,50.6784 71.3164,132.2455 82.2295,188.9821 1.481,7.7 3.3395,17.375 4.13,21.5 5.035,26.2757 7.5937,57.9892 7.5034,93 -0.1892,73.3796 -7.6334,118.905 -29.2696,179 -14.0004,38.8866 -34.8983,81.357 -54.6183,111 -30.4063,45.7067 -70.0333,89.8312 -108.3341,120.63 -21.5976,17.3672 -47.7249,36.2064 -64.1416,46.25 -17.2117,10.5297 -56.6282,30.1219 -75.6993,37.6266 -43.8992,17.2749 -94.7835,31.348 -130,35.9543 -34.1863,4.4715 -81.0569,5.7617 -108.5,2.9867 z m -995.5472,-635.6976 c 0.9963,-3.4375 4.303,-14.8 7.3482,-25.25 16.5129,-56.6673 36.007,-140.5108 46.6172,-200.5 9.7168,-54.9375 23.7324,-121.6709 32.6418,-155.4197 21.7707,-82.4666 51.9318,-142.2162 103.2702,-204.5798 12.7722,-15.515 21.1596,-24.0636 37.1698,-37.884 21.5234,-18.5795 37.3808,-29.8831 61.5,-43.8392 63.6071,-36.80499 144.831,-61.53682 244,-74.29558 38.9112,-5.00619 99.088,-5.22908 129.5,-0.47966 14.8867,2.32484 38.0052,9.01348 38.7364,11.20721 0.194,0.58188 -2.0751,3.02283 -5.0424,5.42432 -2.9673,2.4015 -14.9674,12.69136 -26.667,22.86636 -11.6995,10.175 -25.4144,22.1 -30.4775,26.5 -31.9165,27.73675 -83.3634,74.89705 -115.0495,105.46365 -6.6,6.3668 -20.4999,19.6671 -30.8887,29.5562 -38.0493,36.2193 -91.4022,93.2678 -150.9628,161.4193 -24.8824,28.4715 -37.4216,42.7926 -45.1485,51.5644 -4.4,4.995 -14.3,16.2329 -22,24.9732 -7.7,8.7402 -17.1283,19.521 -20.9518,23.9573 -3.8236,4.4363 -11.0236,12.5894 -16,18.1179 -4.9765,5.5284 -13.3232,14.941 -18.5482,20.9165 -15.2877,17.4837 -41.6831,47.1166 -66.4544,74.6051 -12.6751,14.0654 -28.2206,31.3843 -34.5456,38.4866 -6.325,7.1021 -13.775,15.394 -16.5555,18.4264 -2.7805,3.0324 -11.7674,13.1635 -19.9708,22.5135 -8.2035,9.3499 -21.2285,24.0152 -28.9445,32.5891 -7.7161,8.5742 -16.8978,18.9241 -20.4039,23 -14.3951,16.7349 -32.5727,36.9109 -33.2549,36.9109 -0.4011,0 0.086,-2.8125 1.0824,-6.25 z m 717.0472,-744.22243 c 0,-1.30638 19.9019,-33.72951 33.4701,-54.52762 3.4087,-5.225 9.9806,-15.35 14.6044,-22.5 14.6327,-22.62757 44.202,-66.50867 53.908,-80 17.5152,-24.34607 30.4065,-41.97923 40.575,-55.5 5.5842,-7.425 18.0973,-24.3 27.807,-37.5 9.7098,-13.2 20.566,-27.825 24.125,-32.5 3.5589,-4.675 12.3004,-16.15 19.4253,-25.5 44.6162,-58.54898 135.3639,-164.16434 200.5279,-233.3815 27.2294,-28.92295 101.9715,-103.4077 126.0573,-125.62314 69.598,-64.19351 121.0291,-107.90331 179.5315,-152.57867 55.2807,-42.21505 92.9587,-68.534182 138.4685,-96.723954 11.55,-7.154331 23.888,-14.8494684 27.4177,-17.1003053 l 6.4177,-4.0924307 h 668.3323 668.3323 v 238 c 0,130.9 -0.3084,238 -0.6854,238 -0.377,0 -12.4145,-3.78049 -26.75,-8.4011 -74.5858,-24.04039 -148.8597,-43.84037 -220.0646,-58.66496 -43.3446,-9.02417 -140.5916,-26.83752 -158,-28.94185 -4.95,-0.59836 -13.3068,-1.72968 -18.5706,-2.51404 -36.6259,-5.45769 -112.2832,-12.68833 -166.4294,-15.90585 -91.5773,-5.44176 -118.9741,-6.2289 -163,-4.6831 -46.6211,1.63691 -135.5087,6.74541 -158.5,9.10923 -5.225,0.5372 -23,2.34609 -39.5,4.01977 -37.2172,3.77511 -122.455,16.36845 -155.5,22.97412 -5.225,1.04447 -15.8,3.07548 -23.5,4.51335 -54.1337,10.10874 -114.0555,24.56008 -174.3876,42.05706 -76.2748,22.12057 -161.5877,51.29162 -219.6124,75.09212 -51.6228,21.17458 -73.8409,30.6174 -96,40.80066 -9.9,4.54956 -27.675,12.71148 -39.5,18.13761 -56.4192,25.88904 -151.5672,75.59229 -197.7717,103.31161 -5.3505,3.20997 -16.4106,9.74879 -24.5778,14.53072 -17.2667,10.10961 -56.1,34.32391 -62.6505,39.0653 -2.475,1.79147 -23.4,15.86036 -46.5,31.26421 -23.1,15.40385 -49.425,33.37366 -58.5,39.93291 -9.075,6.55925 -22.8,16.37385 -30.5,21.81023 -16.1633,11.41164 -25.1737,18.27206 -96.5,73.47407 -11.825,9.15179 -25.8584,19.87061 -31.1853,23.81961 -5.3269,3.949 -9.9408,7.59336 -10.2531,8.09858 -0.9072,1.46794 -10.5616,9.35421 -10.5616,8.62736 z"
         id="path222" />
    </g>
    <rect
       style="fill:#ffffff;fill-opacity:1;stroke-width:1.47042"
       id="rect2271"
       width="2150.467"
       height="147.95399"
       x="1164.5699"
       y="2392.9673"
       ry="79.709999"
       transform="matrix(0.97969304,0.20050321,-0.19657812,0.98048817,0,0)" />
    <circle
       style="fill:#000000;fill-opacity:1;stroke-width:1.42857"
       id="path4481"
       cx="1987.8372"
       cy="1730.8035"
       r="100" />
    <ellipse
       style="fill:#fbfbfb;fill-opacity:1;stroke-width:2.41795"
       id="path5055"
       cx="1986.0936"
       cy="1668.2083"
       rx="33.744579"
       ry="24.061052" />
  </g>
</svg>
