<?xml version="1.0" encoding="UTF-8" standalone="no"?>
<svg
   version="1.1"
   id="svg2"
   width="1696"
   height="2528"
   viewBox="0 0 1696 2528"
   xmlns="http://www.w3.org/2000/svg"
   xmlns:svg="http://www.w3.org/2000/svg">
  <defs id="defs6" />
  <g id="g8">
    <g
       id="g893"
       transform="translate(5.4134654,147.72115)">
      <path
         style="fill:#6e94b5"
         d="m 1688,2380.2852 c -45.2779,-4.6801 -97.9454,-14.6435 -153.9726,-29.128 -8.5099,-2.2001 -15.8224,-3.7839 -16.25,-3.5196 -0.4276,0.2642 -0.8033,4.1664 -0.835,8.6714 -0.099,14.0385 -0.7718,16.1338 -5.3021,16.5072 -6.4688,0.5332 -10.8451,-5.9999 -15.6189,-23.3162 -2.7338,-9.9164 -2.5008,-9.7 -14.0214,-13.0275 -5.225,-1.5091 -21.9689,-6.9578 -37.2087,-12.1082 -15.2398,-5.1504 -28.456,-9.3643 -29.3694,-9.3643 -1.4976,0 -1.577,1.0565 -0.8086,10.75 1.2302,15.518 0.9924,19.0887 -1.4326,21.5138 -6.673,6.6729 -16.7008,-9.2574 -21.7125,-34.4927 l -1.7129,-8.625 -10.1276,-4.1896 c -13.5605,-5.6097 -43.2474,-18.2245 -52.9685,-22.5076 -4.3124,-1.9001 -8.2637,-3.1933 -8.7807,-2.8738 -1.0385,0.6418 -1.0507,0.543 2.7446,22.2344 l 2.6786,15.3094 -1.9997,2.6906 c -2.1801,2.9331 -6.0919,3.9085 -9.1377,2.2784 -4.2132,-2.2548 -17.8244,-33.9363 -21.2377,-49.4331 -1.5286,-6.94 -1.4724,-6.8962 -18.0366,-14.0593 -6.8145,-2.947 -21.84,-9.7251 -33.39,-15.0625 -26.4239,-12.211 -33.1972,-14.8318 -34.1885,-13.2286 -0.4066,0.6576 -1.0066,12.5052 -1.3333,26.328 -0.6845,28.9575 -1.1373,30.7342 -7.6891,30.1744 -4.9013,-0.4188 -6.783,-3.2968 -9.6814,-14.8068 -3.6889,-14.6497 -5.5796,-27.2472 -6.2849,-41.8753 l -0.6449,-13.3754 -17.0889,-8.2843 c -30.8293,-14.9453 -49.5163,-22.7702 -51.1467,-21.4171 -1.8757,1.5567 -1.8588,12.3822 0.058,36.9521 2.5919,33.2294 2.095,37 -4.8765,37 -9.1135,0 -20.1863,-37.4233 -23.17,-78.309 l -0.6429,-8.809 -4.1553,-1.9263 c -20.2036,-9.3658 -74.5612,-31.3831 -75.4027,-30.5416 -2.4671,2.467 -0.826,32.4154 3.3609,61.3342 2.7731,19.1541 2.4557,21.8 -2.8387,23.6619 -6.22866,2.1905 -10.44208,-3.8914 -18.15969,-26.2127 -8.20583,-23.7334 -10.45938,-34.9481 -11.46327,-57.0465 L 973.5,2123.8021 960,2118.3733 c -7.425,-2.9858 -19.575,-8.0825 -27,-11.3259 -22.89874,-10.0027 -40.02455,-16.4228 -41.05617,-15.3912 -3.18229,3.1823 -3.60577,26.7905 -1.01396,56.5265 2.32847,26.7147 1.54617,31.8173 -4.878,31.8173 -5.67537,0 -8.28447,-4.9582 -15.02325,-28.5493 -7.46694,-26.1403 -9.995,-45.3083 -8.17065,-61.9507 1.19922,-10.9398 1.98981,-9.973 -13.35797,-16.3361 -6.6,-2.7364 -22.08701,-9.3307 -34.41558,-14.654 -27.67014,-11.9476 -27.06485,-11.863 -28.70727,-4.0099 -1.69004,8.0809 -3.37715,36.8861 -3.37715,57.6606 0,18.6005 -0.86921,22.2665 -5.55848,23.4434 -5.66871,1.4228 -8.75,-4.5147 -13.80627,-26.604 -5.73519,-25.0553 -6.76751,-42.1856 -4.33889,-72 0.17739,-2.1778 -0.763,-2.9808 -7.29636,-6.2302 -21.94929,-10.9168 -54.43826,-25.8156 -55.44893,-25.4278 -2.28961,0.8786 -3.74946,16.6953 -4.45791,48.2991 -0.76939,34.3225 -1.07929,36.2676 -6.02875,37.8385 -5.43594,1.7253 -7.54135,-2.3419 -12.93099,-24.9796 -7.15299,-30.0442 -8.46829,-47.2002 -5.52058,-72.0075 l 0.59501,-5.0074 -4.35393,-2.4056 c -5.6144,-3.1021 -30.34176,-17.9244 -43.91794,-26.3257 -12.76937,-7.902 -22.70616,-13.0139 -23.88316,-12.2864 -3.00792,1.859 -11.09994,27.4176 -18.05688,57.0326 -5.84993,24.9026 -8.30589,29.5452 -14.01354,26.4906 -4.65264,-2.49 -5.36261,-6.7154 -5.29131,-31.4906 0.0756,-26.2598 1.21269,-34.9546 7.38796,-56.4906 3.02858,-10.5621 3.60267,-13.7386 2.64463,-14.6329 C 566.68676,1927.4751 518.88981,1895 518.12825,1895 c -2.46779,0 -12.73769,29.4646 -19.62157,56.2948 C 492.42831,1974.9854 491.48733,1977 486.5,1977 c -6.94932,0 -8.29965,-7.2186 -6.55583,-35.0463 1.44719,-23.094 2.92994,-31.9579 8.18894,-48.9537 2.29752,-7.425 4.21996,-14.4471 4.2721,-15.6047 0.0938,-2.0822 -34.42633,-32.3095 -36.96709,-32.37 -2.43675,-0.058 -9.97561,20.5986 -16.9326,46.3958 -2.5098,9.3066 -5.41755,18.8523 -6.46167,21.2127 -3.16529,7.1556 -9.6966,6.9784 -12.10811,-0.3285 -3.1107,-9.4255 2.48153,-58.6917 8.68519,-76.5144 3.17417,-9.1192 3.34893,-10.188 2.00195,-12.2437 -1.57748,-2.4075 -23.13922,-22.822 -24.69449,-23.3805 -1.46906,-0.5275 -4.21085,6.862 -10.32708,27.8333 -7.85462,26.9318 -11.21714,32.8815 -16.87264,29.8548 -6.93576,-3.7119 -5.51492,-35.8435 3.40201,-76.9348 l 1.21087,-5.58 -13.84822,-15.9023 c -23.2738,-26.7259 -26.93609,-31.582 -54.63014,-72.4377 -27.39062,-40.4081 -47.63373,-86.7231 -53.32303,-122 -6.38821,-39.6105 5.91261,-79.2303 31.37548,-101.0573 6.11525,-5.2421 7.0157,-5.0351 10.91689,2.5097 7.24529,14.0122 14.73479,18.0353 45.02157,24.184 11.90525,2.417 30.8709,6.3837 42.1459,8.8148 11.275,2.4312 28.825,6.0103 39,7.9536 10.175,1.9433 25.925,5.1451 35,7.1152 9.075,1.97 31.8,6.6705 50.5,10.4455 58.67948,11.8457 118.18994,24.0113 140,28.6199 11.55,2.4406 31.125,6.4946 43.5,9.009 12.375,2.5143 47.475,9.734 78,16.0438 30.525,6.3099 69.84417,14.3832 87.37594,17.9407 17.53177,3.5575 37.10677,7.6118 43.5,9.0094 6.39323,1.3977 31.19906,6.5449 55.12406,11.4384 23.925,4.8934 62.175,12.7153 85,17.382 22.825,4.6667 54.55,11.2319 70.5,14.5894 145.7224,30.6749 141.8676,30.0897 155.1046,23.5477 21.6363,-10.6933 25.2908,-41.2603 6.8669,-57.4367 -7.4301,-6.5237 -18.3197,-9.3304 -95.4715,-24.6068 -15.675,-3.1037 -48.075,-9.6871 -72,-14.6297 -23.925,-4.9426 -57.675,-11.8758 -75,-15.4072 -17.325,-3.5313 -47.925,-9.7747 -68,-13.8743 -20.075,-4.0995 -53.15,-10.8374 -73.5,-14.9731 -20.35,-4.1357 -55.675,-11.3844 -78.5,-16.1083 -37.85928,-7.8352 -80.42568,-16.512 -159.5,-32.5127 -15.95,-3.2274 -35.525,-7.2801 -43.5,-9.0058 -7.975,-1.7257 -22.375,-4.6541 -32,-6.5075 -9.625,-1.8535 -21.325,-4.2598 -26,-5.3473 -4.675,-1.0876 -23.35,-4.9663 -41.5,-8.6195 -18.15,-3.6532 -42.225,-8.6224 -53.5,-11.0426 -11.275,-2.4203 -29.05,-6.0082 -39.5,-7.973 -10.45,-1.9648 -28.9,-5.7776 -41,-8.4729 -39.50482,-8.7995 -48.23293,-9.676 -59.26316,-5.951 l -6.15151,2.0774 -4.45344,-3.0641 c -18.40833,-12.6652 -28.97179,-40.1941 -24.66687,-64.283 5.96719,-33.3903 18.5217,-54.6069 81.06409,-136.9951 13.49101,-17.7719 29.308,-38.8376 35.14887,-46.8126 5.84087,-7.975 17.07777,-22.6486 24.97089,-32.6081 13.00608,-16.4108 22.85812,-28.4634 56.21227,-68.7676 10.13254,-12.2439 15.45576,-18.7898 38.32181,-47.1243 4.88238,-6.05 10.97548,-13.5736 13.54021,-16.7191 5.10902,-6.26598 8.0564,-14.12221 13.73147,-36.6012 7.05841,-27.95839 18.03952,-78.46332 21.56429,-99.1797 11.51097,-67.6543 25.96099,-108.65068 50.90814,-144.43226 29.29847,-42.02267 74.88231,-69.22358 137.57294,-82.09288 47.17641,-9.6845 86.01314,-11.21145 109.69316,-4.31282 9.38213,2.73326 8.71078,3.20228 18.94994,-13.23894 C 917.69183,579.27893 965.88006,510.13657 994.8732,473.5 1133.0161,298.93865 1267.8658,190.1895 1440,114.52886 1468.0545,102.19764 1534.9193,79.781267 1569.5,71.114041 1606.4744,61.846873 1678.0508,49 1692.7085,49 H 1696 v 1165.7819 1165.7819 l -2.25,0.042 c -1.2375,0.023 -3.825,-0.1212 -5.75,-0.3202 z"
         id="path897" />
      <path
         style="fill:#3c77a8"
         d="m 1689,2377.9655 c -3.025,-0.4362 -10.9,-1.3111 -17.5,-1.9443 -11.6276,-1.1155 -46.7486,-6.5431 -61,-9.4269 -26.8554,-5.4342 -56.0058,-12.2734 -81.5,-19.1212 -5.225,-1.4035 -10.625,-2.4216 -12,-2.2624 l -2.5,0.2893 -0.2803,12.8111 -0.2804,12.8111 -3.2196,-0.3111 c -3.9348,-0.3802 -8.649,-9.0128 -12.7197,-23.2926 -2.6895,-9.4345 -2.4113,-9.1482 -11.5,-11.8367 -13.8553,-4.0984 -45.533,-14.5126 -57.3457,-18.8526 -18.4092,-6.7636 -17.4727,-7.4527 -17.0201,12.5249 l 0.3658,16.1459 -2.3325,0.3304 c -5.7426,0.8133 -14.0859,-17.687 -17.6452,-39.1264 -0.4352,-2.6214 -1.3097,-4.0684 -2.8262,-4.6763 -1.2079,-0.4842 -6.9211,-2.9109 -12.6961,-5.3927 -5.775,-2.4818 -17.7,-7.5039 -26.5,-11.1603 -8.8,-3.6563 -19.3092,-8.1839 -23.3538,-10.0613 -12.2842,-5.7019 -13.3608,-4.8088 -10.8781,9.0246 0.8944,4.9841 2.3561,13.09 3.248,18.0131 2.1572,11.9074 0.5394,15.4261 -5.9482,12.9366 -3.7466,-1.4377 -15.562,-28.8616 -20.1452,-46.7575 -2.3098,-9.0193 -3.0956,-9.7803 -15.5749,-15.0847 -6.2413,-2.6529 -20.5728,-9.0972 -31.8478,-14.3208 -22.1248,-10.2501 -38.5671,-17.2247 -40.6064,-17.2247 -2.4155,0 -2.7139,2.4029 -3.4662,27.9117 -0.8557,29.016 -0.8692,29.0883 -5.4204,29.0883 -2.762,0 -3.54,-0.5497 -4.9331,-3.4856 -4.3194,-9.1023 -9.1466,-37.5656 -9.8375,-58.0064 l -0.2364,-6.992 -11,-5.7356 c -6.05,-3.1545 -15.95,-7.839 -22,-10.4098 -6.05,-2.5709 -16.323,-7.081 -22.8289,-10.0224 -19.7722,-8.9396 -19.1912,-10.3108 -16.0723,37.9336 1.7991,27.8298 1.648,29.7254 -2.3679,29.7029 -4.433,-0.025 -5.0555,-0.9804 -10.1692,-15.6103 -5.5185,-15.7876 -9.6412,-34.5518 -10.5188,-47.8744 -1.334,-20.2527 -1.5581,-21.5548 -3.879,-22.5384 -43.2801,-18.3432 -77.2699,-31.9616 -79.772,-31.9616 -4.26377,0 -3.73063,28.1404 1.1709,61.8048 2.5647,17.6148 2.5413,21.8015 -0.1299,23.2311 -9.50652,5.0877 -26.64593,-44.7131 -27.53009,-79.9925 -0.4506,-17.9792 0.5127,-16.3745 -12.90281,-21.4944 -5.5,-2.099 -16.75,-6.7529 -25,-10.3419 -23.15825,-10.0745 -43.77249,-18.2 -46.18261,-18.2037 -5.28575,-0.01 -6.66282,24.4305 -3.43706,60.9966 2.13945,24.252 1.3959,29.0391 -4.28893,27.6123 -3.5651,-0.8948 -4.89324,-3.9668 -11.05123,-25.5616 -8.45054,-29.6342 -9.62739,-39.7259 -8.22036,-70.4905 0.17929,-3.9199 0.15006,-3.9521 -5.81981,-6.4027 -10.08013,-4.138 -30.42326,-12.8161 -41.5,-17.7034 -22.29568,-9.8375 -30.38687,-12.6455 -31.61143,-10.9708 -2.84438,3.8899 -5.33275,32.0007 -5.36588,60.6175 -0.0248,21.4595 -0.79033,25.8992 -4.46553,25.8992 -3.79115,0 -5.24425,-2.9185 -9.46557,-19.0111 -6.91179,-26.3494 -8.40447,-43.181 -6.09801,-68.7616 1.18077,-13.0957 1.97548,-11.9086 -12.23237,-18.2714 -6.70056,-3.0007 -20.65469,-9.6184 -31.00916,-14.7059 -19.13114,-9.3998 -23.17482,-10.6546 -24.16853,-7.5 -1.71586,5.4471 -3.58999,30.3215 -3.63487,48.2439 -0.0635,25.369 -0.88089,33.7522 -3.47584,35.6496 -3.77353,2.7593 -6.08493,-1.533 -10.49625,-19.4916 -7.35676,-29.9495 -8.86116,-46.1502 -6.61781,-71.2663 l 0.85875,-9.6144 -5.85875,-3.3002 c -8.31806,-4.6855 -33.74905,-19.9336 -40.83513,-24.4841 C 612.1934,1953.2108 598.73779,1946 596.49047,1946 c -3.60639,0 -11.20727,19.3413 -16.50547,42 -9.55925,40.8819 -11.20026,44.7137 -16.16667,37.75 -2.22511,-3.12 -2.33189,-4.1303 -2.66858,-25.25 -0.4038,-25.3287 0.45189,-32.1216 7.04321,-55.9121 l 4.13149,-14.9121 -2.56351,-2.0879 c -1.40994,-1.1483 -9.87622,-7.0379 -18.81396,-13.0879 -8.93774,-6.05 -19.61716,-13.3859 -23.73205,-16.3021 -4.40128,-3.1191 -8.31383,-5.1777 -9.50291,-5 -4.13629,0.6182 -18.77872,41.6691 -24.18773,67.8118 -2.30641,11.1473 -7.26278,17.4585 -10.10237,12.864 -5.71723,-9.2507 0.8038,-66.1447 10.62057,-92.6612 1.07663,-2.9081 1.95751,-5.4404 1.95751,-5.6273 0,-0.1869 -4.37924,-3.8825 -9.73165,-8.2125 -5.35241,-4.33 -14.33666,-11.8102 -19.96501,-16.6227 -5.62834,-4.8125 -10.85769,-8.75 -11.62077,-8.75 -3.03018,0 -12.46517,25.8556 -19.84762,54.3902 -1.83422,7.0897 -4.11584,14.1772 -5.07025,15.75 -1.98591,3.2728 -4.7647,3.8032 -4.7647,0.9095 0,-1.0727 -0.60324,-2.3102 -1.34053,-2.75 -2.79171,-1.6654 -2.43182,-23.0001 0.70712,-41.9192 0.81037,-4.8843 1.76514,-11.5805 2.12173,-14.8805 0.35658,-3.3 2.21924,-10.648 4.13923,-16.3288 1.91999,-5.6809 3.35175,-11.0809 3.18167,-12 -0.17007,-0.9192 -6.47655,-7.6603 -14.01441,-14.9804 -12.13921,-11.7884 -13.93561,-13.1858 -15.72188,-12.2298 -2.07715,1.1116 -4.001,6.6448 -13.22592,38.039 -4.1099,13.9868 -7.32472,20 -10.69253,20 -4.55894,0 -4.08552,-32.4278 0.83945,-57.5 5.05587,-25.7386 5.15865,-23.3344 -1.31168,-30.6826 C 348.10017,1731.9503 318.235,1691.4905 300.4665,1660.5 l -2.86677,-5 4.95014,4.4686 c 2.72257,2.4578 10.12513,9.4613 16.45013,15.5635 14.51823,14.0068 21.92113,20.7842 29.5,27.0074 3.3,2.7097 8.49602,7.1844 11.54672,9.9436 5.96709,5.3971 37.55308,30.9234 44.95328,36.3292 2.475,1.808 11.925,8.8096 21,15.5593 18.12583,13.4813 30.16241,21.6401 76.52361,51.8705 26.93984,17.5665 81.46899,49.6199 102.47639,60.2378 6.325,3.1969 16.9,8.8413 23.5,12.5432 12.67061,7.1068 80.44417,41.4628 91.5,46.3835 3.575,1.5912 15.64547,7.1006 26.82327,12.2432 11.1778,5.1426 20.54591,9.3502 20.81801,9.3502 0.27211,0 14.52663,6.0421 31.67673,13.4269 38.4613,16.5613 110.43802,45.4567 135.68199,54.4702 39.61834,14.1458 115.7879,39.9434 140.5,47.5853 8.25,2.5513 24.225,7.5088 35.5,11.0167 11.275,3.508 25,7.5764 30.5,9.0409 19.2095,5.1151 23.1554,6.2218 45.5,12.7607 42.5123,12.4408 148.4083,39.0884 189.5,47.6858 2.2,0.4603 6.925,1.5139 10.5,2.3413 50.46,11.679 147.4159,30.6481 187.5,36.6838 22.9005,3.4482 88.0847,12.8435 103.9668,14.9852 8.7817,1.1842 16.3192,2.3709 16.75,2.6372 1.0024,0.6195 1.0356,169.4066 0.033,169.2453 -0.4125,-0.066 -3.225,-0.4776 -6.25,-0.9138 z m -328.5,-462.9818 c -26.3303,-2.3487 -33.1845,-3.1554 -47.0627,-5.5392 -20.6803,-3.5522 -20.8256,-3.9673 -2.4373,-6.9606 9.4899,-1.5447 21.3836,-3.7542 40.7933,-7.5779 53.5424,-10.548 127.1343,-37.9157 175.5667,-65.2906 2.277,-1.287 9.54,-5.4018 16.14,-9.1439 46.7269,-26.4935 93.1263,-61.5662 132.588,-100.2215 10.2469,-10.0375 18.919,-18.25 19.2714,-18.25 0.3523,0 0.6406,25.1806 0.6406,55.9569 v 55.9569 l -6.75,5.432 c -45.2106,36.3826 -118.5008,69.1087 -192.75,86.068 -33.9952,7.7649 -102.3295,12.5734 -136,9.5699 z m -348.2214,-513.0978 c -88.623,-5.9956 -169.80592,-43.0559 -232.82771,-106.2868 -30.22266,-30.323 -56.72833,-67.702 -73.3266,-103.4071 -18.64634,-40.1109 -25.58457,-63.315 -32.71151,-109.4 -2.46557,-15.9431 -3.01735,-61.2666 -0.98357,-80.792 7.84849,-75.34987 37.23,-144.71877 85.13446,-201 C 785.57522,768.09024 812.797,745.59629 858,718.0073 c 24.27945,-14.81861 64.60675,-30.23688 95.5,-36.51234 12.20556,-2.47937 15.13412,-2.94066 42.5,-6.69441 43.5567,-5.97464 102.5361,0.18328 149,15.5568 82.3213,27.23765 153.8379,84.02514 195.535,155.26387 44.2793,75.65028 62.3524,162.26908 50.3639,241.37878 -8.2516,54.4509 -23.9232,98.1971 -50.8697,142 -50.4948,82.0816 -124.5341,136.8973 -220.0292,162.9007 -33.2979,9.067 -70.4244,12.5084 -107.7214,9.9852 z m 35.2214,-40.8543 c 116.4657,-5.0466 225.2946,-78.861 275.6903,-186.99 19.032,-40.8351 27.3166,-75.7847 30.2329,-127.5416 1.9101,-33.8988 -5.7923,-79.98787 -20.0353,-119.88639 -30.5292,-85.52078 -94.8415,-153.50117 -178.8879,-189.09096 -74.6535,-31.61233 -170.65449,-31.4987 -243,0.2876 -38.7542,17.02736 -62.20956,32.34512 -94.91501,61.98521 -82.1023,74.40716 -119.37985,186.3093 -99.00667,297.20454 25.547,139.0573 145.00004,248.5494 287.42168,263.454 15.475,1.6195 17.7432,1.6503 42.5,0.5776 z m -44,-64.5224 c -38.46931,-5.9023 -62.04579,-13.4701 -90.67925,-29.1071 -121.40467,-66.3003 -168.16661,-215.3292 -106.60696,-339.75336 41.75691,-84.39888 120.89882,-136.06002 215.28491,-140.5306 52.1869,-2.47182 96.9108,8.9096 141.7829,36.08126 144.8138,87.6898 165.2068,297.3641 39.712,408.3063 -59.1295,52.2726 -130.627,75.5696 -199.4936,65.0035 z M 546.00638,991.33507 c 0.003,-0.45929 1.30792,-5.78507 2.8987,-11.83507 7.62817,-29.01114 16.50997,-67.97201 21.08698,-92.5 10.42933,-55.89038 14.1149,-72.21576 21.22116,-94 27.05922,-82.95013 81.08281,-130.09431 168.94416,-147.43067 37.62889,-7.42474 42.72807,-8.01624 69.34262,-8.04362 24.20599,-0.0249 27.47366,0.26684 39.75,3.54884 7.85656,2.1004 4.72888,6.74029 -15.75,23.36503 -4.95,4.01841 -9.9,8.3206 -11,9.56042 -1.1,1.23982 -6.27161,5.68453 -11.49246,9.87711 -10.13005,8.13491 -74.70772,71.93581 -89.70641,88.62739 -16.58632,18.45841 -26.76566,29.89478 -40.82772,45.86952 -7.68538,8.73071 -18.41276,20.88071 -23.83863,27 -9.16269,10.33367 -35.68991,41.13914 -53.49797,62.12598 -4.20025,4.95 -10.60027,12.15 -14.22227,16 -3.622,3.85 -11.94265,13.3 -18.49032,21 -29.11839,34.24292 -44.44509,50.40371 -44.41784,46.83507 z M 889,630.24167 c 0,-1.27239 14.36519,-24.57616 22.34052,-36.24167 4.3242,-6.325 14.30723,-21.175 22.18452,-33 7.87729,-11.825 18.64695,-27.35 23.93259,-34.5 5.28563,-7.15 13.06727,-17.725 17.29252,-23.5 45.83715,-62.64935 132.66625,-159.01066 184.31015,-204.54412 57.5091,-50.70459 91.4339,-76.43305 148.4397,-112.57632 45.3787,-28.77133 117.2179,-64.54763 164,-81.67283 54.8572,-20.08118 84.4872,-28.711944 140,-40.779809 10.1959,-2.216485 58.3274,-10.052505 70,-11.396315 5.5,-0.63319 11.0125,-1.357681 12.25,-1.609982 L 1696,49.961896 V 206.10978 362.25766 l -4.75,-0.61449 c -11.2181,-1.45125 -64.7542,-3.71902 -89.1944,-3.77824 -62.3297,-0.15103 -141.5485,6.71824 -180.5556,15.65646 -3.3,0.75617 -10.5,2.0884 -16,2.96051 -33.0421,5.23933 -106.0107,25.98711 -151.5386,43.08827 -53.1866,19.97794 -85.2765,34.09381 -137.4614,60.46719 -19.6881,9.95005 -29.3622,15.20866 -56,30.44031 -24.4451,13.97786 -67.45807,42.41906 -89.70986,59.31833 -4.55958,3.4628 -13.51576,9.9878 -19.90262,14.5 -6.38687,4.5122 -16.80332,12.62026 -23.14767,18.0179 -10.14645,8.63241 -23.25077,18.87653 -32.30452,25.25363 C 892.00547,629.98339 889,631.23228 889,630.24167 Z"
         id="path895" />
    </g>
    <rect
       style="fill:#ffffff;fill-opacity:1;stroke-width:1.10006"
       id="rect1005"
       width="1015.5682"
       height="75.536613"
       x="530.85583"
       y="1466.0667"
       ry="37.768307"
       transform="matrix(0.97966567,0.20063694,-0.14362911,0.98963159,0,0)" />
    <circle
       style="fill:#000000;fill-opacity:1"
       id="path4481"
       cx="1050"
       cy="1125"
       r="48" />
    <ellipse
       style="fill:#fbfbfb;fill-opacity:1"
       id="path5055"
       cx="1049"
       cy="1095"
       rx="16"
       ry="12" />
  </g>
</svg>
