<?xml version="1.0" encoding="UTF-8" standalone="no"?>
<!-- Created with Inkscape (http://www.inkscape.org/) -->

<svg
   version="1.1"
   id="svg5439"
   width="672.35211"
   height="687.85101"
   viewBox="0 0 672.35211 687.85101"
   sodipodi:docname="logo-vectorizable.png"
   inkscape:export-filename="logo-vectorizable.svg"
   inkscape:export-xdpi="96"
   inkscape:export-ydpi="96"
   xmlns:inkscape="http://www.inkscape.org/namespaces/inkscape"
   xmlns:sodipodi="http://sodipodi.sourceforge.net/DTD/sodipodi-0.dtd"
   xmlns="http://www.w3.org/2000/svg"
   xmlns:svg="http://www.w3.org/2000/svg">
  <defs
     id="defs5443" />
  <sodipodi:namedview
     id="namedview5441"
     pagecolor="#ffffff"
     bordercolor="#000000"
     borderopacity="0.25"
     inkscape:showpageshadow="2"
     inkscape:pageopacity="0.0"
     inkscape:pagecheckerboard="0"
     inkscape:deskcolor="#d1d1d1"
     showgrid="false" />
  <g
     inkscape:groupmode="layer"
     inkscape:label="Image"
     id="g5445"
     transform="translate(-143.62335,-119.54642)">
    <path
       style="fill:#e8e6e1"
       d="m 667.62331,806.35167 c -10.9829,-1.84316 -18.78569,-3.99982 -27.55851,-7.61703 -34.10503,-14.0622 -54.64553,-38.74428 -59.89882,-71.9762 -4.7447,-30.0146 8.40589,-61.40237 32.57829,-77.75772 15.90561,-10.76193 29.17671,-14.72792 46.87904,-14.00955 18.2633,0.74114 31.0812,6.42278 44.5955,19.76727 8.9147,8.80272 13.2603,16.90115 15.6918,29.24292 6.2539,31.74405 -20.5396,61.38634 -50.4973,55.86641 -8.2699,-1.52379 -13.2496,-4.05609 -19.5318,-9.93231 -7.44092,-6.96011 -10.20731,-12.96908 -10.20979,-22.17702 -0.003,-10.65455 3.68335,-17.1023 12.25539,-21.43651 11.1714,-5.6485 22.8291,-0.82467 22.0112,9.10798 -0.2725,3.30852 -0.8445,4.09827 -4.2412,5.85524 -4.7929,2.47913 -5.3101,3.73695 -2.6363,6.41079 1.5442,1.54412 3.3444,2.0625 7.1625,2.0625 4.4354,0 5.5297,-0.42963 8.397,-3.29692 7.224,-7.224 7.1304,-20.10535 -0.2084,-28.67905 -4.8982,-5.72245 -10.3233,-8.2445 -18.9459,-8.80767 -23.6628,-1.54552 -42.34266,17.35527 -42.34266,42.84349 0,5.73554 0.63281,9.59255 2.35001,14.32337 6.02111,16.58799 16.87357,26.56647 36.14995,33.23873 6.9548,2.4073 9.5679,2.77621 20,2.82357 13.533,0.0614 20.9297,-1.77936 32.1079,-7.99058 36.6018,-20.33793 41.3468,-72.6774 9.4771,-104.53774 -11.603,-11.59971 -24.1142,-18.13282 -43.3867,-22.6558 -6.0609,-1.42242 -13.5182,-1.71222 -47.19826,-1.83425 -33.29001,-0.12061 -41.14272,-0.42022 -46.81205,-1.78603 -3.74663,-0.90262 -7.44656,-1.64112 -8.22207,-1.64112 -1.94901,0 -3.83505,7.18201 -7.48427,28.5 -1.69468,9.9 -4.60944,25.875 -6.47723,35.5 -3.7443,19.29493 -5.89792,34.33642 -7.50395,52.40988 -1.18265,13.30899 -2.83861,17.93796 -7.22933,20.20849 -1.62756,0.84165 -8.20438,2.42192 -14.61515,3.51173 -13.72632,2.33341 -28.77792,7.14914 -40.03507,12.80912 -4.44207,2.23343 -9.41894,4.06078 -11.05973,4.06078 -3.31144,0 -7.06115,-3.28634 -7.06115,-6.18856 0,-2.42996 -2.43936,-2.28581 -6.01156,0.35523 -3.85529,2.85034 -8.34952,2.78219 -11.49658,-0.17432 -4.01738,-3.77413 -3.07805,-8.83403 2.63352,-14.18598 2.2064,-2.06748 2.87462,-3.59272 2.87462,-6.56144 0,-4.41243 2.50974,-7.72645 7.39162,-9.76035 1.70961,-0.71227 10.98338,-2.93911 20.60838,-4.94853 19.70428,-4.1137 22.67087,-5.05255 24.03822,-7.60746 0.52898,-0.98841 0.97021,-9.36419 0.98051,-18.61285 0.0266,-23.92472 1.76069,-71.38648 3.03182,-82.98267 3.01586,-27.51284 11.20307,-45.45202 29.9034,-65.52198 17.88288,-19.19264 38.34027,-32.38141 59.64901,-38.45539 13.00038,-3.70571 30.7535,-4.32855 42.6063,-1.49477 14.0101,3.34954 24.3604,8.67891 35.3824,18.21839 2.5539,2.21039 4.8734,3.78891 5.1545,3.50781 0.8992,-0.89912 -5.7111,-10.30032 -10.0513,-14.29506 -15.2806,-14.0645 -33.01312,-20.59139 -55.69486,-20.49985 -14.82401,0.0598 -26.42532,2.64792 -41.49505,9.25699 -11.92284,5.22895 -18.74131,9.35568 -32.13789,19.45079 -5.83897,4.4 -11.2763,8.45 -12.08297,9 -1.1427,0.77911 -3.00926,-0.65665 -8.45035,-6.5 -13.25635,-14.2364 -33.56989,-42.63925 -32.49628,-45.43703 0.28537,-0.74365 3.48348,-2.33866 7.10692,-3.54446 12.54914,-4.17609 24.44398,-14.1644 29.17536,-24.49908 4.55773,-9.9554 5.7674,-18.99433 5.75722,-43.01943 -0.005,-12.91354 -0.50881,-24.68464 -1.21868,-28.5 -2.02137,-10.86423 -3.32272,-16 -4.05423,-16 -0.38306,0 -1.50427,8.2125 -2.49158,18.25 -2.03129,20.65106 -5.13406,46.21809 -6.7297,55.45325 -1.22937,7.11524 -5.0683,13.811 -10.13332,17.67428 -6.65736,5.07782 -51.80076,21.3183 -77.74945,27.97061 -30.28681,7.76445 -38.92926,8.80694 -51,6.15186 -7.65127,-1.68297 -15.38186,-1.90118 -17.98566,-0.50768 -2.19589,1.17521 -4.33626,7.00519 -3.43453,9.35506 0.56111,1.46224 2.9887,1.65262 21.07263,1.65262 20.36677,0 20.44708,0.009 22.89301,2.45455 3.36815,3.36814 3.31405,8.38911 -0.1252,11.62114 l -2.57976,2.42431 -50.67024,0.30565 c -27.86864,0.1681 -52.53985,0.0345 -54.82492,-0.29698 -2.42609,-0.3519 -5.30273,-1.66662 -6.91407,-3.15996 -2.7087,-2.51034 -3.09177,-2.5648 -20.84534,-2.96378 -9.94725,-0.22354 -20.54152,-0.7391 -23.54281,-1.14569 -5.40616,-0.73237 -5.46874,-0.78022 -6.73261,-5.14848 -0.70166,-2.42508 -3.33148,-13.67508 -5.84406,-25 -5.87918,-26.49917 -6.43157,-28.52717 -7.48179,-27.46796 -0.9268,0.93474 -8.45522,58.57775 -8.10313,62.04345 0.0809,0.79602 3.91746,1.2722 12.08552,1.5 13.19051,0.36787 14.53251,0.94239 16.62209,7.11596 l 1.08913,3.21779 111.91087,0.5 c 125.66867,0.56147 115.66673,-0.1038 121.06429,8.05247 6.8555,10.35936 2.07132,25.51183 -9.51451,30.13439 -1.74769,0.6973 -20.63077,1.00619 -55.91325,0.91464 -42.21723,-0.10954 -53.37204,0.12501 -53.7451,1.13013 -0.25893,0.6976 -0.58548,46.26837 -0.72567,101.26837 l -0.25489,100 -3.10608,5.5 c -2.16064,3.82588 -4.57185,6.41316 -7.92158,8.5 l -4.8155,3 h -81.7356 -81.7356 l -3.84282,-3.10602 c -2.11355,-1.70832 -4.74282,-4.63332 -5.84282,-6.5 -1.95999,-3.32609 -2.0052,-5.43442 -2.25987,-105.39398 -0.14293,-56.1 -0.25543,-102.4982 -0.25,-103.10711 0.006,-0.67087 -3.07612,-1.31862 -7.82203,-1.64391 -9.69352,-0.66441 -15.14165,-3.2408 -18.91698,-8.94571 -2.36509,-3.57388 -2.75112,-5.17267 -2.75112,-11.3941 0,-6.43315 0.33472,-7.71313 3.01384,-11.52506 5.37398,-7.64624 7.53164,-8.33678 27.23616,-8.71671 l 17.25,-0.33261 v -3.47377 c 0,-2.62606 0.7741,-4.1808 3.17216,-6.37108 3.12054,-2.85018 3.15137,-2.96724 1.89453,-7.19363 -0.70269,-2.36297 -11.13016,-33.00685 -23.17216,-68.09751 -13.12834,-38.2563 -21.89303,-65.28214 -21.89079,-67.5 0.004,-4.36589 2.80538,-9.3724 6.65454,-11.89447 2.53694,-1.66226 5.8673,-1.80433 42.29774,-1.80433 38.90095,0 39.60089,0.0355 43.04398,2.18093 1.925,1.19951 4.28655,3.51734 5.2479,5.15073 0.96134,1.6334 7.40626,18.87698 14.32203,38.31907 6.91578,19.4421 17.04172,47.89308 22.5021,63.22441 5.46039,15.33132 9.92797,28.62882 9.92797,29.55 0,3.78677 1.7421,4.07486 24.64098,4.07486 14.0916,0 22.4728,-0.37509 22.87365,-1.02368 0.34797,-0.56302 -0.35744,-3.99897 -1.56759,-7.63545 -4.28124,-12.86515 -0.69173,-24.51074 9.49794,-30.81443 4.65234,-2.87811 5.41071,-3.02472 15.47356,-2.99133 5.8198,0.0193 14.18146,0.39676 18.58146,0.83876 6.40401,0.64332 8.89775,0.47796 12.5,-0.8289 11.87679,-4.30876 69.64521,-27.94556 70.69918,-28.92762 0.92053,-0.85771 0.40922,-2.36635 -2.20041,-6.49237 -1.86978,-2.95627 -4.31636,-8.0897 -5.43684,-11.40762 -1.98235,-5.87005 -4.45979,-9.71736 -6.25741,-9.71736 -0.48703,0 -2.12936,0.91962 -3.64962,2.0436 -5.44154,4.0231 -7.92804,-0.25744 -4.42124,-7.61126 1.71042,-3.5868 1.70223,-3.66096 -0.61079,-5.53393 -3.75725,-3.04244 -5.8022,-2.41178 -7.95415,2.45307 -2.16552,4.89552 -4.92078,6.21091 -8.1994,3.91448 -2.35318,-1.64823 -2.31386,-4.03662 0.16633,-10.10314 1.27742,-3.12455 1.21393,-3.45906 -0.99643,-5.25 -3.64126,-2.95032 -5.61727,-2.39671 -7.66662,2.14794 -2.3707,5.25728 -4.79736,6.6117 -8.03966,4.48726 -2.80714,-1.83931 -3.04189,-4.15483 -0.93294,-9.20226 2.10514,-5.03832 1.90794,-6.08345 -1.47832,-7.83455 l -2.97832,-1.54015 -2.67117,4.26447 c -4.1253,6.58595 -7.13312,7.58516 -9.9396,3.30194 -1.51915,-2.31852 -1.46501,-2.7869 0.92567,-8.00883 l 2.53917,-5.54629 -2.13728,-1.99117 c -3.19023,-2.97216 -4.97085,-2.4047 -7.97167,2.54043 -1.96872,3.24429 -3.35214,4.46839 -5.05,4.46839 -5.2799,0 -6.03479,-3.93188 -2.05778,-10.71813 l 2.6807,-4.57426 -2.73647,-2.3538 c -1.50505,-1.2946 -3.15572,-2.35381 -3.66815,-2.35381 -0.51243,0 -2.06798,1.8 -3.45678,4 -2.75872,4.37009 -6.08288,5.27426 -8.92857,2.42857 -2.18923,-2.18923 -1.98108,-3.90506 1.1493,-9.47387 l 2.72073,-4.84006 -10.52839,-10.41422 c -5.79062,-5.72782 -12.68875,-13.28812 -15.32918,-16.80067 -11.02408,-14.66527 -15.65546,-30.47271 -9.50046,-32.42623 1.03652,-0.32898 8.97929,0.80887 17.65058,2.52855 14.29349,2.83467 24.97151,5.25501 79.76599,18.08017 9.35,2.18846 18.02173,4.20112 19.27052,4.47259 4.67643,1.01658 8.43993,-3.42457 6.29629,-7.42999 -0.57419,-1.07289 -2.96162,-2.66733 -5.3054,-3.54319 -4.34453,-1.62355 -89.90766,-17.45715 -106.26141,-19.66385 -4.95,-0.66793 -9.5625,-1.65278 -10.25,-2.18856 -1.80625,-1.40762 -1.49634,-7.59095 0.61293,-12.22924 1.00045,-2.2 6.41033,-9.175 12.02196,-15.5 13.72528,-15.4701 19.65305,-24.38039 21.10096,-31.71777 4.65815,-23.60551 9.9658,-29.62822 27.52063,-31.22826 4.85823,-0.44281 9.4466,-1.44843 10.87292,-2.38299 1.35723,-0.88929 4.9427,-4.89156 7.96771,-8.89394 13.0395,-17.25244 31.22636,-34.99337 45.05541,-43.95064 17.9427,-11.62174 42.09213,-21.25099 56.88146,-22.68069 19.15519,-1.85176 31.69841,3.46879 38.55531,16.35429 2.48605,4.67177 2.65649,5.82057 2.5965,17.5 -0.0577,11.23915 -0.49919,14.26519 -4.37661,30 -9.39004,38.1054 -11.12694,45.83909 -12.24007,54.5 -1.82959,14.23542 0.0273,16.95339 14.98575,21.93501 9.77215,3.25443 10.68152,3.21919 12.21097,-0.47323 2.77814,-6.70701 7.98417,-5.65549 7.98417,1.61266 0,3.92976 0.3255,4.59882 2.67123,5.49066 4.02721,1.53114 5.45515,0.84822 8.26352,-3.95209 2.8181,-4.81693 5.39222,-6.28963 8.78533,-5.02623 3.01298,1.12187 3.74917,4.85439 1.85268,9.39332 -0.86502,2.07028 -1.57276,4.1845 -1.57276,4.69825 0,1.29306 8.79139,5.06861 10.02582,4.30569 0.55152,-0.34085 1.91466,-2.4072 3.0292,-4.59188 2.64913,-5.19273 5.94825,-6.77526 9.40402,-4.51096 1.39753,0.9157 2.59278,2.21703 2.65611,2.89185 0.24814,2.64384 -0.37896,5.2655 -1.71615,7.17461 -0.76945,1.09855 -1.399,2.56308 -1.399,3.25452 0,1.21025 6.8762,5.29782 8.91212,5.29782 0.54549,0 2.36438,-1.99498 4.04198,-4.43329 3.6032,-5.23706 6.19731,-6.35275 9.59486,-4.12659 3.06325,2.00712 3.18871,5.63024 0.35379,10.21723 -1.15348,1.86638 -1.85041,4.03666 -1.54872,4.82285 0.46374,1.2085 7.53867,5.5198 9.05809,5.5198 0.27049,0 1.86438,-1.99498 3.54194,-4.43329 3.3801,-4.9128 5.9488,-6.22427 8.9964,-4.59324 3.3997,1.81949 3.5754,5.45344 0.5161,10.6738 l -2.7422,4.67926 3.3878,2.80984 c 1.8633,1.5454 4.0125,2.82193 4.776,2.83673 0.7635,0.0148 3.368,-1.79803 5.7878,-4.0285 3.3902,-3.125 4.9071,-3.90482 6.6118,-3.39903 5.3533,1.58836 6.09,6.41808 1.7529,11.4922 -1.6277,1.90423 -2.9777,3.97811 -3,4.60864 -0.049,1.36984 6.5612,7.35359 8.1229,7.35359 0.6017,0 2.8374,-1.575 4.9681,-3.5 4.2952,-3.88043 7.7086,-4.43899 10.2133,-1.67126 2.6704,2.95066 2.0221,6.75916 -1.8868,11.08591 l -3.5419,3.92041 3.1455,3.58247 c 3.6982,4.21207 4.9876,4.38348 9.255,1.23035 5.0307,-3.71718 6.5148,-3.90725 9.2388,-1.18326 3.3493,3.34934 3.0975,4.87159 -1.6596,10.03244 l -4.1041,4.45237 3.1881,4.02529 c 1.7535,2.2139 3.5396,4.02528 3.9692,4.02528 0.4296,0 1.9138,-0.891 3.2983,-1.98001 4.6347,-3.64565 7.3224,-4.14614 10.1828,-1.89616 3.7822,2.97509 3.3243,6.17551 -1.4303,9.99641 -2.2,1.76797 -4,3.94367 -4,4.8349 0,0.89122 1.3144,3.17841 2.9209,5.08263 2.7349,3.24179 3.0692,3.37135 5.25,2.03487 7.28,-4.46139 10.2537,-4.47934 12.4926,-0.0754 1.5479,3.0447 0.1821,5.88587 -4.2119,8.76195 -3.9922,2.61306 -4.1652,3.55816 -1.4625,7.99081 2.1525,3.53034 4.1379,3.96405 8.0109,1.75 3.8015,-2.17309 6.7459,-1.81746 8.6188,1.04096 2.2728,3.46876 0.6777,6.757 -4.5788,9.43864 -4.5895,2.34142 -4.8226,3.22449 -2.0509,7.7704 2.2772,3.73488 2.7219,3.83233 7.3715,1.61511 4.3911,-2.09398 8.394,-1.1913 9.2145,2.07795 0.9998,3.98333 -0.5018,6.54736 -5.1596,8.81028 -4.762,2.31354 -4.9831,2.81991 -3.3176,7.59744 1.2218,3.50502 1.9263,3.66999 8.3431,1.95377 3.9658,-1.06069 4.7001,-0.98686 6.5143,0.65499 2.0836,1.88564 2.6303,5.07093 1.2444,7.25158 -0.4233,0.66612 -2.8914,2.14967 -5.4847,3.29679 -5.1792,2.29105 -5.1941,2.31917 -3.6171,6.84287 1.1731,3.36517 2.1283,3.62976 8.0976,2.24298 4.721,-1.09679 7.8045,0.81568 7.8045,4.8405 0,3.28344 -1.117,4.35968 -6.236,6.00837 -4.7723,1.537 -5.088,2.14022 -3.7402,7.14559 1.2176,4.52183 0.3021,4.30543 9.8125,2.31952 3.5739,-0.74627 6.1637,1.62378 6.1637,5.64064 0,3.2726 -2.5053,5.33897 -7.8175,6.44775 -3.9864,0.83205 -4.6782,2.27177 -3.4797,7.24154 0.9811,4.06812 1.2314,4.14574 8.9506,2.77511 3.7804,-0.67128 4.3094,-0.49929 5.8918,1.91583 2.7613,4.21432 0.8157,7.11989 -6.1171,9.13532 l -5.6506,1.64269 0.657,4.10915 c 0.3614,2.26003 0.8634,4.31547 1.1156,4.56764 0.2522,0.25217 2.9683,0.35696 6.0359,0.23285 6.4129,-0.25945 8.414,0.9257 8.414,4.98313 0,3.32824 -2.6315,5.34849 -8.25,6.33368 -3.3105,0.5805 -3.75,0.99423 -3.75,3.53046 0,5.48939 0.6863,6.03647 7.5718,6.03647 5.4287,0 6.5216,0.3059 7.4781,2.09314 2.4181,4.51838 -0.166,7.83069 -7.2999,9.3567 -1.5125,0.32355 -2.75,1.16627 -2.75,1.87273 0,0.70645 1.5985,5.98538 3.5521,11.73095 5.3979,15.87499 15.9849,53.19874 18.2804,64.44648 3.4004,16.66093 4.4937,29.75956 3.8395,46 -1.5379,38.17905 -14.8078,70.00125 -39.198,94 -15.0749,14.83287 -33.0211,24.42823 -57.458,30.72117 -9.8629,2.53988 -13.8127,3.01934 -27.516,3.3401 -10.4528,0.24468 -18.7736,-0.0909 -24,-0.96804 z M 441.53853,279.4259 c 7.30926,-3.34629 13.59424,-9.35456 17.69438,-16.91537 3.18321,-5.86995 3.38934,-6.83275 3.37237,-15.75209 -0.0155,-8.14826 -0.39404,-10.3075 -2.66041,-15.17515 -10.95004,-23.51822 -40.77423,-28.96738 -58.96767,-10.77394 -5.62155,5.62155 -8.21197,10.46088 -9.85165,18.4045 -3.82479,18.52969 7.52477,37.02084 25.92715,42.24152 6.75184,1.91547 17.8844,0.99277 24.48583,-2.02947 z m -32.58469,-24.63711 c -5.77011,-3.13789 -8.33049,-7.50442 -8.33049,-14.20702 0,-6.13307 1.68544,-9.37942 6.88512,-13.26154 3.87219,-2.89101 13.35757,-2.89101 17.22976,0 6.58751,4.91829 8.99438,12.65095 6.0965,19.58655 -3.42061,8.18666 -14.18824,12.06541 -21.88089,7.88201 z"
       id="path5962" />
  </g>
</svg>
