<?xml version="1.0" encoding="UTF-8" standalone="no"?>
<!-- Created with Inkscape (http://www.inkscape.org/) -->

<svg
   version="1.1"
   id="svg48"
   width="869.09662"
   height="862.35815"
   viewBox="0 0 869.09662 862.35815"
   sodipodi:docname="punto-de-mira-vectorizable.png"
   xmlns:inkscape="http://www.inkscape.org/namespaces/inkscape"
   xmlns:sodipodi="http://sodipodi.sourceforge.net/DTD/sodipodi-0.dtd"
   xmlns="http://www.w3.org/2000/svg"
   xmlns:svg="http://www.w3.org/2000/svg">
  <defs
     id="defs52" />
  <sodipodi:namedview
     id="namedview50"
     pagecolor="#ffffff"
     bordercolor="#000000"
     borderopacity="0.25"
     inkscape:showpageshadow="2"
     inkscape:pageopacity="0.0"
     inkscape:pagecheckerboard="0"
     inkscape:deskcolor="#d1d1d1"
     showgrid="false" />
  <g
     inkscape:groupmode="layer"
     inkscape:label="Image"
     id="g54"
     transform="translate(-85.697232,-95.240788)">
    <g
       id="g783"
       transform="translate(-69.22394,-66.401067)">
      <path
         style="fill:#6b94aa"
         d="M 800.78699,1008.25 C 790.23874,988.84475 782.24267,971.52105 771.82361,945.5 758.70344,912.73308 747.07794,891.34147 730.02673,868.59124 715.85562,849.68372 718.51367,851.42127 702.48914,850.59012 644.69311,847.59238 602.36836,810.83376 600.21541,761.7664 599.94549,755.61468 599.2654,750.64154 598.62222,750.11622 598.005,749.6121 584,742.36563 567.5,734.01294 c -60.42554,-30.58882 -61.99621,-31.73035 -71.95997,-52.29898 -7.7027,-15.90102 -10.03246,-25.20074 -9.98389,-39.85283 l 0.0386,-11.63886 -45.73608,-23.61114 c -49.0291,-25.31114 -47.8429,-24.81027 -50.2082,-21.20037 C 384.70642,592.95627 374,589.80315 374,580.80158 c 0,-2.69098 -0.25493,-2.95438 -2.25,-2.32472 -9.7343,3.07223 -15.61361,-1.38017 -14.10427,-10.68117 l 0.56267,-3.46733 -19.8542,-10.55582 C 327.43439,547.96684 311.3,539.51325 302.5,534.98679 c -14.96633,-7.69823 -62.65321,-32.70419 -81.29352,-42.62854 -7.42051,-3.95078 -8.78895,-4.35456 -13,-3.8358 -5.77272,0.71113 -10.44619,-1.79918 -12.55127,-6.7418 -1.21695,-2.85735 -3.74826,-4.49678 -19.61792,-12.70578 -10.79583,-5.58443 -18.84997,-10.38555 -19.76497,-11.78201 -3.6639,-5.59181 0.6013,-20.19753 7.06463,-24.19209 6.07415,-3.75403 7.09973,-3.50645 30.67688,7.40563 11.42089,5.28587 14.72144,6.39768 18.67911,6.29219 6.36972,-0.16978 9.92352,1.43704 12.37763,5.59644 1.79127,3.03599 4.77529,4.67973 26.22534,14.44625 13.31225,6.06125 34.10409,15.60285 46.20409,21.20354 12.1,5.6007 28.075,12.9898 35.5,16.42022 7.425,3.43043 17.65758,8.166 22.73908,10.52348 l 9.23907,4.28634 4.34506,-4.00514 c 7.7184,-7.11457 19.60377,-8.62055 34.17361,-4.33011 14.76398,4.34762 20.37457,2.90239 67.50318,-17.38823 18.97426,-8.16913 17.74256,-6.75365 13.6027,-15.63236 -1.90259,-4.08046 -4.90899,-10.96769 -6.68089,-15.30496 -4.915,-12.03099 -6.74886,-13.60617 -27.4414,-23.57058 l -18.10209,-8.71699 -12.43916,1.71073 c -37.6646,5.17995 -74.08468,5.8536 -84.35979,1.56039 -10.09748,-4.219 -20.68852,-25.86384 -33.07619,-67.59761 -3.67323,-12.375 -8.62758,-28.575 -11.00968,-36 -2.3821,-7.425 -5.07344,-16.2 -5.98076,-19.5 -0.90732,-3.3 -1.8276,-6.55692 -2.04506,-7.2376 -0.29023,-0.90844 -1.26939,-0.73749 -3.68154,0.64277 -2.90734,1.66362 -6.49395,1.95995 -31.11417,2.5707 -27.22762,0.67542 -27.90488,0.74246 -31.38955,3.10722 C 203.966,318.61986 195.42823,307.76914 195.57897,282 c 0.1463,-25.00878 8.04116,-34.63659 21.83317,-26.6256 3.94121,2.28922 5.07444,2.39858 31.58786,3.0483 25.63724,0.62826 33,1.45347 33,3.69862 0,1.94472 3.75265,0.71697 4.79395,-1.56843 1.86181,-4.08623 5.5717,-5.8751 10.61556,-5.11873 2.71301,0.40684 4.66267,0.25806 5.06084,-0.38618 0.84719,-1.37078 7.10112,-1.34769 9.68612,0.0358 1.4832,0.79378 2.81542,0.75633 4.97932,-0.13998 3.98669,-1.65135 7.07648,-0.15186 10.34015,5.01812 2.17118,3.43938 3.0586,4.03812 5.98508,4.03812 2.27899,0 4.34426,0.8418 6.13348,2.5 3.3433,3.09847 36.97616,3.89567 40.84663,0.9682 1.06762,-0.80751 3.39078,-1.4682 5.16257,-1.4682 3.05632,0 3.35393,-0.34669 5.80595,-6.76357 5.46812,-14.30989 10.38536,-18.12923 24.63888,-19.13762 10.91626,-0.77228 11.73821,-1.34198 23.62371,-16.37389 56.41219,-71.34592 148.14686,-85.06996 139.3455,-20.84689 -0.63148,4.60792 -4.46838,21.50869 -8.52644,37.55727 -13.94101,55.13315 -13.88435,55.33612 18.14356,64.99865 18.29408,5.51916 16.29842,5.56477 19.61485,-0.44836 C 610.56,300.79672 611.45931,300 613.87726,300 c 5.17616,0 5.82052,2.17627 3.55768,12.01584 -0.50842,2.21083 -0.021,2.78671 4.02,4.75 6.04568,2.93723 6.38251,2.87493 8.19567,-1.51584 3.15383,-7.63733 8.62608,-9.80974 11.94626,-4.74251 1.54578,2.35917 1.51517,2.80458 -0.51756,7.52979 -2.48555,5.77781 -2.31711,6.29059 2.9487,8.97701 4.96205,2.53145 4.37327,2.71627 7.96167,-2.4993 4.07641,-5.92485 6.393,-7.1495 9.57738,-5.06301 3.04148,1.99285 3.24506,6.95293 0.43294,10.54802 -2.75386,3.52061 -2.50726,4.5832 1.73213,7.46395 5.00587,3.40157 5.67365,3.26006 9.26787,-1.96395 6.664,-9.6858 15.76799,-3.15094 9.27636,6.65858 l -2.72365,4.1157 3.89026,3.36286 c 4.94645,4.27587 5.78481,4.22338 10.17599,-0.63714 7.43301,-8.22745 15.45222,-1.90674 8.88104,7 -3.30825,4.48408 -3.19999,5.13488 1.5712,9.44536 l 4.07121,3.67809 4.40645,-4.06172 c 8.81388,-8.12435 16.08018,-0.19128 8.00838,8.74324 l -3.44277,3.81072 3.69277,4.26685 c 3.39796,3.92623 7.19276,5.02995 7.19276,2.09203 0,-4.43401 9.70726,-5.2586 11.97708,-1.01739 1.55899,2.913 1.30469,3.72517 -2.47708,7.91114 -4.23854,4.69156 -4.30605,5.74171 -0.65061,10.12034 l 2.8494,3.41312 4.98815,-3.20089 c 9.8313,-6.30873 16.35756,1.651 7.31306,8.91935 -4.60196,3.69824 -4.76063,4.47626 -1.90122,9.3226 2.50536,4.24627 2.59996,4.25682 8.85383,0.98676 10.65195,-5.56975 14.90211,4.17083 4.59846,10.53884 -4.14911,2.56429 -4.257,3.15328 -1.4188,7.74557 1.43585,2.32327 2.66062,3.2742 3.75,2.91158 10.94126,-3.64199 13.38282,-3.26749 13.92442,2.13581 0.23644,2.35887 -0.28968,3.48105 -2.29689,4.89916 -7.12539,5.03413 -6.88746,4.66507 -5.57377,8.6456 1.61781,4.90203 2.31499,5.16403 8.15413,3.0643 10.66768,-3.83604 13.92026,5.52261 3.72674,10.72295 -7.9571,4.05941 -3.46716,12.77224 5.05153,9.80261 10.10816,-3.52372 12.95959,6.83089 3.01873,10.96213 -4.92005,2.04468 -5.03635,2.18817 -4.35353,5.37132 1.05708,4.92786 1.24038,5.02772 7.91614,4.31281 10.63461,-1.13887 12.47073,5.90336 2.7206,10.43459 -7.97548,3.70648 -6.14705,12.23604 2.13289,9.94984 4.61673,-1.27474 7.25839,-0.52535 9.33839,2.64913 2.27319,3.46932 -0.0532,6.71948 -6.0016,8.38495 -5.13162,1.43676 -5.73831,2.34848 -4.74312,7.12786 l 0.71034,3.41135 6.22572,-0.34808 c 12.28777,-0.68702 13.55857,7.70939 1.66701,11.0143 -9.15773,2.54513 -7.44642,12.31507 1.96341,11.20914 11.41686,-1.34183 12.63254,6.93781 1.55999,10.62464 -4.86571,1.62014 -5.68713,3.12405 -4.05337,7.42118 1.00601,2.64599 1.25964,2.73491 5.95786,2.08874 10.13596,-1.39405 13.09533,9.50329 3.01839,11.11466 -5.58407,0.89293 -5.57904,0.75184 -0.61115,17.13762 9.00031,29.68608 15.58857,52.91937 17.08161,60.2378 0.84154,4.125 2.05264,10.2 2.69132,13.5 0.63868,3.3 1.43815,15.1548 1.77659,26.34401 l 0.61535,20.34401 5.5,2.24168 c 3.025,1.23293 12.925,5.64463 22,9.80379 37.14201,17.02252 81.90286,34.38693 129.75,50.33489 l 29.25,9.74933 V 915.15885 1024 H 916.67416 809.34833 Z M 750,694.58659 c 0,-2.632 -11.79971,-17.34694 -18.16856,-22.65727 C 713.63921,656.76067 691.10314,645.8084 657,635.5621 c -6.875,-2.0656 -17.65598,-5.80199 -23.95773,-8.30309 -10.60879,-4.21053 -11.53496,-4.41644 -12.5,-2.77912 -0.57325,0.9726 -2.05477,3.30748 -3.29227,5.18864 -1.2375,1.88116 -2.25,3.77805 -2.25,4.2153 0,0.77104 10.24804,5.6371 43.5,20.65501 21.33146,9.63414 58.68768,26.74807 76,34.81773 15.50832,7.22878 15.5,7.22597 15.5,5.23002 z M 553.08363,601.07022 c 4.43338,-4.43339 12.02267,-5.85201 19.211,-3.591 7.34419,2.31003 8.81696,1.59731 4.07517,-1.9721 -23.0412,-17.3444 -47.8702,-42.7004 -62.26259,-63.5841 -4.16859,-6.04872 -1.7979,-6.19528 -26.72306,1.65211 -11.48628,3.61632 -28.5157,8.51097 -37.84315,10.87701 -17.87551,4.53436 -19.64008,5.46822 -14.32869,7.58306 3.393,1.351 32.06253,14.43251 55.78769,25.45516 7.425,3.44963 21.6,9.93032 31.5,14.40153 9.9,4.47122 19.8,8.99675 22,10.05676 5.2327,2.52122 5.17842,2.52677 8.58363,-0.87843 z M 370.3048,393.92218 c 4.47591,-1.1428 8.49096,-2.29596 8.92234,-2.56256 0.43138,-0.26661 -2.7384,-4.4137 -7.04397,-9.21576 -17.43879,-19.44975 -23.42813,-33.11907 -19.85768,-45.32065 0.85673,-2.92776 1.77865,-7.93193 2.04871,-11.12037 0.60051,-7.08977 3.17075,-11.67628 12.04051,-21.48595 8.69881,-9.6206 9.09686,-9.22156 -9.16471,-9.18758 l -15.75,0.0293 -3.25,2.95659 c -2.44783,2.22683 -3.25,3.7945 -3.25,6.35139 0,1.86715 -1.6137,7.83599 -3.58601,13.2641 -2.49061,6.85457 -3.44475,10.9501 -3.12356,13.40755 0.50701,3.87915 21.10264,52.36197 26.85252,63.21174 1.23066,2.32221 5.11133,2.2383 15.16185,-0.32782 z"
         id="path795" />
      <path
         style="fill:#8a9baa"
         d="M 800.78699,1008.25 C 790.23874,988.84475 782.24267,971.52105 771.82361,945.5 758.41255,912.00662 746.89575,890.97997 729.08195,867.46503 723.81188,860.50831 719.05,854.16994 718.5,853.37976 c -1.40574,-2.01962 1.01524,-3.34549 6.14332,-3.36445 24.53274,-0.0907 63.25406,-20.83442 80.6065,-43.18246 12.9778,-16.71398 20.35141,-29.4718 23.17299,-40.0939 0.7654,-2.88142 2.30887,-8.61395 3.42992,-12.73895 1.12106,-4.125 2.34458,-9.75 2.71893,-12.5 1.23883,-9.10063 -0.28996,-9.32352 29.45479,4.29448 38.29334,17.53178 82.47346,34.69164 130.72355,50.7739 l 29.25,9.74933 V 915.15885 1024 H 916.67416 809.34833 Z M 645.5,831.63952 C 640.19755,828.6908 637.06062,825 639.85687,825 c 0.62944,0 0.6967,-1.0698 0.18044,-2.86992 -0.8097,-2.82324 -0.7801,-2.84954 1.8198,-1.61683 1.83946,0.87216 4.31488,1.01111 8.14289,0.45708 9.42647,-1.3643 11.29578,-2.19593 10.79388,-4.80208 -0.17426,-0.90491 0.36332,-2.39508 1.19464,-3.3115 0.83131,-0.91642 2.3432,-2.86487 3.35975,-4.32988 3.41215,-4.91744 2.71847,-1.89829 -1.45257,6.32219 -2.84947,5.61585 -4.69135,8.15094 -5.92211,8.15094 -1.25439,0 -1.64032,0.55842 -1.29598,1.8752 0.49928,1.90923 -3.11848,10.1346 -4.44793,10.11288 -0.40133,-0.007 -3.42968,-1.51341 -6.72968,-3.34856 z M 624.31486,813.75 c -8.29397,-8.50984 -11.63618,-14.56367 -20.47403,-37.08517 -1.22645,-3.12539 -2.11967,-8.71987 -2.52596,-15.82086 l -0.62855,-10.98568 -4.09316,-1.58097 c -4.52216,-1.74667 -52.49692,-25.96314 -70.5913,-35.63274 -25.76544,-13.76899 -40.54919,-39.64658 -40.44552,-70.7961 l 0.0388,-11.65152 -35.54755,-18.31077 c -19.55116,-10.07092 -40.93029,-21.13913 -47.50918,-24.59602 -9.96216,-5.23465 -12.10314,-6.03238 -12.80827,-4.77239 C 385.07239,590.84066 376,589.32915 376,580.23028 c 0,-5.22597 -0.94216,-5.74956 -5.79464,-3.2203 -6.99988,3.64854 -12.11533,-0.74843 -10.77309,-9.25998 0.41014,-2.6008 0.2189,-3.75 -0.62406,-3.75 -0.66848,0 -10.0113,-4.67624 -20.76181,-10.39164 -10.75052,-5.7154 -26.7464,-14.09511 -35.5464,-18.62157 -14.96633,-7.69823 -62.65321,-32.70419 -81.29352,-42.62854 -7.42051,-3.95078 -8.78895,-4.35456 -13,-3.8358 -5.77272,0.71113 -10.44619,-1.79918 -12.55127,-6.7418 -1.21695,-2.85735 -3.74826,-4.49678 -19.61792,-12.70578 -10.79583,-5.58443 -18.84997,-10.38555 -19.76497,-11.78201 -3.6639,-5.59181 0.6013,-20.19753 7.06463,-24.19209 6.07415,-3.75403 7.09973,-3.50645 30.67688,7.40563 11.42089,5.28587 14.72144,6.39768 18.67911,6.29219 6.36972,-0.16978 9.92352,1.43704 12.37763,5.59644 1.79127,3.03599 4.77529,4.67973 26.22534,14.44625 13.31225,6.06125 34.10409,15.60285 46.20409,21.20354 36.41395,16.85483 49.52182,22.91038 59.64004,27.55243 l 9.64005,4.42266 3.41261,-3.41261 c 6.81659,-6.81659 16.08413,-7.97593 31.89214,-3.98959 17.38615,4.38431 20.7296,3.54357 69.91516,-17.58069 31.07057,-13.34422 30.8587,-12.96413 32.39774,-58.12175 1.05155,-30.8539 7.85444,-41.45438 26.38432,-41.11288 19.54789,0.36025 25.08484,13.57889 28.14738,67.19761 2.46547,43.16528 -2.5897,56.10534 -26.42944,67.65326 -13.66387,6.61874 -13.71141,6.61834 -18.04315,-0.15326 -4.2833,-6.69588 -1.28341,-6.8517 -27.779,1.44294 -22.16447,6.93875 -40.10751,11.88946 -50.91041,14.04681 -7.74447,1.54659 -7.94548,2.59128 -1.09009,5.66534 8.73713,3.91786 41.01202,18.72294 56.32265,25.83624 16.67676,7.74799 44.13482,20.23357 53.5,24.32722 l 7,3.0598 2.5,-2.30311 c 5.29272,-4.87589 11.52656,-5.61709 20.82688,-2.47633 7.94695,2.68373 8.88045,2.26618 9.58411,-4.28694 5.43581,-50.62319 7.30591,-64.67139 11.12261,-83.55316 8.88356,-43.94817 35.3497,-57.54226 69.54342,-35.72032 57.07551,36.42478 92.40364,122.28312 60.01868,145.86404 -26.57101,19.34752 -58.79016,3.82974 -76.47098,-36.83091 -4.32632,-9.94925 -4.50099,-9.90048 -7.17033,2.00189 -1.24256,5.54043 -3.59986,14.99043 -5.23845,21 -1.63859,6.00957 -3.26608,12.16399 -3.61665,13.67649 -0.71243,3.07373 -1.93253,3.34611 -5.59929,1.25 -4.69163,-2.68198 -6.66777,-1.92329 -10.46927,4.01942 -3.84524,6.01107 -4.2658,7.48058 -2.14088,7.48058 0.76442,0 7.85192,2.97984 15.75,6.62187 7.89808,3.64203 21.11015,9.66247 29.36015,13.37877 16.22851,7.31029 51.71382,23.53623 76.456,34.96011 19.7211,9.10556 19.70832,9.08876 24.60855,32.35463 9.64291,45.78364 -35.17996,82.01884 -79.13827,78.99395 -13.47854,-0.9275 -8.2579,2.16133 -10.92628,2.87141 -1.1,0.29272 -1.4375,0.3388 -0.75,0.10241 3.3223,-1.14234 1.06986,-5.27722 -6.91629,-12.69651 -9.15509,-8.50526 -13.94339,-10.47134 -9.27701,-3.80915 1.45749,2.08086 1.42563,2.22251 -0.5,2.22251 -1.13118,0 -2.0567,0.45 -2.0567,1 0,4.56723 -3.02559,5.98571 -6.2868,2.94743 -1.21174,-1.12891 -2.91694,-1.86591 -3.78932,-1.63778 -1.33489,0.34909 -1.55589,-0.55341 -1.39513,-5.69743 0.10506,-3.36172 -0.19457,-7.15044 -0.66584,-8.41937 -0.55226,-1.48699 -0.50245,-2.08811 0.14011,-1.69098 0.57737,0.35683 0.99698,-0.63691 0.99698,-2.36107 0,-1.63747 0.26913,-3.67857 0.59807,-4.53577 1.01345,-2.641 -3.49671,-3.9516 -9.71105,-2.82191 l -5.38702,0.97929 4.63922,0.11879 c 3.05128,0.0781 5.44727,0.80337 7,2.1188 l 2.36078,2 -2.05428,1.75 c -1.12986,0.9625 -3.07363,2.42595 -4.3195,3.25212 -1.88369,1.24913 -2.10658,1.92282 -1.32336,4 1.45395,3.85605 -0.18527,7.14899 -3.27944,6.5879 -2.78583,-0.50516 -3.62688,1.77256 -1.02342,2.77161 1.90609,0.73143 1.9516,3.52784 0.0692,4.2502 -0.79661,0.30569 -1.39585,1.77928 -1.35192,3.3245 0.0975,3.43088 -0.84764,5.06367 -2.93125,5.06367 -1.43978,0 -1.43401,0.17897 0.059,1.82874 0.91025,1.00581 1.65499,2.21868 1.65499,2.69528 0,0.4766 1.1936,2.1124 2.65245,3.63511 2.0519,2.14171 2.39691,3.07647 1.5238,4.12851 -0.84072,1.013 -0.82859,1.66002 0.0475,2.53615 0.64692,0.64692 0.95834,1.17621 0.69205,1.17621 -0.26629,0 -2.78673,-2.3625 -5.60098,-5.25 z M 350.5,434.89943 C 327.89155,433.0422 320.91194,422.95412 304.56045,368.5 c -3.63338,-12.1 -9.27491,-30.55 -12.53673,-41 -3.26181,-10.45 -6.22867,-20.69851 -6.59302,-22.77446 -0.36435,-2.07596 -1.39781,-4.32596 -2.29658,-5 -2.59216,-1.94404 -1.47705,-32.5174 1.24445,-34.11959 1.40235,-0.82559 1.98961,-0.80179 2.31661,0.0939 1.71152,4.68801 4.59838,6.5189 9.2961,5.89572 3.90156,-0.51756 4.97804,-0.28693 6.4975,1.39207 2.00474,2.2152 6.47114,2.63939 9.68432,0.91975 1.47648,-0.79019 2.34407,-0.79019 3.13426,0 3.44222,3.44222 11.42784,0.005 13.14509,-5.65736 0.98849,-3.25958 6.75318,-3.09621 10.79644,0.30598 3.58021,3.01254 35.22247,3.61551 40.95145,0.78036 3.47692,-1.72065 7.79966,-1.72868 7.79966,-0.0145 0,4.35103 -4.13692,13.22925 -9.28576,19.92814 l -2.8823,3.75 h -17.46372 c -16.97812,0 -17.52495,0.0646 -19.66597,2.32451 -1.21124,1.27848 -2.98975,2.61436 -3.95225,2.96862 -1.30469,0.4802 -1.75,1.7661 -1.75,5.05336 0,4.79786 -2.33662,11.46094 -4.2816,12.20938 -0.79134,0.30451 -1.32312,3.45727 -1.51716,8.99485 l -0.29877,8.52601 7.994,18.71164 c 4.3967,10.29139 10.65415,24.56163 13.90545,31.71163 l 5.91146,13 4.10179,0.30547 c 2.25598,0.16801 8.64451,-0.89274 14.19673,-2.35721 l 10.09494,-2.66269 6.19658,5.92119 c 8.32047,7.95069 19.20787,16.44542 31.01928,24.20234 5.3675,3.52501 9.40319,6.73134 8.9682,7.12519 -1.12247,1.0163 -24.09715,3.73135 -41.7909,4.93868 -25.50329,1.74021 -26.72242,1.77073 -37,0.92646 z m 105,-76.36446 c -32.72973,-7.08609 -80.54998,-16.90926 -90.28755,-18.54675 -12.07069,-2.02984 -11.75982,-1.83251 -10.10336,-6.41335 1.51634,-4.19336 1.03366,-4.13249 11.89091,-1.49962 7.56229,1.83384 34.71961,7.45814 89,18.43196 21.39032,4.32446 22.23105,4.64245 21.81561,8.25124 -0.43959,3.81853 -3.80159,3.78486 -22.31561,-0.22348 z m -15.9057,-28.59196 c -52.23813,-8.75043 -43.16852,-87.18329 9.80018,-84.75077 49.22043,2.26038 54.1062,74.11507 5.73659,84.36751 -7.31466,1.55042 -8.40806,1.57739 -15.53677,0.38326 z M 203.38953,307.25573 c -6.59986,-4.49154 -8.15177,-32.96214 -2.49393,-45.75262 4.17322,-9.43426 10.90591,-3.00449 13.10734,12.5176 2.51842,17.75716 -3.88634,37.81312 -10.61341,33.23502 z"
         id="path793"
         sodipodi:nodetypes="ssssssssssscccccsssssssssssscsssscssscssssssssssssssssssssscssssssssssssscsssssssssssssssssssssssssssssssscsscsssssssssssssssssssssssssssssssscsssssscsscsscsssssssssssssssssssss" />
      <path
         style="fill:#4e7992"
         d="M 862.71754,1018.25 C 843.46439,985.94854 824.09975,935.08605 814.50622,891.61978 812.54941,882.7539 810.285,873.31082 809.47419,870.63517 808.66339,867.95951 808,864.12221 808,862.10784 c 0,-2.01437 -0.88429,-9.9502 -1.9651,-17.63517 -3.24439,-23.06899 75.27247,-18.05813 124.4651,0.0248 6.6,2.42613 20.55,7.4161 31,11.08884 10.45,3.67273 23.725,8.34653 29.5,10.38623 5.775,2.03969 15.5625,5.39248 21.75,7.45065 l 11.25,3.74213 V 950.58268 1024 H 945.0724 866.14481 Z M 1002.0114,830.27248 c -11.81876,-3.97513 -22.61876,-7.64251 -24.00002,-8.14973 -1.38126,-0.50722 -4.98638,-1.84426 -8.01138,-2.97119 -3.025,-1.12694 -20.35,-7.4371 -38.5,-14.02258 -18.15,-6.58549 -38.4,-14.06742 -45,-16.62652 -57.67735,-22.36395 -55.37656,-21.40329 -56.56076,-23.61599 -1.24654,-2.32918 -1.18661,-3.15739 0.16789,-2.32026 0.75421,0.46613 0.87945,-0.0331 0.39287,-1.56621 -0.5188,-1.63461 -0.38198,-2.04509 0.5,-1.5 0.88198,0.54509 1.0188,0.13461 0.5,-1.5 -0.44764,-1.41038 -0.3408,-2.01964 0.28619,-1.63214 1.29278,0.79898 2.47497,-3.89346 1.6887,-6.7029 -0.49831,-1.78051 -0.40235,-1.89859 0.54038,-0.66496 0.89473,1.17083 1.02852,0.51248 0.60966,-3 -0.39465,-3.30944 -0.28163,-3.97086 0.42717,-2.5 0.70384,1.46057 0.83203,0.65144 0.47526,-3 -0.33959,-3.4757 -0.21101,-4.39028 0.42177,-3 0.78295,1.72021 0.92013,1.75518 0.98058,0.25 0.0387,-0.9625 0.19645,-1.75 0.35065,-1.75 0.73422,0 17.39415,7.34851 27.21964,12.00627 36.66695,17.38195 142.113,56.88206 155.8245,58.37192 l 3.1755,0.34504 0.2912,8.18587 c 0.1602,4.50222 0.1602,11.427 0,15.38838 L 1023.5,837.5 Z m -352.88684,5.472 c -0.56569,-0.0606 -11.67811,-6.87013 -12.21212,-7.26538 -7.54298,-5.58305 -9.98717,-8.4132 -11.27251,-9.77513 -21.38147,-22.6556 -27.12417,-58.9539 -24.52427,-57.72119 1.83946,0.87216 51.76341,75.16354 48.0089,74.7617 z m -47.66343,-73.44246 c -0.90197,-15.07297 -0.0503,-13.75433 -12.74944,-19.74056 -77.90832,-36.72521 -90.35662,-47.05489 -99.32862,-82.42357 -5.94834,-23.44904 -3.33589,-30.19037 9.1745,-23.67455 4.91834,2.56162 14.79243,7.39832 21.94243,10.74821 7.15,3.3499 14.65387,7.13213 16.67527,8.40496 l 3.67527,2.31423 2.72701,-4.71537 c 1.49985,-2.59345 6.70758,-11.09623 11.57274,-18.89506 12.79725,-20.51393 12.68237,-19.63831 3.26733,-24.9035 -7.18397,-4.01751 -7.32089,-4.25091 -4.16762,-7.10397 5.09719,-4.61192 11.45154,-5.2956 20.57688,-2.21393 7.94695,2.68373 8.88045,2.26618 9.58411,-4.28694 5.43581,-50.62319 7.30591,-64.67139 11.12261,-83.55316 8.88356,-43.94817 35.3497,-57.54226 69.54342,-35.72032 57.07551,36.42478 92.40364,122.28312 60.01868,145.86404 -26.57101,19.34752 -58.79016,3.82974 -76.47098,-36.83091 -4.32632,-9.94925 -4.50099,-9.90048 -7.17033,2.00189 -1.24256,5.54043 -3.59986,14.99043 -5.23845,21 -1.63859,6.00957 -3.26608,12.16399 -3.61665,13.67649 -0.71243,3.07373 -1.93253,3.34611 -5.59929,1.25 -4.92639,-2.81618 -14,3.92265 -14,10.39757 0,0.47231 -4.24868,4.05225 -9.44151,7.95543 C 591.54883,650.88003 575,669.74391 575,674.40659 575,674.95665 622.7282,699 623.82011,699 c 0.45267,0 3.81742,-2.38615 7.47723,-5.30257 49.43637,-39.39464 123.72513,-0.92251 108.29654,56.08385 l -1.42936,5.28128 8.91774,4.47875 c 9.83007,4.93696 9.77653,4.855 6.87992,10.53282 -1.1208,2.19696 -3.01856,4.69116 -3.66255,5.08914 -0.78054,0.4824 -3.55005,3.21484 -2.18921,1.3793 1.47307,-1.98693 -7.12758,8.77084 -8.653,8.20774 -1.02083,-0.37682 -9.56631,5.83044 -10.32908,5.53774 -0.76276,-0.2927 -6.86526,3.61766 -9.49722,4.98748 -2.63196,1.36982 -32.88434,5.93492 -34.21869,5.87871 -0.91752,-0.0387 -4.43992,-1.21749 -3.37603,-0.4597 1.01417,0.72238 -1.52406,2.88288 -5.09586,3.23158 -2.6883,0.26243 -7.87804,0.59342 -7.19054,0.35701 1.81177,-0.62296 14.26321,-2.72338 12.4597,-2.72338 -1.16734,0 -22.26258,46.30029 -32.9494,34.22035 -4.11025,-4.64606 -19.12108,-67.89892 -19.12108,-67.89892 -0.8356,-2.93567 16.94869,63.38581 16.94869,63.38581 0,0 -22.08789,-24.21959 -22.08789,-23.74299 0,0.4766 5.18209,11.47598 4.9158,11.47598 -0.26629,0 -28.10447,-50.84522 -28.45469,-56.69796 z m 107.02832,-28.52379 c -2.5019,-16.68388 -23.67098,-25.87972 -41.58896,-18.06624 l -4.31744,1.88271 6.95847,3.95265 c 5.37531,3.05336 8.42588,4.08828 13.40813,4.5488 5.98198,0.55293 6.71374,0.89374 10.09154,4.70005 3.70399,4.17387 13.76605,9.56633 15.28817,8.19323 0.45615,-0.41148 0.52819,-2.75653 0.16009,-5.2112 z M 377.65499,586.17126 C 376.67978,585.09366 376,582.65344 376,580.23028 c 0,-5.22597 -0.94216,-5.74956 -5.79464,-3.2203 -15.82924,8.25066 -14.79473,-12.34181 1.78393,-35.50998 9.7086,-13.56746 9.70971,-13.59188 0.82352,-18.09485 -15.27373,-7.73979 7.73408,-16.21871 29.27203,-10.78744 17.38615,4.38431 20.7296,3.54357 69.91516,-17.58069 31.07057,-13.34422 30.8587,-12.96413 32.39774,-58.12175 1.05155,-30.8539 7.85444,-41.45438 26.38432,-41.11288 19.54789,0.36025 25.08484,13.57889 28.14738,67.19761 2.46547,43.16528 -2.5897,56.10534 -26.42944,67.65326 -13.66387,6.61874 -13.71141,6.61834 -18.04315,-0.15326 -4.2833,-6.69588 -1.28341,-6.8517 -27.779,1.44294 -22.12762,6.92721 -40.11214,11.8908 -50.85101,14.03448 -3.12023,0.62286 -6.21283,1.78274 -6.87244,2.57752 -0.65961,0.79479 -1.71938,1.44506 -2.35506,1.44506 -6.73566,0 -20.71109,11.0786 -29.64476,23.5 -7.87702,10.95222 -11.54423,14.5 -14.98815,14.5 -1.46105,0 -3.4012,-0.82293 -4.31144,-1.82874 z M 350.5,434.89943 C 327.89155,433.0422 320.91194,422.95412 304.56045,368.5 c -3.63338,-12.1 -9.27491,-30.55 -12.53673,-41 -3.26181,-10.45 -6.22867,-20.69851 -6.59302,-22.77446 -0.36435,-2.07596 -1.39781,-4.32596 -2.29658,-5 -2.59216,-1.94404 -1.47705,-32.5174 1.24445,-34.11959 1.40235,-0.82559 1.98961,-0.80179 2.31661,0.0939 1.71152,4.68801 4.59838,6.5189 9.2961,5.89572 3.90156,-0.51756 4.97804,-0.28693 6.4975,1.39207 2.00474,2.2152 6.47114,2.63939 9.68432,0.91975 1.47648,-0.79019 2.34407,-0.79019 3.13426,0 3.44222,3.44222 11.42784,0.005 13.14509,-5.65736 0.98849,-3.25958 6.75318,-3.09621 10.79644,0.30598 3.58021,3.01254 35.22247,3.61551 40.95145,0.78036 3.47692,-1.72065 7.79966,-1.72868 7.79966,-0.0145 0,4.35103 -4.13692,13.22925 -9.28576,19.92814 l -2.8823,3.75 h -17.46372 c -16.97812,0 -17.52495,0.0646 -19.66597,2.32451 -1.21124,1.27848 -2.98975,2.61436 -3.95225,2.96862 -1.30469,0.4802 -1.75,1.7661 -1.75,5.05336 0,4.79786 -2.33662,11.46094 -4.2816,12.20938 -0.79134,0.30451 -1.32312,3.45727 -1.51716,8.99485 l -0.29877,8.52601 7.994,18.71164 c 4.3967,10.29139 10.65415,24.56163 13.90545,31.71163 l 5.91146,13 4.10179,0.30547 c 2.25598,0.16801 8.64451,-0.89274 14.19673,-2.35721 l 10.09494,-2.66269 6.19658,5.92119 c 8.32047,7.95069 19.20787,16.44542 31.01928,24.20234 5.3675,3.52501 9.40319,6.73134 8.9682,7.12519 -1.12247,1.0163 -24.09715,3.73135 -41.7909,4.93868 -25.50329,1.74021 -26.72242,1.77073 -37,0.92646 z m 105,-76.36446 c -32.72973,-7.08609 -80.54998,-16.90926 -90.28755,-18.54675 -12.07069,-2.02984 -11.75982,-1.83251 -10.10336,-6.41335 1.51634,-4.19336 1.03366,-4.13249 11.89091,-1.49962 7.56229,1.83384 34.71961,7.45814 89,18.43196 21.39032,4.32446 22.23105,4.64245 21.81561,8.25124 -0.43959,3.81853 -3.80159,3.78486 -22.31561,-0.22348 z m -15.9057,-28.59196 c -52.23813,-8.75043 -43.16852,-87.18329 9.80018,-84.75077 49.22043,2.26038 54.1062,74.11507 5.73659,84.36751 -7.31466,1.55042 -8.40806,1.57739 -15.53677,0.38326 z M 203.38953,307.25573 c -6.59986,-4.49154 -8.15177,-32.96214 -2.49393,-45.75262 4.17322,-9.43426 10.90591,-3.00449 13.10734,12.5176 2.51842,17.75716 -3.88634,37.81312 -10.61341,33.23502 z"
         id="path791"
         sodipodi:nodetypes="ssssssssscccccsssssssssssssssssssssscsscsssssssssssscsssssssssssssssssssscsssssssssssssscssssscsssssssssssssssssssssssssssssssssssssssscsssssscsscsscsssssssssssssssssssss" />
      <path
         style="fill:#4a6674"
         d="M 862.71754,1018.25 C 843.46439,985.94854 824.09975,935.08605 814.50622,891.61978 812.54941,882.7539 810.285,873.31082 809.47419,870.63517 808.66339,867.95951 808,864.12221 808,862.10784 c 0,-2.01437 -0.88043,-9.9502 -1.95652,-17.63517 -1.07608,-7.68497 -2.26332,-18.10433 -2.6383,-23.15414 l -0.68179,-9.18147 c 0,0 9.63128,-12.90939 26.21115,-6.19624 23.44466,9.49269 52.30643,20.44931 101.56546,38.55669 6.6,2.42613 20.55,7.4161 31,11.08884 10.45,3.67273 23.725,8.34653 29.5,10.38623 5.775,2.03969 15.5625,5.39248 21.75,7.45065 l 11.25,3.74213 V 950.58268 1024 H 945.0724 866.14481 Z M 1002.0114,830.27248 c -11.81876,-3.97513 -22.61876,-7.64251 -24.00002,-8.14973 -1.38126,-0.50722 -4.98638,-1.84426 -8.01138,-2.97119 -3.025,-1.12694 -20.35,-7.4371 -38.5,-14.02258 -18.15,-6.58549 -38.4,-14.06742 -45,-16.62652 -61.8816,-23.99411 -56.48675,-21.54977 -56.2122,-25.46911 0.11671,-1.66616 0.59784,-3.03027 1.06919,-3.03136 0.47134,-10e-4 0.59797,-0.67699 0.28138,-1.50199 -0.31658,-0.825 -0.17042,-1.5 0.3248,-1.5 1.1748,0 4.41484,-14.57253 3.67102,-16.5109 C 835.31991,739.67009 835.49865,739 836.03138,739 836.56412,739 837,738.325 837,737.5 c 0,-0.825 0.12616,-1.5 0.28036,-1.5 0.73422,0 17.39415,7.34851 27.21964,12.00627 36.66695,17.38195 142.113,56.88206 155.8245,58.37192 l 3.1755,0.34504 0.2912,8.18587 c 0.1602,4.50222 0.1602,11.427 0,15.38838 L 1023.5,837.5 Z m -317.43718,-29.2124 c -1.43551,0.27441 -0.96526,0.0674 -2.23236,0.46956 -1.30837,0.41526 -10.31167,-4.23935 -10.82507,-5.04694 -0.83705,-1.31669 -13.69466,-14.80524 -15.33379,-14.18942 -1.62595,0.61086 1.48064,-5.32028 -2.59321,-13.5694 -3.86198,-7.8201 -13.76706,-5.68602 -20.17983,-5.70914 -8.95003,-0.0323 -26.13042,5.87648 -28.28601,9.72823 C 603.45637,775.72269 602,769.95407 602,760.36916 c 0,-11.26003 -0.32763,-11.698 -13.339,-17.83152 -77.85321,-36.69976 -90.30732,-47.03656 -99.27793,-82.39975 -5.94834,-23.44904 -3.33589,-30.19037 9.1745,-23.67455 4.91834,2.56162 14.79243,7.39832 21.94243,10.74821 7.15,3.3499 14.63806,7.12215 16.64014,8.38278 2.00208,1.26063 3.91458,2.01762 4.25,1.6822 0.33542,-0.33543 0.60986,1.23299 0.60986,3.48537 0,6.99063 4.50149,9.55339 10.97743,6.24962 4.86904,-2.48401 5.73378,-2.12119 6.6105,2.77356 1.29666,7.23931 8.00792,9.82213 13.09762,5.04061 C 573.9585,673.62981 575,673.14241 575,673.74257 575,674.73549 621.90088,699 623.82011,699 c 0.45267,0 3.81742,-2.38615 7.47723,-5.30257 49.43637,-39.39464 123.72513,-0.92251 108.29654,56.08385 l -1.42936,5.28128 8.91774,4.47875 c 4.90476,2.46332 8.91774,4.94217 8.91774,5.50856 0,4.60941 -11.8321,14.9379 -19.57776,20.76042 -3.19745,2.40357 -24.73016,10.22602 -25.20296,10.72503 -0.93195,0.9836 -25.2867,4.26509 -26.64506,4.52476 z m 23.91523,-67.28185 c -2.5019,-16.68388 -23.67098,-25.87972 -41.58896,-18.06624 l -4.31744,1.88271 6.95847,3.95265 c 5.37531,3.05336 8.42588,4.08828 13.40813,4.5488 5.98198,0.55293 6.71374,0.89374 10.09154,4.70005 3.70399,4.17387 13.76605,9.56633 15.28817,8.19323 0.45615,-0.41148 0.52819,-2.75653 0.16009,-5.2112 z M 626,622.32148 c -1.925,-0.83345 -3.57695,-1.58619 -3.67101,-1.67276 -0.74849,-0.68893 19.38942,-72.49362 20.76576,-74.04336 0.437,-0.49206 1.07674,0.40794 1.42165,2 3.9589,18.27381 20.71797,55.87156 29.70662,66.64464 5.20276,6.23562 3.36716,6.05603 -3.64982,-0.35709 -8.29387,-7.58013 -20.71424,-27.63804 -23.16795,-37.41439 -2.17351,-8.65996 -3.95779,-5.69868 -9.05095,15.02148 -6.72067,27.34126 -7.82589,31.49722 -8.3543,31.41482 -0.275,-0.0429 -2.075,-0.75988 -4,-1.59334 z m -39.32118,-28.53594 c 2.24517,-30.2675 8.37437,-73.14866 13.26302,-92.79079 12.47585,-50.12683 70.37882,-38.04216 110.22831,23.00525 11.41519,17.4875 11.34403,17.46768 -5.63495,-1.56964 -51.35123,-57.57647 -87.44114,-63.10971 -99.04702,-15.18573 -2.80801,11.59506 -6.87338,35.56329 -8.43925,49.75537 -1.95894,17.75453 -4.82365,33.87366 -6.68909,37.63802 -2.80592,5.6622 -4.14132,5.35294 -3.68102,-0.85248 z M 515.25,530.55841 c -3.1006,-4.86499 -3.27119,-4.65081 6.78354,-8.51739 22.86429,-8.79254 26.34554,-16.03933 31.37612,-65.31455 1.63545,-16.01945 2.15847,-16.54538 2.99551,-3.01217 3.14195,50.79843 -1.10908,64.11413 -23.91772,74.91869 -12.96272,6.1405 -14.4455,6.30612 -17.23745,1.92542 z M 345.25634,433.98524 c -12.02021,-1.75419 -15.45489,-4.43829 -21.77015,-17.01274 -9.21716,-18.35247 -14.70953,-33.86756 -25.05374,-70.77301 -1.2796,-4.56527 -3.21292,-10.66955 -4.29626,-13.56505 C 291.0447,324.37171 286,306.45653 286,303.74051 v -2.46104 l 15.12003,-0.71971 c 8.31601,-0.39584 15.47427,-0.34622 15.90725,0.11027 2.0116,2.12082 6.18927,14.27698 7.9346,23.08804 2.51503,12.69679 5.07539,19.23966 23.57385,60.24193 7.19931,15.95745 6.05202,15.38008 22.66736,11.40719 l 10.84361,-2.59282 6.25549,5.84282 c 9.37837,8.75967 20.11557,17.14914 30.45813,23.79834 10.48532,6.74097 10.47085,6.79478 -2.26032,8.40678 -26.61593,3.37005 -59.63311,4.81734 -71.24366,3.12293 z M 451.5,355.5457 c -8.8,-1.82358 -21.625,-4.52246 -28.5,-5.99751 -6.875,-1.47506 -19.25,-4.01602 -27.5,-5.64659 -8.25,-1.63057 -16.35,-3.38551 -18,-3.89987 -1.65,-0.51436 -7.05,-1.42541 -12,-2.02456 -9.65566,-1.16872 -10.92045,-1.71792 -9.92579,-4.30995 0.83145,-2.16674 2.48148,-2.10377 12.01583,0.45855 8.15134,2.19064 11.32906,2.85635 46.83926,9.81251 11.51112,2.25494 23.43612,4.73625 26.5,5.51403 3.06389,0.77778 11.19701,2.54065 18.07361,3.91749 13.77748,2.75853 15.99709,3.41582 15.99709,4.73719 0,1.60062 -7.20608,0.81522 -23.5,-2.56129 z m -12.18283,-28.04869 c -48.86968,-10.62306 -40.77958,-82.84265 8.99245,-80.27478 46.93141,2.42131 53.682,68.14297 8.19425,79.77678 -8.96884,2.29384 -8.93033,2.29273 -17.1867,0.498 z m 20.62409,-5.73689 c 19.58039,-6.8704 29.32667,-32.47908 19.76835,-51.94199 -7.90146,-16.08918 -30.36849,-23.85522 -46.76738,-16.1658 -43.1229,20.22027 -17.89496,83.86028 26.99903,68.10779 z M 423.91334,293.7182 c -9.16,-7.03283 -0.27017,-20.57392 10.01514,-15.25519 5.06482,2.61913 5.89316,10.95893 1.43666,14.46441 -2.94443,2.31609 -8.92706,2.72921 -11.4518,0.79078 z m -219.7099,9.97236 c -4.1173,-5.19934 -5.05302,-26.6693 -1.59908,-36.69056 3.21838,-9.33781 6.51245,-6.49464 8.42748,7.2739 2.11101,15.17763 -2.47142,34.91868 -6.8284,29.41666 z"
         id="path789"
         sodipodi:nodetypes="sssssscssssscccccsssssssssssssssscsscssssssssssssssssssssssscssssssscsssssssssssssssssssssssssssssssssscssssscssssssssssssssssssssssssssssssss" />
      <path
         style="fill:#6a8a9f"
         d="M 862.71754,1018.25 C 843.46439,985.94854 824.09975,935.08605 814.50622,891.61978 812.54941,882.7539 810.285,873.31082 809.47419,870.63517 808.66339,867.95951 808,864.12221 808,862.10784 c 0,-2.01437 -0.88043,-9.9502 -1.95652,-17.63517 -1.07608,-7.68497 -2.26261,-18.09487 -2.63672,-23.1331 l -2.19104,-9.87822 8.50976,-10.2145 c 6.34905,-7.62093 1.45981,-2.49266 19.20906,4.69397 23.44466,9.49269 177.62796,65.42424 183.81546,67.48241 l 11.25,3.74213 V 950.58268 1024 H 945.0724 866.14481 Z M 1002.0114,830.27248 c -11.81876,-3.97513 -22.61876,-7.64251 -24.00002,-8.14973 C 976.63012,821.61553 866.4,780.70818 856.5,776.86873 835.12781,768.58008 830,766.31626 830,765.16955 c 0,-0.47105 0.89114,-3.44659 1.98031,-6.61233 1.08918,-3.16573 2.6701,-9.3921 3.51316,-13.83637 0.84306,-4.44427 1.66985,-8.2175 1.83731,-8.38496 0.41524,-0.41524 15.25404,4.37875 28.59207,10.70163 36.66816,17.38252 135.82115,51.34894 148.69755,56.28284 l 8.8796,3.40244 0.2912,7.59112 c 0.1602,4.17511 0.1602,11.09998 0,15.3886 L 1023.5,837.5 Z M 692.5,803.35457 c -13.06328,-1.50562 -17.51808,-3.45664 -27,-11.82488 -3.85,-3.39781 -8.76759,-7.4945 -10.92798,-9.10376 -17.00017,-12.66333 -15.10565,-48.63672 3.25432,-61.79366 l 4.32635,-3.1003 6.51832,3.48269 c 7.92532,4.23443 8.12938,4.52008 4.5509,6.37059 -14.76067,7.63303 -16.57828,32.25838 -3.3569,45.47976 18.06588,18.06588 50.69614,12.40482 64.49443,-11.18919 l 3.85339,-6.589 8.89359,4.46663 c 9.84348,4.94369 9.757,4.80673 6.77952,10.73639 -10.72306,21.35507 -37.56057,35.81074 -61.38594,33.06473 z m -1.75203,-50.52753 c -2.70921,-0.97958 -5.07963,-5.88131 -3.15591,-6.52604 5.67545,-1.9021 7.92158,-3.96585 8.21831,-7.551 0.368,-4.44645 -0.19346,-4.33645 6.66112,-1.30503 6.71191,2.96833 7.06161,4.85231 1.95072,10.50945 -4.51936,5.0024 -8.94942,6.58099 -13.67424,4.87262 z M 569.43337,732.91605 C 517.69565,706.8445 511.39918,703.05545 504.59997,693.90102 495.13325,681.15506 487,657.66188 487,643.0629 c 0,-11.89822 0.66025,-12.27524 11.55757,-6.59956 4.91834,2.56162 14.79243,7.39832 21.94243,10.74821 17.8213,8.34958 20.36681,10.03438 19.78208,13.0932 -1.20609,6.30925 5.03891,11.22037 11.14428,8.76394 4.62402,-1.86042 5.96245,-1.76939 6.34142,0.43131 1.49551,8.68462 8.48212,12.23767 14.60038,7.42505 l 2.63787,-2.07495 24.42174,12.27604 24.42174,12.27605 -3.79474,4.5489 c -9.9624,11.94236 -15.56901,22.9215 -18.53641,36.29891 -0.94552,4.2625 -1.81644,7.75 -1.93537,7.75 -0.11894,0 -13.68627,-6.78778 -30.14962,-15.08395 z"
         id="path787"
         sodipodi:nodetypes="sssssscssscccccsssssssssscsscssssscsssscsssssssssssssssssscccssss" />
      <path
         style="fill:#5a7a94"
         d="m 917.60163,1022.8356 c 0.28402,-0.4596 -0.34368,-0.8356 -1.3949,-0.8356 -1.05121,0 -6.81527,-2.0555 -12.80901,-4.5677 -5.99375,-2.5123 -18.32272,-7.47 -27.39772,-11.0173 -21.74872,-8.50124 -23.04786,-9.20442 -25.70813,-13.915 -4.08038,-7.2252 -3.41047,-7.61347 6.20813,-3.59815 2.75,1.148 13.55,5.44207 24,9.54239 62.2629,24.43036 64.75108,25.74116 48.29261,25.44066 -6.43906,-0.1176 -11.475,-0.5898 -11.19098,-1.0493 z M 1006,1003.4228 c -7.975,-3.0068 -16.975,-6.33482 -20,-7.39559 -3.025,-1.06077 -10.9,-3.9249 -17.5,-6.36474 -6.6,-2.43985 -20.325,-7.44681 -30.5,-11.12659 -10.175,-3.67978 -22.1,-8.05735 -26.5,-9.72793 -4.4,-1.67059 -14.3,-5.29256 -22,-8.04884 -7.7,-2.75627 -18.725,-6.71743 -24.5,-8.80256 -5.775,-2.08513 -16.02583,-5.77027 -22.77963,-8.18919 -13.71082,-4.91064 -15.03219,-5.83287 -15.88475,-11.08661 -0.89544,-5.51797 -5.40717,-6.89987 76.42455,23.40809 C 910.05326,958.78998 916.23619,961 916.5,961 c 0.26381,0 6.44674,2.20775 13.73983,4.90612 47.46022,17.55978 71.58387,26.42892 80.73977,29.68423 12.085,4.29673 13.0204,5.00355 13.0204,9.83825 0,4.6906 -0.3397,4.6527 -18,-2.0058 z m 10.4418,-56.43484 c -2.718,-0.92329 -9.2168,-3.29127 -14.4418,-5.26217 -5.225,-1.97091 -15.35,-5.67043 -22.5,-8.22117 -12.32533,-4.39701 -18.67303,-6.71549 -64,-23.37577 -10.45,-3.84098 -28.45,-10.42347 -40,-14.62774 -11.55,-4.20428 -23.7,-8.6755 -27,-9.93604 -3.3,-1.26054 -12.525,-4.69162 -20.5,-7.62461 -16.08722,-5.91647 -17.59562,-6.82283 -18.54448,-11.14299 -1.18152,-5.3794 0.41561,-5.31145 16.68359,0.70986 43.08949,15.94881 55.91547,20.65092 140.67087,51.57111 59.85242,21.83517 57.19002,20.63048 57.19002,25.87734 0,4.27969 -0.5257,4.42104 -7.5582,2.03218 z"
         id="path785" />
    </g>
  </g>
</svg>
