<?xml version="1.0" encoding="UTF-8" standalone="no"?>
<!-- Created with Inkscape (http://www.inkscape.org/) -->

<svg
   version="1.1"
   id="svg73"
   width="725.05786"
   height="669.73218"
   viewBox="0 0 725.05786 669.73218"
   sodipodi:docname="reporte-de-la-cartea-vectorizable.png"
   xmlns:inkscape="http://www.inkscape.org/namespaces/inkscape"
   xmlns:sodipodi="http://sodipodi.sourceforge.net/DTD/sodipodi-0.dtd"
   xmlns="http://www.w3.org/2000/svg"
   xmlns:svg="http://www.w3.org/2000/svg">
  <defs
     id="defs77" />
  <sodipodi:namedview
     id="namedview75"
     pagecolor="#ffffff"
     bordercolor="#000000"
     borderopacity="0.25"
     inkscape:showpageshadow="2"
     inkscape:pageopacity="0.0"
     inkscape:pagecheckerboard="0"
     inkscape:deskcolor="#d1d1d1"
     showgrid="false" />
  <g
     inkscape:groupmode="layer"
     inkscape:label="Image"
     id="g79"
     transform="translate(-141.08241,-150.67887)">
    <g
       id="g516"
       transform="translate(-8.3597248,-25.985959)">
      <path
         style="fill:#a0b8c8"
         d="m 267,846.02522 c -28.20387,-2.31598 -57.47125,-15.89001 -78.3273,-36.3277 -27.91004,-27.35019 -42.21035,-71.17341 -38.71038,-118.62779 1.16614,-15.81115 3.23406,-29.94724 7.98281,-54.56973 3.63579,-18.85173 4.57572,-26.7097 7.0573,-59 5.3986,-70.24666 14.83351,-110.92193 35.14148,-151.5 12.63276,-25.24197 24.60386,-42.58358 41.3261,-59.86595 24.38895,-25.20587 51.18348,-42.47323 91.74783,-59.1256 C 341.65797,303.54363 345,299.92225 345,294.24144 c 0,-4.84554 -4.47949,-20.74881 -10.52084,-37.35151 -12.06213,-33.14888 -14.898,-49.5742 -10.54289,-61.06418 2.55601,-6.74346 8.51623,-13.25368 14.59624,-15.94315 17.19727,-7.60718 50.93886,-1.37217 81.79256,15.1142 11.88932,6.35295 24.68918,16.10603 38.31368,29.1938 14.82035,14.23651 14.12337,13.91504 29.36125,13.54198 8.10915,-0.19853 10.23203,0.10433 14.5,2.06864 7.9163,3.64344 11.14194,7.52911 18.01294,21.69878 l 6.30383,13 16.89923,17 c 9.5506,9.60754 17.74388,18.7394 18.84162,21 1.29956,2.67621 1.95153,6.15115 1.97004,10.5 0.0152,3.575 0.62826,7.57737 1.36233,8.89416 8.07977,14.49356 -36.38733,64.21534 -81.05965,90.63847 -12.80102,7.57165 -22.27244,14.11155 -25.55196,17.64335 l -2.22162,2.39251 16.22162,9.60991 c 26.58817,15.7512 25.32585,15.13802 29.90047,14.52444 2.81091,-0.37703 5.20193,-1.62078 7.69912,-4.0049 4.29504,-4.10058 25.5069,-20.695 47.12203,-36.8644 16.76744,-12.54305 20.66279,-16.02962 25.07697,-22.44542 1.57943,-2.29562 5.69575,-6.72944 9.14736,-9.85293 l 6.27567,-5.67907 0.18564,-76.17806 c 0.1021,-41.89793 0.2146,-78.09215 0.25,-80.43159 L 599,226.99293 736.75,227.24647 874.5,227.5 v 219 219 h -138 -138 V 553.7062 441.9124 l -2.17783,-0.54649 c -1.1978,-0.30058 -3.14228,-0.24039 -4.32105,0.13374 -1.17878,0.37412 -11.22375,9.47914 -22.32217,20.23338 -32.60828,31.597 -45.159,42.2927 -54.59619,46.52671 -9.95818,4.46776 -22.93712,0.90677 -57.98659,-15.90957 C 447.52407,487.75757 439.3388,484 438.90669,484 c -0.43212,0 -1.9528,3.9375 -3.37931,8.75 -4.58587,15.47103 -10.56448,31.455 -16.1769,43.24935 l -5.47203,11.49934 2.40174,2.00066 c 1.32095,1.10036 8.19513,6.95065 15.27595,13.00065 7.08082,6.05 13.94797,11.85602 15.26034,12.90226 1.31237,1.04625 6.13301,2.6679 10.71255,3.60367 l 8.32643,1.70141 -2.00051,-5.10367 C 462.75468,572.79665 459.9112,566 457.53611,560.5 c -9.20639,-21.3193 -10.74294,-25.53978 -10.15343,-27.88859 0.34993,-1.39422 -0.37442,-4.70931 -1.78836,-8.18468 -2.74494,-6.74692 -2.27888,-9.30566 2.00868,-11.02796 4.613,-1.85302 6.88559,-0.29656 9.53201,6.52835 1.29514,3.34008 2.91578,6.07288 3.60142,6.07288 0.68564,0 1.80187,0.8891 2.48051,1.97577 0.98379,1.57529 1.95106,1.86109 4.77204,1.41 2.68018,-0.42858 3.92262,-0.11959 5.12368,1.27423 1.96473,2.28005 17.88734,39.27555 17.88734,41.56047 0,0.91382 -0.40939,1.91451 -0.90976,2.22376 -2.01491,1.24528 -4.06466,-0.90664 -6.45085,-6.77242 -6.97964,-17.15743 -12.7383,-29.20404 -14.09828,-29.49233 -1.62763,-0.34503 -1.51415,-0.0463 10.32561,27.18453 3.31539,7.62521 6.16417,13.94427 6.33063,14.04235 0.16646,0.0981 2.55265,0.74972 5.30265,1.44811 7.94813,2.01849 13.21221,8.3693 12.18482,14.70031 -0.42137,2.59662 -0.0157,3.71489 2.02981,5.59522 5.92498,5.44654 8.28537,9.87524 8.28537,15.54549 0,4.39514 -0.45506,5.85048 -2.45455,7.84996 -1.35,1.35 -3.15,2.45455 -4,2.45455 -0.85,0 -1.54545,0.11457 -1.54545,0.2546 0,0.14003 2.49753,6.32753 5.55006,13.75 4.53235,11.02079 5.90567,15.78749 7.4894,25.9954 2.32951,15.01475 2.39335,17 0.54663,17 -0.77765,0 -5.43593,-4.96695 -10.35175,-11.03767 -7.80219,-9.63521 -9.66901,-12.74724 -14.69231,-24.49246 l -5.75447,-13.45479 -2.67755,1.90658 c -6.07501,4.3258 -15.35194,3.43885 -21.62314,-2.06733 C 461.80777,632.50205 461,631.01689 461,628.44341 c 0,-3.01861 -0.37035,-3.45225 -3.75,-4.39083 -2.0625,-0.57278 -4.24062,-1.04394 -4.84028,-1.047 -0.59965,-0.003 -3.84046,-1.37986 -7.20179,-3.05954 -4.27444,-2.13596 -6.77502,-4.16495 -8.31888,-6.75 -1.21405,-2.03282 -3.37325,-4.99283 -4.79821,-6.57779 C 429.62549,603.87608 394.69326,580 393.14664,580 c -0.40535,0 -3.03969,3.31224 -5.85408,7.36054 l -5.11708,7.36053 8.62464,7.38947 C 417.7228,625.17751 425.4432,647.56442 433.52491,726 c 1.44508,14.025 3.15565,27.75 3.80126,30.5 1.67953,7.15405 4.02589,8.06155 25.67383,9.92982 20.59463,1.77737 24.01375,2.60937 27.43572,6.67616 2.60419,3.0949 3.38232,7.27041 1.56428,8.39402 -1.7499,1.0815 -1.09373,2.24715 2.43795,4.33089 1.89087,1.11564 4.14937,3.40419 5.0189,5.08566 1.40146,2.71014 1.41599,3.45203 0.12795,6.53475 -2.01618,4.82538 -5.07813,5.38509 -12.03528,2.2 L 482,797.11065 v 3.74467 c 0,2.05958 -0.54,4.28468 -1.2,4.94468 -2.19958,2.19958 -8.20559,1.23988 -17.35656,-2.77343 -10.90568,-4.78286 -19.72766,-6.74842 -36.34506,-8.0978 -14.22412,-1.15503 -20.14176,-3.15984 -22.40689,-7.59113 -0.79777,-1.5607 -2.43585,-8.83794 -3.64017,-16.17163 C 398.84943,757.75754 390.61981,727.77238 378.36311,688.5 371.84996,667.63083 366.78419,655 364.92748,655 c -0.5337,0 -2.66328,1.12032 -4.7324,2.4896 -7.70145,5.09658 -18.51081,6.96663 -49.19508,8.51089 -26.62647,1.34005 -36.88831,3.28417 -49.31863,9.34351 -14.34395,6.99217 -24.73401,17.02714 -31.22306,30.156 -9.67411,19.57297 -9.93535,42.39805 -0.70112,61.25682 6.47248,13.21852 22.32308,26.99895 35.9607,31.26406 31.23821,9.76959 64.4412,-6.39893 72.82172,-35.46125 1.28859,-4.46863 1.59148,-8.26342 1.22254,-15.31687 -0.43742,-8.36265 -0.90095,-10.18523 -4.28687,-16.85604 -6.85143,-13.49838 -18.58146,-21.48146 -31.97528,-21.76134 -11.75585,-0.24566 -21.65022,5.0924 -25.61387,13.81881 -2.40872,5.30306 -2.47468,14.87818 -0.13458,19.53588 C 281.36153,749.16529 291.4926,752.5074 296,748 c 3.0232,-3.0232 2.63746,-6 -0.77749,-6 -1.52763,0 -3.8292,-0.73664 -5.11462,-1.63698 -2.03184,-1.42316 -2.26968,-2.23531 -1.82082,-6.21756 1.66579,-14.77885 23.83794,-14.5693 31.24528,0.2953 3.07107,6.16284 3.38332,16.52247 0.7226,23.97425 -5.08462,14.24028 -22.56686,23.65072 -38.77831,20.87381 -18.21955,-3.12087 -32.9392,-16.4221 -36.93556,-33.37634 -1.9335,-8.20269 -1.92302,-13.14772 0.0481,-22.69044 2.88263,-13.95573 10.64502,-26.44414 21.58775,-34.73116 12.25773,-9.28288 24.89142,-13.45133 40.84318,-13.4761 32.00577,-0.0497 61.00133,23.34419 69.39093,55.98522 2.36289,9.19319 3.15074,26.2186 1.64515,35.55166 -4.56868,28.3211 -22.05551,52.55923 -48.23942,66.86368 -17.75927,9.70201 -41.12022,14.3915 -62.81676,12.60988 z M 852.8984,631 852.8113,618 h -4.90564 -4.90564 v 2.92327 c 0,4.37275 -4.38127,9.07673 -8.45403,9.07673 -3.98263,0 -8.53168,-3.35019 -8.58511,-6.32258 -0.0321,-1.78361 -0.28864,-1.60387 -1.41862,0.99384 -3.04747,7.00579 -12.3079,7.32653 -15.98344,0.5536 -0.9947,-1.83295 -1.49183,-2.1758 -1.51876,-1.04744 C 806.98321,626.55819 802.23063,630 799,630 c -3.23501,0 -7.98732,-3.44574 -8.03041,-5.82258 -0.0251,-1.38404 -0.22278,-1.32762 -1.13027,0.32258 -3.85373,7.00762 -12.65825,7.39963 -16.28052,0.72486 -0.9947,-1.83295 -1.49183,-2.1758 -1.51876,-1.04744 C 771.98321,626.55819 767.23063,630 764,630 c -4.15688,0 -7.8962,-3.4987 -8.62757,-8.07239 L 754.74438,618 h -53.93121 c -36.38893,0 -53.72625,0.33163 -53.30109,1.01955 1.01534,1.64285 -1.47798,7.84316 -3.81111,9.47735 C 638.40674,632.20512 630,627.65232 630,621.07692 V 618 h -4.5 -4.5 v 13 13 h 115.99276 115.99276 l -0.0871,-13 z M 630.35703,606.16871 c 0.71664,-4.48162 3.02742,-6.8956 7.44691,-7.7795 4.61056,-0.92211 7.91503,1.60907 9.30448,7.1271 L 648.23743,610 H 701.61871 755 l 0.004,-2.25 c 0.006,-3.45671 3.63137,-8.62031 6.57076,-9.35806 3.34323,-0.83909 9.02499,1.77082 9.90737,4.55094 0.61154,1.9268 0.86133,1.83563 3.95354,-1.44307 4.34595,-4.60805 7.74785,-4.64557 12.00433,-0.13238 l 3.17589,3.36742 1.62507,-2.83153 c 2.92806,-5.10185 10.59054,-5.10185 13.5186,0 l 1.62507,2.83153 3.17589,-3.36742 c 4.91149,-5.2077 10.26165,-4.42571 13.61476,1.98994 l 1.49339,2.85738 1.23338,-2.97766 c 1.24424,-3.00386 4.66008,-5.23709 8.0104,-5.23709 3.32121,0 7.04808,3.89933 7.71538,8.07239 L 843.25588,610 h 4.71203 4.71203 l 0.22173,-17 0.22173,-17 h -4.95028 -4.95028 l -0.6959,3.75 c -0.78376,4.22342 -2.93039,7.06031 -6.32451,8.3582 -3.07497,1.17584 -8.79437,-1.24796 -9.70344,-4.11219 l -0.69399,-2.18657 -2.75304,3.2977 c -2.22393,2.6639 -3.4414,3.27819 -6.33461,3.19618 -4.41986,-0.12529 -5.37687,-0.69775 -7.7944,-4.66243 -1.06579,-1.74786 -1.91687,-2.44837 -1.91895,-1.57945 -0.007,3.05329 -3.8717,5.93856 -7.9538,5.93856 -3.05175,0 -4.39306,-0.61906 -6.33075,-2.92187 l -2.45859,-2.92188 -2.16024,2.92188 C 786.28281,587.53685 785.24332,588 781.5428,588 c -3.74224,0 -4.76414,-0.46837 -6.85731,-3.14294 l -2.45972,-3.14294 -0.68048,2.144 c -1.48304,4.67264 -9.11101,5.8377 -13.18185,2.01335 -1.33413,-1.25336 -2.67214,-3.95143 -3.01126,-6.07216 l -0.61029,-3.81656 -53.55535,0.25863 -53.55535,0.25862 -0.39562,3.46552 c -0.57444,5.03179 -1.87169,6.88015 -5.50839,7.84848 C 635.42367,589.49235 630,585.20762 630,578.54966 630,576.19451 629.65671,576 625.5,576 H 621 v 17 17 h 4.37219 4.37219 z M 630,565.95034 c 0,-6.26422 7.22132,-11.50124 12.20103,-8.84839 3.08215,1.64196 4.53371,3.74719 5.27336,7.64805 l 0.61624,3.25 h 53.24728 53.24728 l 1.21845,-4.55564 c 1.00236,-3.74771 1.82729,-4.81003 4.65151,-5.99007 1.88818,-0.78893 4.24571,-1.14683 5.23895,-0.79534 2.69244,0.95281 6.3059,4.48453 6.3059,6.16325 0,0.81046 1.0125,-0.0245 2.25,-1.85559 3.85425,-5.70285 10.77831,-5.90542 14.37219,-0.42047 l 1.72679,2.63542 1.315,-2.50976 c 1.92587,-3.67566 7.36329,-5.22618 11.2603,-3.21096 1.73354,0.89645 3.32628,2.68928 3.69528,4.15951 l 0.64854,2.58398 1.96836,-3.10882 c 3.49882,-5.52601 10.83501,-5.62612 14.48124,-0.19763 1.25526,1.86884 2.2823,2.73478 2.2823,1.92432 0,-1.84268 3.78074,-5.37444 6.70002,-6.25879 3.91495,-1.18597 8.1723,1.9305 9.51981,6.9687 L 843.41481,568 h 4.57322 4.57323 l 0.27234,-16.5 0.27234,-16.5 h -4.92516 -4.92516 l -0.62805,3.92761 C 841.8962,543.5013 838.15688,547 834,547 c -3.13798,0 -8,-3.43003 -8,-5.64378 0,-0.92126 -1.2976,-0.12277 -3.36808,2.07258 -2.2834,2.42111 -4.25816,3.5712 -6.13192,3.5712 -1.87376,0 -3.84852,-1.15009 -6.13192,-3.5712 C 808.51563,541.46464 807,540.36009 807,540.97425 c 0,0.61416 -1.10455,2.2212 -2.45455,3.5712 -3.51503,3.51504 -7.88846,3.26539 -11.8291,-0.67526 -1.7793,-1.7793 -3.29488,-2.63459 -3.51237,-1.98214 -0.66559,1.99677 -3.25489,4.08662 -5.87943,4.74534 -3.291,0.82599 -8.94496,-1.86205 -9.83855,-4.67749 l -0.68491,-2.15796 -1.83155,3.01174 c -4.29927,7.0696 -14.25139,4.53359 -15.61251,-3.97839 L 754.74438,535 H 701.5 648.25562 l -0.61265,3.83129 c -0.97591,6.10302 -6.33177,9.37813 -11.88411,7.26713 C 632.92007,545.01911 630,540.43087 630,537.04966 630,535.2871 629.36968,535 625.5,535 H 621 v 16.5 16.5 h 4.5 c 3.86968,0 4.5,-0.2871 4.5,-2.04966 z m 0,-42.02726 C 630,519.81799 634.74517,515 638.78822,515 c 4.35244,0 8.09506,3.41789 8.83935,8.07239 L 648.25562,527 H 701.62781 755 v -3.07692 c 0,-4.2059 4.74121,-8.92308 8.96853,-8.92308 3.01061,0 8.03147,3.65996 8.03147,5.85455 0,0.52 1.53,-0.58455 3.4,-2.45455 5.1266,-5.1266 9.84736,-4.5946 13.9537,1.57251 0.90546,1.35987 1.6463,1.90192 1.6463,1.20454 0,-2.3288 4.817,-6.17705 7.73204,-6.17705 3.39368,0 7.11986,2.42542 8.19618,5.335 l 0.78461,2.121 1.6066,-3.10682 c 3.21974,-6.22628 11.64045,-5.98908 15.12177,0.42596 0.9947,1.83295 1.49183,2.1758 1.51876,1.04744 0.0601,-2.51823 4.88424,-5.82258 8.50058,-5.82258 4.04724,0 7.41238,3.44206 8.21787,8.40573 l 0.59922,3.69251 4.42509,-0.29912 4.42509,-0.29912 0.35616,-7 c 0.19588,-3.85 0.1028,-11.3875 -0.20686,-16.75 L 851.71409,493 h -4.35704 C 843.35357,493 843,493.2069 843,495.54966 c 0,6.44462 -5.97004,11.55283 -11.1848,9.57018 -1.40391,-0.53377 -3.51795,-2.19778 -4.69788,-3.69782 -1.17993,-1.50004 -2.25153,-2.54615 -2.38132,-2.32468 -0.1298,0.22146 -0.72751,1.30266 -1.32824,2.40266 -0.60073,1.1 -2.30416,2.59469 -3.7854,3.32153 -3.66937,1.80056 -7.53997,0.38384 -10.37236,-3.79651 -1.2375,-1.82643 -2.25,-2.65768 -2.25,-1.84722 0,2.06008 -3.96888,5.54212 -7.24328,6.35479 -2.26627,0.56246 -3.33588,0.0882 -6.15137,-2.72724 l -3.40809,-3.40809 -2.34863,2.9058 c -3.30791,4.09265 -9.20502,4.11425 -12.81459,0.0469 l -2.52925,-2.85 -2.59591,2.91667 c -5.05036,5.6744 -13.00686,2.62571 -14.3031,-5.4805 L 754.97636,493 H 701.48818 648 v 2.54966 c 0,6.78215 -6.04281,11.29863 -12.28038,9.17853 C 632.63168,503.67863 630,499.45545 630,495.54966 630,493.19451 629.65671,493 625.5,493 H 621 v 17 17 h 4.5 4.5 z m 0,-40.97274 c 0,-3.49851 2.76441,-7.61012 6.02454,-8.96051 2.65479,-1.09964 3.6289,-1.04865 6.5466,0.3427 2.74534,1.30917 3.66822,2.53372 4.6357,6.15102 L 648.41481,485 H 701.5 754.58519 l 1.20797,-4.51645 c 0.95506,-3.57088 1.9004,-4.84664 4.51539,-6.09364 2.98068,-1.42139 3.66865,-1.42628 6.96385,-0.0495 2.47378,1.03362 3.86967,2.37743 4.31575,4.15474 l 0.65933,2.62699 1.87672,-3.08601 c 3.67348,-6.04056 10.50433,-6.14336 14.51977,-0.21854 l 2.14396,3.16345 0.64163,-2.55644 c 0.42414,-1.68992 1.85985,-3.06544 4.23571,-4.05814 4.65356,-1.94438 9.02186,-0.34021 10.83847,3.98022 l 1.26329,3.00448 1.5861,-3.06718 c 3.12227,-6.03782 11.03834,-6.24879 14.40433,-0.3839 l 1.67481,2.91819 1.78433,-2.93408 c 4.47179,-7.35327 14.05148,-5.31362 15.42637,3.28448 l 0.61265,3.83129 4.62219,-2e-5 4.62219,-2e-5 v -16.74998 -16.74998 l -4.75,-0.30479 c -4.24664,-0.27249 -4.75,-0.0836 -4.75,1.78212 0,4.12654 -2.69193,8.65242 -5.9487,10.00142 -2.73584,1.13322 -3.67484,1.09433 -6.53755,-0.2708 -1.83856,-0.87675 -3.63659,-2.51962 -3.99562,-3.65083 -0.60918,-1.91935 -0.88131,-1.81444 -4.07365,1.57043 -2.97996,3.15968 -3.84127,3.54663 -6.68267,3.00229 -1.794,-0.34368 -4.42332,-1.89805 -5.84295,-3.45414 l -2.58113,-2.82927 -1.56347,2.72418 c -3.02345,5.26807 -11.93195,4.62118 -14.06166,-1.02107 l -1.10639,-2.93114 -1.80356,2.96572 c -3.43985,5.65638 -10.16816,6.04566 -14.03746,0.81216 l -2.1115,-2.85596 -1.75411,2.88441 c -3.33388,5.48213 -13.0071,4.47939 -14.50883,-1.50401 l -0.63823,-2.5429 -1.87672,3.08601 c -4.70915,7.74358 -14.30501,5.48614 -15.80055,-3.7171 L 737.4664,451.5 692.7332,451.2397 648,450.97941 v 2.55995 c 0,6.88543 -6.29921,11.82199 -12.04716,9.44111 C 632.58977,461.58743 630,457.48459 630,453.54966 630,451.19451 629.65671,451 625.5,451 H 621 v 17 17 h 4.5 c 3.86968,0 4.5,-0.2871 4.5,-2.04966 z M 738,439.95455 C 738,435.87983 741.91189,432 746.02029,432 c 4.32321,0 6.90669,1.61543 8.52195,5.32874 0.85123,1.95688 1.39447,2.48372 1.41862,1.37581 0.0654,-2.99831 4.5868,-6.70455 8.17923,-6.70455 3.50394,0 7.85737,3.27979 7.86365,5.92431 0.002,0.87887 0.87283,0.1503 1.96898,-1.64747 3.46163,-5.67737 11.05504,-5.87252 14.74498,-0.37896 1.25526,1.86884 2.2823,2.79784 2.2823,2.06445 0,-0.73338 0.97844,-2.37493 2.17431,-3.64788 3.25798,-3.46795 8.91072,-3.19054 12.09483,0.59356 l 2.44693,2.90801 2.55174,-2.90801 c 3.35787,-3.8267 8.70685,-4.02426 12.27764,-0.45346 1.35,1.35 2.45455,2.99154 2.45455,3.64788 0,0.65633 1.02698,-0.33571 2.28217,-2.20455 4.47463,-6.6622 13.7874,-4.37439 15.31381,3.76205 L 843.22258,443 h 4.71388 4.71388 l 0.21963,-16.5 0.21962,-16.5 h -4.91699 -4.91698 l -0.62805,3.92761 c -1.4186,8.87139 -11.87897,11.01782 -16.06877,3.29725 -0.8133,-1.49867 -1.49674,-2.14191 -1.51876,-1.42941 C 824.95565,418.52584 820.17376,422 816.5,422 c -3.68937,0 -8.49595,-3.50701 -8.50374,-6.20455 -0.002,-0.7125 -0.8881,0.15497 -1.96898,1.92771 -3.43753,5.63783 -10.61703,5.63783 -14.05456,0 -1.08088,-1.77274 -1.96693,-2.72637 -1.96898,-2.11918 -0.002,0.60718 -1.10725,2.29468 -2.45599,3.75 -3.55043,3.83097 -7.82831,3.56546 -12.14775,-0.75398 -1.87,-1.87 -3.4,-2.80266 -3.4,-2.07258 0,2.06999 -4.97403,5.47258 -8,5.47258 -4.15688,0 -7.8962,-3.4987 -8.62757,-8.07239 L 754.74438,410 H 712.37219 670 v 3.07692 C 670,417.17564 665.25459,422 661.22295,422 656.88555,422 653,417.97471 653,413.48133 c 0,-3.35278 -0.1989,-3.59129 -2.75,-3.29775 -2.34071,0.26933 -2.79782,0.83733 -3.0713,3.81642 -0.17671,1.925 -0.73921,3.9275 -1.25,4.45 -1.38065,1.41232 -1.12577,2.55 0.5713,2.55 2.27236,0 5.5,3.70469 5.5,6.31291 0,1.2721 -1.29432,3.55295 -2.87627,5.06855 -2.66668,2.55484 -2.80355,3.04212 -1.87836,6.68709 L 648.24328,443 H 693.12164 738 Z m -104.19712,-16.30348 3.30287,-1.19677 -3.0449,-2.25119 c -2.17584,-1.60867 -3.22637,-3.38599 -3.68069,-6.22715 L 629.74438,410 H 625.37219 621 v 7.5 7.5 l 4.75,-0.0761 c 2.6125,-0.0418 6.23629,-0.61462 8.05288,-1.27285 z M 653.01531,399.25 c 0.008,-1.5125 0.44194,-3.42489 0.96338,-4.24976 1.12533,-1.78019 -0.85242,-2.82256 -5.55915,-2.92995 L 645.33909,392 l 1.5343,5 c 1.25899,4.10283 1.94631,5 3.83045,5 1.83452,0 2.29924,-0.55288 2.31147,-2.75 z m 102.37424,-0.44773 c 0.98872,-4.94364 3.253,-7.64459 6.99759,-8.34707 4.31919,-0.81029 7.40385,0.8181 9.07397,4.79015 1.212,2.88248 1.34354,2.94549 1.97773,0.94734 0.93278,-2.93891 5.30847,-6.19269 8.32794,-6.19269 1.55835,0 3.73791,1.31568 5.79781,3.49981 3.05451,3.23872 3.34836,3.34981 3.93895,1.48904 0.35101,-1.10593 1.98915,-2.70939 3.64032,-3.56324 4.06357,-2.10136 8.61068,-1.01538 10.65372,2.54442 l 1.58679,2.76482 3.17589,-3.36742 C 812.87123,390.91709 814.60148,390 816.91353,390 c 3.54587,0 8.07167,3.74183 8.10924,6.70455 0.0149,1.17575 0.55352,0.7196 1.56052,-1.32161 1.55609,-3.15424 5.00451,-5.38294 8.3289,-5.38294 3.32121,0 7.04808,3.89933 7.71538,8.07239 L 843.25562,402 h 4.96716 4.96717 L 852.84497,385.25 852.5,368.5 l -4.75,-0.30479 c -4.1115,-0.26382 -4.75,-0.0486 -4.75,1.60078 0,1.04806 -0.5109,3.37112 -1.13532,5.16236 -2.22784,6.39078 -11.75988,7.34301 -14.89349,1.48782 l -1.31555,-2.45813 -2.67647,3.20598 c -2.15112,2.5767 -3.42288,3.20598 -6.47917,3.20598 -3.10408,0 -4.32604,-0.62688 -6.65135,-3.41223 -1.56676,-1.87672 -2.84865,-2.86672 -2.84865,-2.2 0,2.59028 -3.9796,5.21223 -7.91111,5.21223 -3.10816,0 -4.42352,-0.60897 -6.40707,-2.96629 l -2.49597,-2.96629 -1.64523,2.51092 C 783.61175,384.10076 773,379.90577 773,370.4349 V 368 h -45 -45 v 2.54966 c 0,6.65796 -5.42367,10.94269 -11.72692,9.26434 -3.59343,-0.95681 -4.76548,-2.59132 -5.79561,-8.08241 L 664.77742,368 H 656.38871 648 l -0.0136,2.25 c -0.008,1.2375 -0.26441,3.18375 -0.57088,4.32501 -0.49285,1.83535 0.1151,2.22161 5.26366,3.34426 8.81634,1.92242 10.67089,3.43449 10.03422,8.18122 -0.28767,2.14473 -0.15038,3.89951 0.30508,3.89951 0.45547,0 2.21265,1.165 3.90484,2.58889 2.32835,1.95918 3.07673,3.41861 3.07673,6 V 402 h 42.375 42.375 l 0.63955,-3.19773 z M 630.58214,373.66069 C 630.26196,372.05981 630,370.13125 630,369.375 630,368.41204 628.65152,368 625.5,368 H 621 v 5.32676 5.32676 l 5.08214,-1.04107 5.08214,-1.04106 z M 630,357.95034 c 0,-3.79246 2.84279,-7.74335 6.42138,-8.92439 5.23603,-1.72805 9.24162,0.68535 10.79845,6.50616 L 648.41481,360 h 8.16759 8.1676 l 0.64039,-3.20193 C 666.35057,351.99714 669.65962,349 674,349 c 4.34038,0 7.64943,2.99714 8.60961,7.79807 L 683.25,360 h 44.74719 44.74719 l 0.63689,-3.9829 c 0.7922,-4.95411 3.93642,-7.27389 9.26012,-6.83202 3.02498,0.25107 4.25698,1.00384 6.07644,3.7128 1.25519,1.86884 2.28217,2.79784 2.28217,2.06445 0,-2.78561 4.25342,-5.96233 7.98318,-5.96233 3.85578,0 6.13373,1.29257 7.77173,4.4099 l 1.00357,1.90991 1.20125,-2.24456 c 0.66069,-1.23451 2.71851,-2.87852 4.57293,-3.65334 4.09412,-1.71063 7.61262,-0.65601 10.00796,2.99975 l 1.64523,2.51092 2.49597,-2.96629 c 2.5003,-2.97144 6.73757,-3.89379 10.77338,-2.34511 1.95449,0.75001 4.5448,5.49721 4.5448,8.32916 0,1.79886 0.62539,2.04966 5.11095,2.04966 h 5.11094 l -0.36094,-16.49743 -0.36095,-16.49744 -4.62219,-0.003 -4.62219,-0.003 -0.62805,3.92761 c -1.18437,7.40663 -9.20504,10.58583 -14.17302,5.61784 -1.35,-1.35 -2.45455,-2.95704 -2.45455,-3.5712 0,-0.61416 -1.51563,0.49039 -3.36808,2.45455 -4.45787,4.72673 -7.78758,4.74621 -12.19651,0.0714 -3.06756,-3.25256 -3.34619,-3.35665 -3.94392,-1.47336 -1.86156,5.86523 -11.05708,6.3802 -14.44516,0.80896 l -1.85827,-3.05569 -1.12922,2.10995 c -3.20532,5.9892 -11.58555,6.58093 -14.94586,1.05533 l -1.79163,-2.94609 -1.14838,2.52043 c -2.10533,4.62069 -9.21667,5.53813 -13.43813,1.73366 -0.97084,-0.87494 -2.04085,-3.31488 -2.37781,-5.42209 L 754.74438,327 H 701.37219 648 v 2.04966 c 0,2.89119 -2.66618,7.70132 -4.94461,8.9207 -5.34447,2.86027 -11.6602,-0.64681 -12.68296,-7.04275 L 629.74438,327 H 625.37219 621 v 16.5 16.5 h 4.5 c 3.86968,0 4.5,-0.2871 4.5,-2.04966 z m 0.37243,-42.87795 C 631.11672,310.41789 634.85934,307 639.21178,307 643.25483,307 648,311.81799 648,315.92308 V 319 h 53.37219 53.37219 l 0.62805,-3.92761 c 1.18437,-7.40663 9.20504,-10.58583 14.17302,-5.61784 1.35,1.35 2.45455,3.02753 2.45455,3.72784 0,0.70031 1.38276,-0.40423 3.0728,-2.45455 4.64015,-5.62929 10.01588,-5.16077 14.2809,1.24467 1.19749,1.79846 1.6463,2.02271 1.6463,0.82258 0,-2.5013 4.85733,-5.79509 8.54597,-5.79509 2.4308,0 3.94432,0.79396 5.86514,3.07673 l 2.58889,3.07672 2.58889,-3.07672 c 3.74211,-4.44725 8.27224,-4.28172 12.16808,0.44459 l 2.90257,3.52133 1.15794,-2.5414 C 827.99851,308.90917 831.5293,307 835.14202,307 838.30341,307 843,312.33318 843,315.92308 V 319 h 4.5 4.5 l 0.15,-15.5 c 0.0825,-8.525 0.195,-16.0625 0.25,-16.75 0.0637,-0.79572 -1.58242,-1.35898 -4.52935,-1.54986 l -4.62936,-0.29987 -0.70162,3.79987 C 841.53772,294.12647 838.52082,297 833.82569,297 830.11542,297 826,294.37057 826,292 c 0,-0.55 -0.45,-1 -1,-1 -0.55,0 -1,0.60526 -1,1.34501 0,2.48544 -3.95767,5.05257 -7.62897,4.9485 -3.80112,-0.10775 -8.35424,-3.48054 -8.3938,-6.21782 -0.0125,-0.86663 -0.7295,-0.14258 -1.59327,1.609 -2.90403,5.88883 -9.86976,6.32706 -14.14656,0.88999 C 789.95006,290.6668 789,290.33478 789,292.4433 c 0,2.19979 -4.04549,4.5567 -7.8213,4.5567 -2.45072,0 -4.13315,-0.81023 -6.13721,-2.95559 l -2.76093,-2.95558 -1.1012,2.41687 c -1.32898,2.91679 -6.52649,4.55891 -10.33609,3.2656 -1.4612,-0.49606 -3.36345,-2.33503 -4.22723,-4.08661 -0.86377,-1.75158 -1.58075,-2.60174 -1.59327,-1.88924 -0.0125,0.7125 -1.12732,2.4 -2.47732,3.75 -5.37322,5.37323 -14.54545,1.58969 -14.54545,-6 L 738,285 h -44.88871 -44.88871 l -0.69227,3.75 c -0.97457,5.27922 -4.03851,8.25748 -8.45462,8.2182 C 633.65087,296.91995 630,293.13762 630,287.56574 630,285.19153 629.66408,285 625.5,285 H 621 v 17 17 h 4.37219 4.37219 z M 630,274.95034 c 0,-3.79246 2.84279,-7.74335 6.42138,-8.92439 5.23603,-1.72805 9.24162,0.68535 10.79845,6.50616 L 648.41481,277 H 693.2074 738 v -2.94424 c 0,-1.6247 1.02381,-4.13448 2.28439,-5.6 4.03471,-4.69062 12.43768,-3.05752 14.28953,2.77715 0.56397,1.7769 0.81058,1.66397 2.52599,-1.15681 3.4941,-5.74557 10.71235,-6.30769 13.7193,-1.06839 l 1.56516,2.72714 3.17589,-3.36742 c 4.66157,-4.94271 9.69746,-4.28071 13.36951,1.75748 l 1.82275,2.99727 0.65933,-2.62699 c 1.5747,-6.27411 12.45251,-6.42571 15.06603,-0.20997 l 1.26836,3.01654 1.38599,-2.89177 c 2.8615,-5.97032 10.142,-6.66323 14.07776,-1.33983 l 2.08669,2.82239 1.98298,-2.52095 c 2.92417,-3.71748 6.15103,-4.63631 10.25713,-2.92068 2.83308,1.18374 3.65642,2.24277 4.65957,5.99344 L 843.41481,277 H 847.9574 852.5 V 263 249 H 736.75 621 v 14 14 h 4.5 c 3.86968,0 4.5,-0.2871 4.5,-2.04966 z"
         id="path526" />
      <path
         style="fill:#6c96af"
         d="m 253.005,843.91569 c -22.88601,-5.16099 -40.69731,-13.91409 -58.04938,-28.52752 -32.11326,-27.04488 -48.57205,-72.67626 -44.93421,-124.57835 1.02155,-14.57469 4.20131,-36.32747 7.90447,-54.07454 3.61042,-17.30259 4.41851,-24.23224 7.60734,-65.23528 6.62702,-85.21253 23.64834,-138.16009 60.27658,-187.5 7.44505,-10.02882 28.47168,-30.94202 40.03958,-39.82358 16.22216,-12.455 40.66912,-26.23892 60.52941,-34.12827 12.16442,-4.83223 15.0639,-6.5981 17.12849,-10.43181 3.10753,-5.77033 1.16137,-14.07469 -12.33085,-52.61634 -6.03755,-17.24677 -8.2941,-26.53703 -8.86562,-36.5 -0.43612,-7.60252 -0.18303,-9.88107 1.62996,-14.67425 7.20189,-19.04036 29.27874,-24.04879 63.09792,-14.31461 27.63924,7.9554 48.90575,20.68036 72.03851,43.10473 6.44174,6.24447 12.89506,11.80328 14.3407,12.35292 1.44565,0.54963 7.45552,0.92164 13.35527,0.8267 9.18981,-0.1479 11.44327,0.1483 15.72683,2.06716 7.97785,3.57375 11.15541,7.40775 17.9572,21.66686 l 6.21525,13.02952 16.5513,16.47048 c 18.82347,18.73157 21.12703,22.18874 21.30242,31.97049 0.0641,3.575 0.72252,7.74486 1.46316,9.26636 7.36829,15.13678 -36.59455,63.76905 -81.98933,90.69768 -12.43456,7.3763 -21.93569,14.04842 -25.22227,17.71222 l -1.72227,1.91994 18.72227,11.08547 c 10.29725,6.09702 19.79964,11.63842 21.11643,12.31424 3.91777,2.01073 9.87709,0.61862 13.98381,-3.26664 4.58838,-4.34094 17.26505,-14.29497 42.62203,-33.46782 24.14623,-18.2574 24.25668,-18.35291 29.27577,-25.31995 C 586.7672,398.40098 596.41411,389 598.10815,389 598.62328,389 599,354.78479 599,308 V 227 H 736.5 874 V 446 665 H 736.5 599 V 553.60699 c 0,-100.65337 -0.1525,-111.45153 -1.58179,-112 -4.87035,-1.86893 -6.2888,-0.83811 -28.14865,20.45624 -29.89486,29.12149 -42.50211,39.97649 -52.6685,45.34825 -10.72144,5.66504 -22.6231,2.62957 -60.00177,-15.3032 C 447.3039,487.64872 439.345,484 438.91285,484 c -0.43216,0 -2.20331,4.6125 -3.93589,10.25 -5.18468,16.86999 -9.95941,29.59443 -15.64669,41.69774 l -5.37923,11.44775 1.77448,1.64423 c 2.16551,2.00656 26.37142,22.53523 30.45708,25.8302 2.78111,2.24288 5.79466,3.22626 15.49671,5.05689 l 4.17932,0.78857 -2.00209,-5.10769 C 462.75539,572.79846 459.9112,566 457.53611,560.5 c -9.27761,-21.48422 -10.74555,-25.52938 -10.13995,-27.94229 0.35565,-1.41702 -0.21563,-4.30364 -1.39727,-7.06029 C 444.8995,522.93264 444,519.81624 444,518.57208 c 0,-4.96344 7.59544,-7.81646 10.50812,-3.94708 0.77627,1.03125 2.1934,4.0125 3.14918,6.625 0.95579,2.6125 2.32008,4.75 3.03177,4.75 0.71169,0 1.84923,0.8891 2.52787,1.97577 0.98379,1.57529 1.95106,1.86109 4.77204,1.41 2.68018,-0.42858 3.92262,-0.11959 5.12368,1.27423 1.96473,2.28005 17.88734,39.27555 17.88734,41.56047 0,0.91382 -0.40939,1.91451 -0.90976,2.22376 -2.01491,1.24528 -4.06466,-0.90664 -6.45085,-6.77242 -6.97964,-17.15743 -12.7383,-29.20404 -14.09828,-29.49233 -1.62763,-0.34503 -1.51415,-0.0463 10.32561,27.18453 3.31539,7.62521 6.16417,13.94427 6.33063,14.04235 0.16646,0.0981 2.55265,0.74972 5.30265,1.44811 7.94221,2.01698 13.21213,8.36979 12.18641,14.69053 -0.43389,2.67374 10e-4,3.7319 2.50763,6.09521 8.06404,7.60435 10.35373,17.31865 5.35371,22.71377 -1.34874,1.45531 -3.14874,2.64602 -4,2.64602 -0.85126,0 -1.54775,0.11457 -1.54775,0.2546 0,0.14003 2.49535,6.32753 5.54521,13.75 4.6499,11.31646 5.85978,15.59436 7.49346,26.4954 1.07153,7.15 1.95118,13.7875 1.95478,14.75 0.0143,3.81534 -3.21274,1.26655 -11.75911,-9.28767 -7.80219,-9.63521 -9.66901,-12.74724 -14.69231,-24.49246 l -5.75447,-13.45479 -2.67755,1.90658 c -6.23392,4.43895 -16.03331,3.35504 -21.79961,-2.41126 -2.29002,-2.29002 -3.3104,-4.24406 -3.3104,-6.33944 0,-2.83474 -0.36885,-3.13202 -5.75,-4.63437 -3.1625,-0.88292 -7.40869,-2.32021 -9.43597,-3.19396 C 442.11339,618.74767 436,613.49862 436,611.91614 c 0,-2.53423 -8.39549,-9.48981 -24.20191,-20.05105 C 402.03129,585.33929 393.66381,580 393.2037,580 c -0.46011,0 -3.15327,3.3181 -5.98479,7.37356 l -5.14822,7.37356 8.15018,6.87644 c 8.73923,7.37342 17.57273,17.7766 22.69222,26.72454 8.52735,14.90426 14.53429,41.39016 19.08545,84.1519 3.75216,35.25447 4.86074,43.99969 5.93617,46.82826 1.59774,4.2024 6.25413,5.52882 24.93839,7.10397 19.57787,1.65049 24.31853,2.81836 27.68613,6.82053 2.71616,3.22797 2.98191,4.86759 1.29871,8.01268 -0.97631,1.82425 -0.79489,2.35896 1.25,3.68426 7.28001,4.7182 9.09875,10.6286 4.57761,14.87599 -2.92065,2.7438 -3.98369,2.71432 -10.43555,-0.28945 L 482,797.09201 v 3.91881 c 0,7.22007 -4.84504,7.76558 -18.25921,2.05585 -11.79648,-5.02117 -19.26701,-6.70878 -35.86394,-8.10179 -15.13412,-1.27022 -20.91863,-3.17449 -23.1689,-7.62724 -0.78873,-1.5607 -2.41144,-8.76787 -3.60603,-16.01592 -1.99821,-12.1239 -12.56195,-51.02476 -21.40447,-78.82172 -1.92457,-6.05 -4.48063,-14.15 -5.68012,-18 -2.66364,-8.54942 -7.76821,-19.5 -9.08985,-19.5 -0.5337,0 -2.65877,1.11734 -4.72239,2.48297 -5.86983,3.88448 -17.72932,6.39426 -35.59331,7.53251 -44.44564,2.83194 -50.33756,3.79973 -63.50607,10.43129 -17.84984,8.98903 -28.64487,21.46957 -35.09513,40.57481 -3.14486,9.31483 -3.87934,26.47859 -1.54967,36.21353 3.74907,15.66618 13.09752,29.1246 26.61851,38.32108 9.70944,6.60401 17.86303,9.36122 29.92058,10.1179 21.23094,1.33236 41.26133,-8.43044 52.01921,-25.35412 7.94829,-12.50379 9.305,-30.63102 3.25896,-43.5433 -5.6058,-11.97206 -15.15877,-19.99448 -27.12416,-22.77839 -12.59722,-2.93091 -25.87753,2.65897 -31.22643,13.14367 -2.69496,5.28256 -2.65965,16.14509 0.067,20.61719 4.08747,6.70398 13.73434,9.51192 18.0054,5.24086 3.0232,-3.0232 2.63746,-6 -0.77749,-6 -1.52763,0 -3.8292,-0.73664 -5.11462,-1.63698 -2.01029,-1.40807 -2.26771,-2.25278 -1.84077,-6.04058 1.32354,-11.74238 16.07451,-15.10747 26.41719,-6.02647 5.2825,4.63809 7.26757,9.75318 7.29373,18.79431 0.0187,6.47892 -0.42261,8.47993 -3.01432,13.66641 -9.0063,18.02319 -30.52741,24.13254 -50.45397,14.32272 -27.8593,-13.71508 -33.55162,-48.47593 -12.54345,-76.598 4.66332,-6.24245 12.51748,-12.37187 21.58314,-16.84361 17.59411,-8.67847 38.74943,-8.96326 56.83026,-0.76502 29.69144,13.46275 46.31389,42.64595 44.25356,77.69378 -2.46843,41.98981 -33.15802,75.45551 -78.36233,85.45079 -12.05158,2.66476 -35.21942,2.61493 -47.26593,-0.10166 z M 852.77903,630.96364 853.05805,618 H 848.02903 843 v -4 -4 h 5 5 v -16.94774 -16.94774 l -5.25,-0.30226 -5.25,-0.30226 -0.1,-3.25 -0.1,-3.25 h 5.35 5.35 V 551.5 534 h -5 -5 v -3.5 -3.5 h 5 5 V 510.05226 493.10452 L 847.75,492.80226 842.5,492.5 v -3.5 -3.5 l 5,-0.0855 5,-0.0855 0.27361,-17.16447 0.27362,-17.16447 H 848.02361 843 v -3.5 -3.5 h 5 5 v -16.94774 -16.94774 l -5.25,-0.30226 -5.25,-0.30226 v -3.5 -3.5 l 5.25,-0.30226 5.25,-0.30226 V 384.9478 368.00006 h -4.94098 c -5.50568,0 -6.41387,-0.73799 -5.48121,-4.45401 0.57574,-2.29391 1.12333,-2.54599 5.5306,-2.54599 H 853 v -17.5 -17.5 h -5.2992 -5.2992 l 0.40861,-3.5 0.4086,-3.5 h 4.8906 H 853 v -17 -17 h -5.5 -5.5 v -3.5 -3.5 h 5.5 5.5 v -15.00417 -15.00416 l -116.25,0.25416 -116.25,0.25417 v 14.5 14.5 l 4.75,0.30479 4.75,0.30479 v 3.44521 3.44521 h -5 -5 v 17 17 h 5 5 v 3.44521 3.44521 l -4.75,0.30479 -4.75,0.30479 v 17 17 l 5.04393,0.29511 5.04394,0.29512 -0.40334,3.45488 -0.40334,3.45489 H 624.89059 620 v 5.60699 c 0,4.07245 0.3421,5.47689 1.25,5.13162 0.6875,-0.26145 4.50034,-1.05449 8.47297,-1.76231 10.91495,-1.94476 29.83108,1.14951 32.47667,5.31249 1.5224,2.39557 0.7518,5.60425 -1.8345,7.63863 -2.34141,1.84175 -4.0054,2.07258 -14.94098,2.07258 -6.76837,0 -12.54542,0.38719 -12.83789,0.86041 -0.29247,0.47323 1.28418,1.6793 3.50367,2.68015 7.98737,3.6018 11.55169,11.75882 6.95566,15.91817 -1.64658,1.49014 -2.46323,1.59133 -5.18507,0.6425 -1.77686,-0.61942 -4.11313,-1.9081 -5.1917,-2.86372 -1.43976,-1.27566 -2.07725,-1.40525 -2.39826,-0.48751 -0.26977,0.77122 -2.32043,1.25 -5.3539,1.25 L 620,410 v 7.38337 c 0,6.44095 0.24518,7.44748 1.92085,7.88568 2.55981,0.66941 10.29788,-0.83304 16.77857,-3.25778 2.89014,-1.08134 6.0526,-1.68418 7.02769,-1.33966 2.79953,0.98916 6.27289,4.51509 6.27289,6.36785 0,4.4076 -8.31106,10.18928 -20.94392,14.56983 -5.57119,1.93186 -6.06785,2.28219 -3.30608,2.33205 3.03644,0.0548 3.25,0.28864 3.25,3.55866 v 3.5 h -5.5 -5.5 v 16.87219 16.87219 l 4.06067,0.64933 c 2.23337,0.35713 4.48337,0.38809 5,0.0688 0.52684,-0.3256 0.93933,1.2019 0.93933,3.47848 v 4.05902 h -5 -5 v 17 17 h 5 5 v 3.5 3.5 h -5.02361 -5.02362 l 0.27362,17.25 0.27361,17.25 4.75,0.30479 4.75,0.30479 v 3.44521 3.44521 h -5 -5 v 17 17 h 5 5 v 4 4 h -5 -5 v 12.83333 c 0,7.05834 0.18739,13.02084 0.41642,13.25 0.22903,0.22917 52.54153,0.28781 116.25,0.13031 L 852.5,643.92728 Z M 647.90909,617.5 c -0.05,-0.275 -0.13187,-1.9625 -0.18193,-3.75 l -0.091,-3.25 53.68193,-0.25869 53.68193,-0.25868 V 613.99131 618 h -53.5 c -29.425,0 -53.54091,-0.225 -53.59091,-0.5 z M 647,572.50861 V 569 h 54.56336 54.56336 l -0.31336,3.25 -0.31336,3.25 -54.25,0.25861 -54.25,0.25861 z M 648,530.5 V 527 h 53.5 53.5 v 3.5 3.5 H 701.5 648 Z m -0.81088,-41.04776 0.31088,-3.56505 53.95991,0.0534 53.9599,0.0533 0.0401,3.25306 0.0401,3.25306 -54.31088,0.25864 -54.31088,0.25864 0.31088,-3.56504 z M 647,447.5 V 444 h 45.5 45.5 v 3.5 3.5 H 692.5 647 Z m 0,-41.5 v -4 h 3 3 v 4 4 h -3 -3 z m 23,0 v -4.02147 l 42.75,0.26073 42.75,0.26074 v 3.5 3.5 l -42.75,0.26074 -42.75,0.26073 z M 647.62125,366.45538 C 647.27956,365.56495 647,363.97323 647,362.91821 647,361.16098 647.80259,361 656.56336,361 h 9.56336 l -0.31336,3.25 -0.31336,3.25 -8.62875,0.28716 c -7.20248,0.2397 -8.73144,0.0196 -9.25,-1.33178 z M 683,364.5 V 361 h 45 45 v 3.5 3.5 h -45 -45 z m -35,-42 V 319 h 53.5 53.5 v 3.5 3.5 H 701.5 648 Z m -1,-41 V 278 h 45.5 45.5 v 3.5 3.5 H 692.5 647 Z"
         id="path524" />
      <path
         style="fill:#7a9bb5"
         d="m 463.21724,802.49131 c -11.34845,-4.89916 -20.6759,-6.93034 -38.30001,-8.34033 -12.33268,-0.98666 -16.78603,-2.49492 -19.47247,-6.59494 -0.86574,-1.32129 -2.39778,-7.49943 -3.40453,-13.72919 C 399.46439,757.88752 392.1461,730.8809 378.78278,688 369.67121,658.76237 367.39402,654.45767 358.5,649.65842 c -3.35284,-1.80921 -5.61789,-2.1532 -14,-2.12613 -8.88127,0.0287 -11.45435,0.4916 -23,4.13799 -20.66862,6.52764 -27.44517,7.80193 -41.5,7.80382 -10.70742,10e-4 -13.31765,-0.32695 -18.20163,-2.28996 -7.93401,-3.1889 -15.02592,-9.86963 -18.95986,-17.86061 -2.82058,-5.72941 -3.22525,-7.56152 -3.24356,-14.68482 -0.0477,-18.56571 11.23901,-36.80077 29.57149,-47.77623 22.76077,-13.62663 47.94321,-14.0403 79.33356,-1.3032 17.21944,6.98705 29.71365,15.3287 46.34329,30.94072 24.48499,22.98668 31.17509,45.72233 39.72453,135 0.93832,9.79834 2.4881,17.8932 3.74993,19.58666 2.6725,3.58667 5.74723,4.28781 26.14776,5.96253 16.5204,1.35619 21.76105,2.50467 24.96083,5.47013 2.79235,2.58785 3.63708,8.86713 1.32366,9.83931 -0.86012,0.36145 -0.6262,0.90953 0.75,1.75723 4.09368,2.52159 8.5,7.73745 8.5,10.06163 0,1.30763 -0.70052,3.37763 -1.5567,4.6 -2.08934,2.98296 -6.23135,2.87034 -12.57011,-0.34175 l -5.06033,-2.56426 0.68195,3.1049 c 0.9279,4.22469 -1.58517,8.03582 -5.26786,7.98882 -1.49982,-0.0191 -7.35419,-2.03239 -13.00971,-4.47389 z M 516.53455,681.75 l -1.57887,-2.25 2.27216,-0.57201 c 2.50909,-0.63166 4.29049,1.27887 3.38723,3.63275 -0.7937,2.06833 -2.26542,1.77592 -4.08052,-0.81074 z M 599,553.1135 V 441.227 l -3.07405,-0.45118 c -4.28026,-0.62821 -7.70702,2.07059 -28.71174,22.61238 -23.32789,22.81376 -36.6843,34.65344 -45.82231,40.6188 -11.72118,7.65167 -16.5483,7.70329 -36.13317,0.3864 -8.06059,-3.01142 -45.65301,-20.45434 -47.01252,-21.81385 -0.21969,-0.2197 1.44053,-5.90266 3.68939,-12.6288 4.00388,-11.97527 9.01205,-21.78342 12.93627,-25.33479 l 1.96846,-1.78144 16.16095,9.69702 c 23.07254,13.84416 27.12499,15.81927 30.80082,15.01193 1.67193,-0.36722 4.31293,-1.84905 5.86888,-3.29296 4.63321,-4.29954 24.57964,-19.95967 44.32902,-34.8031 22.36751,-16.81121 25.09771,-19.22846 30.19406,-26.73318 2.18789,-3.2218 6.41255,-7.73801 9.38815,-10.03602 l 5.41017,-4.17821 0.004,-80.75 L 599,227 H 736.5 874 V 446 665 H 736.5 599 Z M 852.77903,630.96364 853.05805,618 H 848.02903 843 v -4 -4 h 5 5 v -16.94774 -16.94774 l -5.25,-0.30226 -5.25,-0.30226 -0.1,-3.25 -0.1,-3.25 h 5.35 5.35 V 551.5 534 h -5 -5 v -3.5 -3.5 h 5 5 V 510.05226 493.10452 L 847.75,492.80226 842.5,492.5 v -3.5 -3.5 l 5,-0.0855 5,-0.0855 0.27361,-17.16447 0.27362,-17.16447 H 848.02361 843 v -3.5 -3.5 h 5 5 v -16.94774 -16.94774 l -5.25,-0.30226 -5.25,-0.30226 v -3.5 -3.5 l 5.25,-0.30226 5.25,-0.30226 V 384.9478 368.00006 h -4.94098 c -5.50568,0 -6.41387,-0.73799 -5.48121,-4.45401 0.57574,-2.29391 1.12333,-2.54599 5.5306,-2.54599 H 853 v -17.5 -17.5 h -5.2992 -5.2992 l 0.40861,-3.5 0.4086,-3.5 h 4.8906 H 853 v -17 -17 h -5.5 -5.5 v -3.5 -3.5 h 5.5 5.5 v -15.00417 -15.00416 l -116.25,0.25416 -116.25,0.25417 v 14.5 14.5 l 4.75,0.30479 4.75,0.30479 v 3.44521 3.44521 h -5 -5 v 17 17 h 5 5 v 3.44521 3.44521 l -4.75,0.30479 -4.75,0.30479 v 17 17 l 5.04393,0.29511 5.04394,0.29512 -0.40334,3.45488 -0.40334,3.45489 H 624.89059 620 v 5.61658 5.61657 l 2.75,-0.62685 c 7.6388,-1.74123 22.10349,-1.83966 29.471,-0.20054 8.52193,1.89595 11.37141,4.09775 10.38571,8.02508 -1.06412,4.23981 -3.97741,5.06916 -17.80666,5.06916 -13.82179,0 -17.8996,1.25478 -10.89652,3.35295 5.76331,1.72673 11.09647,7.24153 11.09647,11.4744 0,2.14277 -0.75949,4.05001 -2.09356,5.25732 l -2.09356,1.89465 -5.04856,-2.81872 c -3.64264,-2.03376 -5.25329,-2.48746 -5.78372,-1.6292 -0.45651,0.73863 -2.50123,1.04905 -5.39445,0.81894 l -4.65928,-0.37057 0.28656,8.01012 0.28657,8.01011 3.45741,0.32883 c 1.93483,0.18402 7.05776,-0.86753 11.6329,-2.3878 9.09301,-3.02151 12.46905,-2.80626 14.93157,0.95202 2.34368,3.57691 0.22679,7.07236 -6.76467,11.16994 -3.2254,1.89036 -6.23882,3.43701 -6.69648,3.43701 -0.45766,0 -2.12105,0.67223 -3.69642,1.49384 -1.57537,0.82161 -3.85025,1.49661 -5.05529,1.5 -1.20504,0.003 -2.4691,0.45616 -2.80902,1.00616 -0.36058,0.58342 0.65628,1 2.44098,1 2.82936,0 3.05902,0.26277 3.05902,3.5 v 3.5 h -5.5 -5.5 v 16.87219 16.87219 l 4.06067,0.64933 c 2.23337,0.35713 4.48337,0.38809 5,0.0688 0.52684,-0.3256 0.93933,1.2019 0.93933,3.47848 v 4.05902 h -5 -5 v 17 17 h 5 5 v 3.5 3.5 h -5.02361 -5.02362 l 0.27362,17.25 0.27361,17.25 4.75,0.30479 4.75,0.30479 v 3.44521 3.44521 h -5 -5 v 17 17 h 5 5 v 4 4 h -5 -5 v 12.83333 c 0,7.05834 0.18739,13.02084 0.41642,13.25 0.22903,0.22917 52.54153,0.28781 116.25,0.13031 L 852.5,643.92728 Z M 647.90909,617.5 c -0.05,-0.275 -0.13187,-1.9625 -0.18193,-3.75 l -0.091,-3.25 53.68193,-0.25869 53.68193,-0.25868 V 613.99131 618 h -53.5 c -29.425,0 -53.54091,-0.225 -53.59091,-0.5 z M 647,572.50861 V 569 h 54.56336 54.56336 l -0.31336,3.25 -0.31336,3.25 -54.25,0.25861 -54.25,0.25861 z M 648,530.5 V 527 h 53.5 53.5 v 3.5 3.5 H 701.5 648 Z m -0.81088,-41.04776 0.31088,-3.56505 53.95991,0.0534 53.9599,0.0533 0.0401,3.25306 0.0401,3.25306 -54.31088,0.25864 -54.31088,0.25864 0.31088,-3.56504 z M 647,447.5 V 444 h 45.5 45.5 v 3.5 3.5 H 692.5 647 Z m 0,-41.5 v -4 h 3 3 v 4 4 h -3 -3 z m 23,0 v -4.02147 l 42.75,0.26073 42.75,0.26074 v 3.5 3.5 l -42.75,0.26074 -42.75,0.26073 z M 647.62125,366.45538 C 647.27956,365.56495 647,363.97323 647,362.91821 647,361.16098 647.80259,361 656.56336,361 h 9.56336 l -0.31336,3.25 -0.31336,3.25 -8.62875,0.28716 c -7.20248,0.2397 -8.73144,0.0196 -9.25,-1.33178 z M 683,364.5 V 361 h 45 45 v 3.5 3.5 h -45 -45 z m -35,-42 V 319 h 53.5 53.5 v 3.5 3.5 H 701.5 648 Z m -1,-41 V 278 h 45.5 45.5 v 3.5 3.5 H 692.5 647 Z m -152.08323,366.88709 -6.26253,-14.41089 -2.31943,2.17899 c -1.60685,1.50955 -3.99276,2.31775 -7.76606,2.63067 -9.61616,0.79744 -18.65605,-5.60555 -17.03464,-12.06573 0.53027,-2.11276 0.10433,-2.39466 -5.307,-3.51235 -9.90382,-2.0456 -16.10954,-5.85275 -20.71392,-12.70778 -3.54923,-5.28412 -6.11703,-7.39664 -21.52163,-17.70566 -9.62036,-6.43812 -18.92924,-12.40995 -20.68641,-13.27075 -4.54546,-2.22672 -31.01598,-20.43362 -42.54702,-29.26461 -10.14552,-7.76991 -18.74992,-16.40863 -21.34845,-21.43363 -2.93051,-5.66699 -2.83326,-11.54299 0.4039,-24.40549 3.43986,-13.66788 15.72048,-56.11208 20.37498,-70.41986 6.68441,-20.54763 11.77636,-26.03035 24.12654,-25.97804 9.90994,0.042 18.07101,6.14216 20.67901,15.45699 2.45759,8.77768 -1.68277,25.52245 -15.48698,62.6336 C 375.37821,497.21273 372,507.59981 372,509.19496 c 0,3.76433 4.84585,8.56528 25,24.7684 8.525,6.85375 16.175,13.19733 17,14.09685 0.825,0.89951 4.19875,3.84145 7.49722,6.53763 3.29847,2.69619 10.82016,9.05212 16.71487,14.12429 5.8947,5.07217 11.74595,9.42119 13.00277,9.6645 1.25683,0.2433 4.90755,0.97092 8.11273,1.61695 3.20517,0.64602 6.04957,0.9526 6.32088,0.68129 0.2713,-0.27131 -1.36461,-4.9239 -3.63538,-10.33908 -11.8836,-28.33928 -14.95414,-36.33583 -14.45339,-37.64076 0.53084,-1.38336 2.21611,-2.36243 9.21289,-5.3523 3.07163,-1.31257 3.42289,-1.24816 5.71994,1.04889 2.17908,2.17908 2.77909,2.32213 5.47381,1.30498 2.44763,-0.92387 3.29849,-0.86161 4.44874,0.32552 1.20644,1.24512 5.49939,10.74525 16.83944,37.26498 2.10079,4.9129 1.49432,7.58797 -1.46301,6.45314 -0.73861,-0.28343 -4.68175,-8.33069 -8.76255,-17.88279 -4.0808,-9.5521 -7.78173,-17.79495 -8.2243,-18.31745 -0.50396,-0.59499 -1.19507,-0.55959 -1.84939,0.0947 -0.72631,0.72631 1.63594,7.25014 7.75044,21.40441 l 8.79517,20.35969 4.99956,1.54558 c 2.74976,0.85008 6.0074,2.12143 7.23921,2.82523 3.12311,1.78442 5.37262,6.58534 5.15232,10.9961 -0.15532,3.10967 0.4674,4.40003 3.77352,7.81928 5.47224,5.65948 7.69635,10.6706 7.00934,15.79266 -0.521,3.88434 -3.46004,7.70739 -6.77456,8.81223 -0.85301,0.28434 0.55743,4.80332 4.56836,14.63689 3.19129,7.82406 5.62888,14.33803 5.41686,14.47549 -0.21202,0.13747 -3.83264,1.65298 -8.04583,3.36781 l -7.66035,3.11787 -6.26254,-14.41088 z m -63.8769,-273.83905 c -2.79507,-3.36785 -0.81841,-4.77959 13.46013,-9.61325 7.7,-2.60665 36.04562,-12.23036 62.99026,-21.38603 26.94465,-9.15566 50.72462,-17.03634 52.84438,-17.51261 3.42196,-0.76887 3.80213,-0.66718 3.3905,0.90691 -0.25499,0.97508 -0.006,2.62429 0.5531,3.66491 0.5592,1.04062 0.67233,1.57651 0.25142,1.19087 -0.42092,-0.38563 -3.07478,0.19775 -5.89748,1.2964 C 555.80948,334.1939 538.425,340.20935 520,346.46291 450.49297,370.05405 432.89372,376 432.57403,376 c -0.18103,0 -0.8714,-0.65338 -1.53416,-1.45196 z m 16.17429,-38.43915 c -11.24409,-3.8839 -21.23739,-13.23521 -26.29837,-24.60889 -3.34854,-7.52526 -3.83387,-21.96911 -1.00803,-30 5.84668,-16.61599 20.36337,-27.71689 38.20108,-29.21234 20.06137,-1.68188 39.1794,12.09395 44.49623,32.06253 5.81025,21.82169 -6.9778,44.99578 -28.53163,51.70408 -8.0666,2.51061 -19.68069,2.53423 -26.85928,0.0546 z"
         id="path522" />
      <path
         style="fill:#4e7c96"
         d="m 463.21724,802.49131 c -11.34845,-4.89916 -20.6759,-6.93034 -38.30001,-8.34033 -12.33268,-0.98666 -16.78603,-2.49492 -19.47247,-6.59494 -0.86574,-1.32129 -2.39778,-7.49943 -3.40453,-13.72919 C 399.46439,757.88752 392.1461,730.8809 378.78278,688 369.67121,658.76237 367.39402,654.45767 358.5,649.65842 c -3.35284,-1.80921 -5.61789,-2.1532 -14,-2.12613 -8.88127,0.0287 -11.45435,0.4916 -23,4.13799 -20.66862,6.52764 -27.44517,7.80193 -41.5,7.80382 -10.70742,10e-4 -13.31765,-0.32695 -18.20163,-2.28996 -7.93401,-3.1889 -15.02592,-9.86963 -18.95986,-17.86061 -2.82058,-5.72941 -3.22525,-7.56152 -3.24356,-14.68482 -0.0477,-18.56571 11.23901,-36.80077 29.57149,-47.77623 22.76077,-13.62663 47.94321,-14.0403 79.33356,-1.3032 17.21944,6.98705 29.71365,15.3287 46.34329,30.94072 24.48499,22.98668 31.17509,45.72233 39.72453,135 0.93832,9.79834 2.4881,17.8932 3.74993,19.58666 2.6725,3.58667 5.74723,4.28781 26.14776,5.96253 16.5204,1.35619 21.76105,2.50467 24.96083,5.47013 2.79235,2.58785 3.63708,8.86713 1.32366,9.83931 -0.86012,0.36145 -0.6262,0.90953 0.75,1.75723 4.09368,2.52159 8.5,7.73745 8.5,10.06163 0,1.30763 -0.70052,3.37763 -1.5567,4.6 -2.08934,2.98296 -6.23135,2.87034 -12.57011,-0.34175 l -5.06033,-2.56426 0.68195,3.1049 c 0.9279,4.22469 -1.58517,8.03582 -5.26786,7.98882 -1.49982,-0.0191 -7.35419,-2.03239 -13.00971,-4.47389 z M 516.53455,681.75 l -1.57887,-2.25 2.27216,-0.57201 c 2.50909,-0.63166 4.29049,1.27887 3.38723,3.63275 -0.7937,2.06833 -2.26542,1.77592 -4.08052,-0.81074 z m -21.61778,-33.36291 -6.26253,-14.41089 -2.31943,2.17899 c -1.60685,1.50955 -3.99276,2.31775 -7.76606,2.63067 -9.61616,0.79744 -18.65605,-5.60555 -17.03464,-12.06573 0.53027,-2.11276 0.10433,-2.39466 -5.307,-3.51235 -9.90382,-2.0456 -16.10954,-5.85275 -20.71392,-12.70778 -3.54923,-5.28412 -6.11703,-7.39664 -21.52163,-17.70566 -9.62036,-6.43812 -18.92924,-12.40995 -20.68641,-13.27075 -4.54546,-2.22672 -31.01598,-20.43362 -42.54702,-29.26461 -10.14552,-7.76991 -18.74992,-16.40863 -21.34845,-21.43363 -2.93051,-5.66699 -2.83326,-11.54299 0.4039,-24.40549 3.43986,-13.66788 15.72048,-56.11208 20.37498,-70.41986 6.68441,-20.54763 11.77636,-26.03035 24.12654,-25.97804 9.90994,0.042 18.07101,6.14216 20.67901,15.45699 2.45759,8.77768 -1.68277,25.52245 -15.48698,62.6336 C 375.37821,497.21273 372,507.59981 372,509.19496 c 0,3.76433 4.84585,8.56528 25,24.7684 8.525,6.85375 16.175,13.19733 17,14.09685 0.825,0.89951 4.19875,3.84145 7.49722,6.53763 3.29847,2.69619 10.82016,9.05212 16.71487,14.12429 5.8947,5.07217 11.74595,9.42119 13.00277,9.6645 1.25683,0.2433 4.90755,0.97092 8.11273,1.61695 3.20517,0.64602 6.04957,0.9526 6.32088,0.68129 0.2713,-0.27131 -1.36461,-4.9239 -3.63538,-10.33908 -11.8836,-28.33928 -14.95414,-36.33583 -14.45339,-37.64076 0.53084,-1.38336 2.21611,-2.36243 9.21289,-5.3523 3.07163,-1.31257 3.42289,-1.24816 5.71994,1.04889 2.17908,2.17908 2.77909,2.32213 5.47381,1.30498 2.44763,-0.92387 3.29849,-0.86161 4.44874,0.32552 1.20644,1.24512 5.49939,10.74525 16.83944,37.26498 2.10079,4.9129 1.49432,7.58797 -1.46301,6.45314 -0.73861,-0.28343 -4.68175,-8.33069 -8.76255,-17.88279 -4.0808,-9.5521 -7.78173,-17.79495 -8.2243,-18.31745 -0.50396,-0.59499 -1.19507,-0.55959 -1.84939,0.0947 -0.72631,0.72631 1.63594,7.25014 7.75044,21.40441 l 8.79517,20.35969 4.99956,1.54558 c 2.74976,0.85008 6.0074,2.12143 7.23921,2.82523 3.12311,1.78442 5.37262,6.58534 5.15232,10.9961 -0.15532,3.10967 0.4674,4.40003 3.77352,7.81928 5.47224,5.65948 7.69635,10.6706 7.00934,15.79266 -0.521,3.88434 -3.46004,7.70739 -6.77456,8.81223 -0.85301,0.28434 0.55743,4.80332 4.56836,14.63689 3.19129,7.82406 5.62888,14.33803 5.41686,14.47549 -0.21202,0.13747 -3.83264,1.65298 -8.04583,3.36781 l -7.66035,3.11787 -6.26254,-14.41088 z M 620,614 v -3 h 5 5 v 3 3 h -5 -5 z m 27.99979,-0.25 -2.1e-4,-3.25 53.50021,0.26715 L 755,611.0343 V 614.01715 617 H 701.5 648 Z M 843,614 v -3 h 5 5 v 3 3 h -5 -5 z M 620.66667,575.33333 C 620.3,574.96667 620,573.39167 620,571.83333 V 569 h 5 5 v 3.5 3.5 h -4.33333 c -2.38334,0 -4.63334,-0.3 -5,-0.66667 z M 648,572.5 V 569 h 53.5 53.5 v 3.5 3.5 H 701.5 648 Z m 195,0 V 569 h 5 5 v 3.5 3.5 h -5 -5 z m -222.51654,-41.75 0.25092,-3.25 4.63281,-0.30479 L 630,526.89042 V 530.44521 534 h -4.88373 -4.88373 z M 648,530.5 V 527 h 53.5 53.5 v 3.5 3.5 H 701.5 648 Z m 195,0 V 527 h 5 5 v 3.5 3.5 h -5 -5 z M 491.35009,506.54118 C 480.85196,502.99925 465.82564,496.41444 448.5,487.76346 c -5.5,-2.74623 -10.14698,-5.12595 -10.32662,-5.28826 -0.17964,-0.16231 1.51336,-5.79831 3.76222,-12.52445 4.00388,-11.97527 9.01205,-21.78342 12.93627,-25.33479 l 1.96846,-1.78144 16.16095,9.69702 c 23.07254,13.84416 27.12499,15.81927 30.80082,15.01193 1.67193,-0.36722 4.31293,-1.84905 5.86888,-3.29296 4.63321,-4.29954 24.57964,-19.95967 44.32902,-34.8031 22.33983,-16.7904 25.10038,-19.2324 30.1544,-26.67477 5.09198,-7.49828 12.15063,-13.04824 23.3456,-18.35581 14.95134,-7.08848 30.96844,-9.15377 45.44878,-5.86029 7.79213,1.77228 10.61234,4.07165 9.65793,7.8743 -1.06412,4.23981 -3.97741,5.06916 -17.80666,5.06916 -14.07184,0 -17.73967,1.20972 -10.70599,3.53104 7.5381,2.4878 11.95522,9.07895 9.83013,14.66835 -1.07614,2.83047 -5.33069,3.10504 -8.94003,0.57696 -3.07389,-2.15303 -13.61899,-1.91189 -16.14278,0.36915 -2.4674,2.23006 -4.15042,6.98704 -3.45389,9.76223 0.70715,2.81752 5.56613,5.59227 9.79287,5.59227 1.5802,0 6.39759,-1.18971 10.70533,-2.64381 8.77512,-2.96208 12.18084,-2.71048 14.66674,1.08349 1.43761,2.19406 1.43674,2.68059 -0.01,5.47788 -1.21059,2.34103 -3.81681,4.1399 -10.97645,7.5762 C 634.40227,439.97219 629.26393,442 628.14764,442 c -1.11628,0 -2.30772,0.45 -2.64764,1 -0.35052,0.56716 0.48962,1 1.94098,1 2.25793,0 2.55902,0.41181 2.55902,3.5 v 3.5 h -5.10941 -5.1094 l 0.4086,-3.5 0.40861,-3.5 -6.0492,-0.042 c -3.32706,-0.0231 -9.4242,-0.86689 -13.5492,-1.87511 -6.96911,-1.70335 -7.70354,-1.71808 -10.3755,-0.20801 -1.58152,0.89381 -11.48152,9.99151 -22,20.2171 -23.81536,23.15224 -37.36927,35.30199 -45.67113,40.93968 -11.88093,8.06818 -16.55361,8.58708 -31.60328,3.50951 z M 620,489.5 V 486 h 5 5 v 3.5 3.5 h -5 -5 z m 28,0.0613 v -3.56133 h 53.5 53.5 v 3.34245 3.34245 l -53.5,0.21888 -53.5,0.21888 z M 843,489.5 V 486 h 5 5 v 3.5 3.5 h -5 -5 z m -195,-42 V 444 h 45 45 v 3.5 3.5 h -45 -45 z m 195,0 V 444 h 5 5 v 3.5 3.5 h -5 -5 z M 648,405.83916 c 0,-3.40367 0.24868,-3.78856 2.25,-3.48236 1.83097,0.28014 2.23663,0.9629 2.1782,3.66613 -0.0577,2.67192 -0.49799,3.35329 -2.25,3.48236 C 648.29213,409.64424 648,409.15256 648,405.83916 Z M 671,406 v -3 h 42 42 v 3 3 h -42 -42 z m 172,0 v -3 h 5 5 v 3 3 h -5 -5 z M 431.03987,374.54804 c -2.79507,-3.36785 -0.81841,-4.77959 13.46013,-9.61325 7.7,-2.60665 36.04562,-12.23036 62.99026,-21.38603 26.94465,-9.15566 50.72462,-17.03634 52.84438,-17.51261 3.42196,-0.76887 3.80213,-0.66718 3.3905,0.90691 -0.25499,0.97508 -0.006,2.62429 0.5531,3.66491 0.5592,1.04062 0.67233,1.57651 0.25142,1.19087 -0.42092,-0.38563 -3.07478,0.19775 -5.89748,1.2964 C 555.80948,334.1939 538.425,340.20935 520,346.46291 450.49297,370.05405 432.89372,376 432.57403,376 c -0.18103,0 -0.8714,-0.65338 -1.53416,-1.45196 z M 620.98635,366.75 c -0.008,-0.6875 -0.285,-2.2625 -0.61664,-3.5 L 619.76674,361 H 624.88337 630 v 3.5 3.5 h -4.5 c -2.92605,0 -4.50478,-0.43721 -4.51365,-1.25 z M 648,364.5 V 361 h 8.5 8.5 v 3.5 3.5 h -8.5 -8.5 z m 35,0.0103 V 361 h 44.99158 44.99158 l -0.35563,3.25 -0.35563,3.25 -44.63595,0.2603 L 683,368.02059 Z M 843,364.5 V 361 h 5 5 v 3.5 3.5 h -5 -5 z M 447.21416,336.10889 c -11.24409,-3.8839 -21.23739,-13.23521 -26.29837,-24.60889 -3.34854,-7.52526 -3.83387,-21.96911 -1.00803,-30 5.84668,-16.61599 20.36337,-27.71689 38.20108,-29.21234 20.06137,-1.68188 39.1794,12.09395 44.49623,32.06253 5.81025,21.82169 -6.9778,44.99578 -28.53163,51.70408 -8.0666,2.51061 -19.68069,2.53423 -26.85928,0.0546 z M 620.18664,322.75 620.5,319.5 l 4.75,-0.30479 4.75,-0.30479 V 322.44521 326 h -5.06336 -5.06336 z M 648,322.5 V 319 h 53.5 53.5 v 3.5 3.5 H 701.5 648 Z m 195,0 V 319 h 5 5 v 3.5 3.5 h -5 -5 z m -223,-41 V 278 h 5 5 v 3.5 3.5 h -5 -5 z m 28,0.0103 V 278 h 45.06336 45.06336 l -0.31336,3.25 -0.31336,3.25 -44.75,0.2603 -44.75,0.26029 z M 843,281.5 V 278 h 5 5 v 3.5 3.5 h -5 -5 z"
         id="path520" />
      <path
         style="fill:#5a7a94"
         d="m 620,614 v -3 h 5 5 v 3 3 h -5 -5 z m 27.99979,-0.25 -2.1e-4,-3.25 53.50021,0.26715 L 755,611.0343 V 614.01715 617 H 701.5 648 Z M 843,614 v -3 h 5 5 v 3 3 h -5 -5 z M 620.66667,575.33333 C 620.3,574.96667 620,573.39167 620,571.83333 V 569 h 5 5 v 3.5 3.5 h -4.33333 c -2.38334,0 -4.63334,-0.3 -5,-0.66667 z M 648,572.5 V 569 h 53.5 53.5 v 3.5 3.5 H 701.5 648 Z m 195,0 V 569 h 5 5 v 3.5 3.5 h -5 -5 z m -222.51654,-41.75 0.25092,-3.25 4.63281,-0.30479 L 630,526.89042 V 530.44521 534 h -4.88373 -4.88373 z M 648,530.5 V 527 h 53.5 53.5 v 3.5 3.5 H 701.5 648 Z m 195,0 V 527 h 5 5 v 3.5 3.5 h -5 -5 z m -223,-41 V 486 h 5 5 v 3.5 3.5 h -5 -5 z m 28,0.0613 v -3.56133 h 53.5 53.5 v 3.34245 3.34245 l -53.5,0.21888 -53.5,0.21888 z M 843,489.5 V 486 h 5 5 v 3.5 3.5 h -5 -5 z M 620.18664,447.75 620.5,444.5 l 4.75,-0.30479 4.75,-0.30479 V 447.44521 451 h -5.06336 -5.06336 z M 648,447.5 V 444 h 45 45 v 3.5 3.5 h -45 -45 z m 195,0 V 444 h 5 5 v 3.5 3.5 h -5 -5 z M 648,405.83916 c 0,-3.40367 0.24868,-3.78856 2.25,-3.48236 1.83097,0.28014 2.23663,0.9629 2.1782,3.66613 -0.0577,2.67192 -0.49799,3.35329 -2.25,3.48236 C 648.29213,409.64424 648,409.15256 648,405.83916 Z M 622,408 c 1.97706,-1.27768 8,-1.27768 8,0 0,0.55 -2.1375,0.99311 -4.75,0.98469 -3.43547,-0.0111 -4.33489,-0.28358 -3.25,-0.98469 z m 49,-2 v -3 h 42 42 v 3 3 h -42 -42 z m 172,0 v -3 h 5 5 v 3 3 h -5 -5 z M 620.98635,366.75 c -0.008,-0.6875 -0.285,-2.2625 -0.61664,-3.5 L 619.76674,361 H 624.88337 630 v 3.5 3.5 h -4.5 c -2.92605,0 -4.50478,-0.43721 -4.51365,-1.25 z M 648,364.5 V 361 h 8.5 8.5 v 3.5 3.5 h -8.5 -8.5 z m 35,0.0103 V 361 h 44.99158 44.99158 l -0.35563,3.25 -0.35563,3.25 -44.63595,0.2603 L 683,368.02059 Z M 843,364.5 V 361 h 5 5 v 3.5 3.5 h -5 -5 z M 620.18664,322.75 620.5,319.5 l 4.75,-0.30479 4.75,-0.30479 V 322.44521 326 h -5.06336 -5.06336 z M 648,322.5 V 319 h 53.5 53.5 v 3.5 3.5 H 701.5 648 Z m 195,0 V 319 h 5 5 v 3.5 3.5 h -5 -5 z m -223,-41 V 278 h 5 5 v 3.5 3.5 h -5 -5 z m 28,0.0103 V 278 h 45.06336 45.06336 l -0.31336,3.25 -0.31336,3.25 -44.75,0.2603 -44.75,0.26029 z M 843,281.5 V 278 h 5 5 v 3.5 3.5 h -5 -5 z"
         id="path518" />
    </g>
    <ellipse
       style="fill:#3b6784;fill-opacity:1"
       id="path582"
       cx="471.03638"
       cy="273.89026"
       rx="8.4494448"
       ry="8.286067" />
  </g>
</svg>
